VelekaWorld-BoldItalic.ufo
<glyph name="exclam" format="2">
  <advance width="379"/>
  <unicode hex="0021"/>
  <outline>
    <contour>
      <point x="339" y="616" type="curve"/>
      <point x="339" y="616"/>
      <point x="251" y="347"/>
      <point x="204" y="208" type="curve"/>
      <point x="150" y="208" type="line"/>
      <point x="173" y="593" type="line"/>
      <point x="173" y="649"/>
      <point x="221" y="687" name="n07"/>
      <point x="271" y="687" type="curve" smooth="yes"/>
      <point x="320" y="687"/>
      <point x="339" y="665"/>
    </contour>
    <contour>
      <point x="240" y="65" type="curve" smooth="yes" name="n11"/>
      <point x="240" y="21"/>
      <point x="202" y="-12"/>
      <point x="158" y="-12" type="curve" smooth="yes" name="n14"/>
      <point x="115" y="-12"/>
      <point x="83" y="26"/>
      <point x="83" y="69" type="curve" smooth="yes" name="n17"/>
      <point x="83" y="113"/>
      <point x="116" y="149"/>
      <point x="159" y="149" type="curve" smooth="yes" name="n20"/>
      <point x="207" y="149"/>
      <point x="240" y="110"/>
    </contour>
  </outline>
</glyph>
<glyph name="quotesingle" format="2">
  <advance width="174"/>
  <unicode hex="0027"/>
  <outline>
    <contour>
      <point x="225" y="669" type="curve" smooth="yes" name="n00"/>
      <point x="225" y="637"/>
      <point x="152" y="459"/>
      <point x="137" y="417" type="curve" name="n03"/>
      <point x="100" y="417" type="line"/>
      <point x="107" y="651" type="line" name="n05"/>
      <point x="109" y="687"/>
      <point x="143" y="714" name="n07"/>
      <point x="177" y="714" type="curve" smooth="yes"/>
      <point x="206" y="714"/>
      <point x="225" y="700"/>
    </contour>
  </outline>
</glyph>
<glyph name="parenright" format="2">
  <advance width="423"/>
  <unicode hex="0029"/>
  <outline>
    <contour>
      <point x="353" y="439" type="curve" smooth="yes" name="n00"/>
      <point x="353" y="202"/>
      <point x="234" y="-134"/>
      <point x="-48" y="-142" type="curve"/>
      <point x="-38" y="-88" type="line"/>
      <point x="164" y="-62"/>
      <point x="232" y="304"/>
      <point x="232" y="479" type="curve" smooth="yes" name="n07"/>
      <point x="232" y="566"/>
      <point x="210" y="650"/>
      <point x="111" y="663" type="curve"/>
      <point x="122" y="717" type="line"/>
      <point x="289" y="712"/>
      <point x="353" y="593"/>
    </contour>
  </outline>
</glyph>
<glyph name="zero" format="2">
  <advance width="598"/>
  <unicode hex="0030"/>
  <outline>
    <contour>
      <point x="593" y="460" type="curve" smooth="yes" name="n00"/>
      <point x="593" y="234"/>
      <point x="474" y="-16"/>
      <point x="249" y="-16" type="curve" smooth="yes" name="n03"/>
      <point x="98" y="-16"/>
      <point x="34" y="74"/>
      <point x="34" y="210" type="curve" smooth="yes" name="n06"/>
      <point x="34" y="413"/>
      <point x="136" y="687"/>
      <point x="380" y="687" type="curve" smooth="yes" name="n09"/>
      <point x="539" y="687"/>
      <point x="593" y="581"/>
    </contour>
    <contour>
      <point x="443" y="478" type="curve" smooth="yes" name="n12"/>
      <point x="443" y="590"/>
      <point x="395" y="626"/>
      <point x="370" y="626" type="curve" smooth="yes" name="n15"/>
      <point x="274" y="626"/>
      <point x="185" y="384"/>
      <point x="185" y="194" type="curve" smooth="yes" name="n18"/>
      <point x="185" y="55"/>
      <point x="249" y="46"/>
      <point x="259" y="46" type="curve" smooth="yes" name="n21"/>
      <point x="349" y="46"/>
      <point x="443" y="286"/>
    </contour>
  </outline>
</glyph>
<glyph name="four" format="2">
  <advance width="598"/>
  <unicode hex="0034"/>
  <outline>
    <contour>
      <point x="565" y="277" type="line" name="n00"/>
      <point x="550" y="199" type="line" name="n01"/>
      <point x="457" y="199" type="line"/>
      <point x="413" y="-27" type="line" name="n03"/>
      <point x="277" y="-27" type="line"/>
      <point x="322" y="199" type="line"/>
      <point x="21" y="199" type="line"/>
      <point x="34" y="271" type="line"/>
      <point x="441" y="687" type="line" name="n08"/>
      <point x="554" y="687" type="line"/>
      <point x="474" y="277" type="line"/>
    </contour>
    <contour>
      <point x="378" y="479" type="line"/>
      <point x="181" y="277" type="line"/>
      <point x="338" y="277" type="line"/>
    </contour>
  </outline>
</glyph>
<glyph name="semicolon" format="2">
  <advance width="317"/>
  <unicode hex="003B"/>
  <outline>
    <contour>
      <point x="259" y="414" type="curve" smooth="yes" name="n00"/>
      <point x="259" y="368"/>
      <point x="222" y="331"/>
      <point x="176" y="331" type="curve" smooth="yes" name="n03"/>
      <point x="130" y="331"/>
      <point x="92" y="368"/>
      <point x="92" y="414" type="curve" smooth="yes" name="n06"/>
      <point x="92" y="460"/>
      <point x="130" y="498"/>
      <point x="176" y="498" type="curve" smooth="yes" name="n09"/>
      <point x="222" y="498"/>
      <point x="259" y="460"/>
    </contour>
    <contour>
      <point x="200" y="84" type="curve" smooth="yes" name="n12"/>
      <point x="200" y="-32" name="hr01"/>
      <point x="58" y="-168"/>
      <point x="-55" y="-176" type="curve"/>
      <point x="-46" y="-127" type="line"/>
      <point x="28" y="-116"/>
      <point x="89" y="-70"/>
      <point x="101" y="7" type="curve" name="n19"/>
      <point x="40" y="7" type="line"/>
      <point x="27" y="19"/>
      <point x="20" y="36"/>
      <point x="20" y="54" type="curve" smooth="yes" name="n23"/>
      <point x="20" y="108"/>
      <point x="69" y="155"/>
      <point x="123" y="155" type="curve" smooth="yes" name="n26"/>
      <point x="168" y="155"/>
      <point x="200" y="132"/>
    </contour>
  </outline>
</glyph>
<glyph name="less" format="2">
  <advance width="1000"/>
  <unicode hex="003C"/>
  <outline>
    <contour>
      <point x="800" y="39" type="line"/>
      <point x="200" y="269" type="line"/>
      <point x="200" y="331" type="line"/>
      <point x="800" y="561" type="line"/>
      <point x="800" y="499" type="line"/>
      <point x="264" y="300" type="line"/>
      <point x="800" y="101" type="line"/>
    </contour>
  </outline>
</glyph>
<glyph name="at" format="2">
  <advance width="936"/>
  <unicode hex="0040"/>
  <outline>
    <contour>
      <point x="878" y="368" type="curve" smooth="yes" name="n00"/>
      <point x="878" y="170"/>
      <point x="738" y="50"/>
      <point x="620" y="50" type="curve" smooth="yes" name="n03"/>
      <point x="559" y="50"/>
      <point x="540" y="83"/>
      <point x="534" y="120" type="curve"/>
      <point x="493" y="85"/>
      <point x="448" y="51"/>
      <point x="397" y="51" type="curve" smooth="yes"/>
      <point x="306" y="51"/>
      <point x="258" y="121"/>
      <point x="258" y="217" type="curve" smooth="yes" name="n12"/>
      <point x="258" y="366"/>
      <point x="376" y="490"/>
      <point x="521" y="490" type="curve" smooth="yes" name="n15"/>
      <point x="552" y="490"/>
      <point x="586" y="472"/>
      <point x="612" y="460" type="curve"/>
      <point x="625" y="485" type="line"/>
      <point x="709" y="485" type="line"/>
      <point x="703" y="466"/>
      <point x="639" y="188"/>
      <point x="639" y="188" type="curve"/>
      <point x="629" y="144"/>
      <point x="626" y="114"/>
      <point x="662" y="114" type="curve" smooth="yes" name="n26"/>
      <point x="702" y="114"/>
      <point x="801" y="206"/>
      <point x="801" y="367" type="curve" smooth="yes" name="n29"/>
      <point x="801" y="556"/>
      <point x="658" y="636"/>
      <point x="535" y="636" type="curve" smooth="yes" name="n32"/>
      <point x="325" y="636"/>
      <point x="159" y="477"/>
      <point x="159" y="253" type="curve" smooth="yes" name="n35"/>
      <point x="159" y="48"/>
      <point x="292" y="-101"/>
      <point x="495" y="-101" type="curve" smooth="yes" name="n38"/>
      <point x="600" y="-101"/>
      <point x="683" y="-64"/>
      <point x="768" y="-17" type="curve"/>
      <point x="789" y="-67" type="line"/>
      <point x="699" y="-114"/>
      <point x="598" y="-157"/>
      <point x="471" y="-157" type="curve" smooth="yes" name="n45"/>
      <point x="238" y="-157"/>
      <point x="58" y="-3"/>
      <point x="58" y="235" type="curve" smooth="yes" name="n48"/>
      <point x="58" y="527"/>
      <point x="281" y="687"/>
      <point x="522" y="687" type="curve" smooth="yes" name="n51"/>
      <point x="739" y="687"/>
      <point x="878" y="570"/>
    </contour>
    <contour>
      <point x="570" y="388" type="line" smooth="yes"/>
      <point x="573" y="404"/>
      <point x="559" y="441"/>
      <point x="525" y="441" type="curve" smooth="yes" name="n57"/>
      <point x="445" y="441"/>
      <point x="378" y="350"/>
      <point x="378" y="226" type="curve" smooth="yes" name="n60"/>
      <point x="378" y="151"/>
      <point x="411" y="122"/>
      <point x="442" y="122" type="curve" smooth="yes" name="n63"/>
      <point x="485" y="122"/>
      <point x="510" y="159"/>
      <point x="530" y="183" type="curve"/>
    </contour>
  </outline>
</glyph>
<glyph name="A" format="2">
  <advance width="714"/>
  <unicode hex="0041"/>
  <anchor x="418" y="740" name="top"/>
  <outline>
    <contour>
      <point x="-53" y="0" type="line" name="n00"/>
      <point x="-53" y="50" type="line"/>
      <point x="5" y="56" type="line"/>
      <point x="375" y="685" type="line" name="n03"/>
      <point x="493" y="685" type="line"/>
      <point x="602" y="71" type="line" smooth="yes"/>
      <point x="604" y="58"/>
      <point x="606.924" y="55.3109"/>
      <point x="622" y="54" type="curve" smooth="yes"/>
      <point x="668" y="50" type="line"/>
      <point x="668" y="0" type="line"/>
      <point x="391" y="0" type="line"/>
      <point x="391" y="50" type="line"/>
      <point x="437" y="55" type="line" smooth="yes"/>
      <point x="449.571" y="56.3664"/>
      <point x="456.144" y="60.0842"/>
      <point x="455.882" y="68.262" type="curve"/>
      <point x="456" y="70" type="line"/>
      <point x="427" y="253" type="line" name="n18"/>
      <point x="238" y="253" type="line"/>
      <point x="139" y="70" type="line" smooth="yes"/>
      <point x="137.687" y="67.5729"/>
      <point x="136.842" y="65.0457"/>
      <point x="136.862" y="63.195" type="curve"/>
      <point x="136.917" y="58.0509"/>
      <point x="142.455" y="55.9179"/>
      <point x="152" y="55" type="curve" smooth="yes"/>
      <point x="204" y="50" type="line"/>
      <point x="204" y="0" type="line"/>
    </contour>
    <contour>
      <point x="271" y="308" type="line"/>
      <point x="416" y="308" type="line" name="n30"/>
      <point x="383" y="502" type="line"/>
    </contour>
  </outline>
</glyph>
<glyph name="D" format="2">
  <advance width="712"/>
  <unicode hex="0044"/>
  <outline>
    <contour>
      <point x="695" y="414" type="curve" smooth="yes" name="n00"/>
      <point x="695" y="176"/>
      <point x="523" y="0"/>
      <point x="241" y="0" type="curve" smooth="yes" name="n03"/>
      <point x="-15" y="0" type="line"/>
      <point x="-15" y="50" type="line"/>
      <point x="14" y="53"/>
      <point x="45" y="54"/>
      <point x="45" y="54" type="curve"/>
      <point x="61" y="55"/>
      <point x="64" y="57"/>
      <point x="67" y="71" type="curve" smooth="yes"/>
      <point x="171" y="601" type="line"/>
      <point x="173" y="613"/>
      <point x="165" y="615"/>
      <point x="153" y="616" type="curve"/>
      <point x="153" y="616"/>
      <point x="123" y="618"/>
      <point x="95" y="621" type="curve"/>
      <point x="95" y="671" type="line"/>
      <point x="355" y="671" type="line" smooth="yes" name="n20"/>
      <point x="562" y="671"/>
      <point x="695" y="598"/>
    </contour>
    <contour>
      <point x="545" y="423" type="curve" smooth="yes" name="n23"/>
      <point x="545" y="588"/>
      <point x="433" y="608"/>
      <point x="330" y="611" type="curve" name="n26"/>
      <point x="316" y="611" type="line"/>
      <point x="208" y="62" type="line"/>
      <point x="259" y="62" type="line" name="n29"/>
      <point x="435" y="64"/>
      <point x="545" y="232"/>
    </contour>
  </outline>
</glyph>
<glyph name="E" format="2">
  <advance width="600"/>
  <unicode hex="0045"/>
  <anchor x="370" y="760" name="top"/>
  <outline>
    <contour>
      <point x="623" y="671" type="line" name="n00"/>
      <point x="591" y="513" type="line" name="n01"/>
      <point x="511" y="513" type="line"/>
      <point x="511" y="598" type="line" smooth="yes"/>
      <point x="511" y="608"/>
      <point x="499" y="611" name="hr01"/>
      <point x="488" y="611" type="curve" smooth="yes" name="n06"/>
      <point x="316" y="611" type="line"/>
      <point x="271" y="379" type="line"/>
      <point x="384" y="379" type="line" smooth="yes" name="n09"/>
      <point x="394" y="379"/>
      <point x="409" y="384"/>
      <point x="412" y="394" type="curve" smooth="yes"/>
      <point x="433" y="464" type="line"/>
      <point x="506" y="464" type="line"/>
      <point x="460" y="229.382" type="line"/>
      <point x="386" y="229.382" type="line" name="n16"/>
      <point x="396" y="304.903" type="line"/>
      <point x="396.246" y="313.489"/>
      <point x="383" y="319" name="hr02"/>
      <point x="374" y="319" type="curve" smooth="yes" name="n20"/>
      <point x="259" y="319" type="line"/>
      <point x="209" y="60" type="line"/>
      <point x="422" y="60" type="line" smooth="yes" name="n23"/>
      <point x="432" y="60"/>
      <point x="447.396" y="65.8625"/>
      <point x="450" y="74" type="curve" smooth="yes"/>
      <point x="482" y="174" type="line" name="n27"/>
      <point x="561" y="174" type="line"/>
      <point x="526" y="0" type="line" name="n29"/>
      <point x="-15" y="0" type="line"/>
      <point x="-15" y="50" type="line"/>
      <point x="45" y="55" type="line" smooth="yes"/>
      <point x="60" y="56"/>
      <point x="64.4673" y="58.0932"/>
      <point x="67" y="71" type="curve" smooth="yes"/>
      <point x="171" y="601" type="line"/>
      <point x="170.926" y="609.267"/>
      <point x="166" y="615"/>
      <point x="153" y="616" type="curve" smooth="yes"/>
      <point x="96" y="621" type="line"/>
      <point x="96" y="671" type="line"/>
    </contour>
  </outline>
</glyph>
<glyph name="U" format="2">
  <advance width="749"/>
  <unicode hex="0055"/>
  <anchor x="460" y="720" name="top"/>
  <outline>
    <contour>
      <point x="791" y="621" type="line"/>
      <point x="725" y="616" type="line" smooth="yes"/>
      <point x="716.698" y="615.371"/>
      <point x="710.982" y="609.909"/>
      <point x="709" y="600" type="curve" smooth="yes"/>
      <point x="632" y="215" type="line" smooth="yes"/>
      <point x="601.375" y="61.8736"/>
      <point x="499.967" y="-16"/>
      <point x="328.018" y="-16" type="curve" smooth="yes" name="n08"/>
      <point x="174.979" y="-16"/>
      <point x="92" y="44.5866"/>
      <point x="92" y="157.486" type="curve" smooth="yes" name="n11"/>
      <point x="92" y="183.781"/>
      <point x="96.5012" y="224.206"/>
      <point x="105" y="265" type="curve" smooth="yes"/>
      <point x="175" y="601" type="line"/>
      <point x="175.248" y="610.313"/>
      <point x="169.377" y="614.716"/>
      <point x="155" y="616" type="curve" smooth="yes" name="n18"/>
      <point x="99" y="621" type="line"/>
      <point x="99" y="671" type="line" name="n20"/>
      <point x="401" y="671" type="line"/>
      <point x="401" y="621" type="line"/>
      <point x="339" y="616" type="line" smooth="yes"/>
      <point x="325.595" y="614.919"/>
      <point x="320.222" y="610.787"/>
      <point x="318" y="600" type="curve" smooth="yes"/>
      <point x="249" y="265" type="line" smooth="yes"/>
      <point x="242.13" y="231.645"/>
      <point x="238" y="198.14"/>
      <point x="238" y="175.76" type="curve" smooth="yes" name="n30"/>
      <point x="238" y="103.772"/>
      <point x="285.508" y="59"/>
      <point x="360.705" y="59" type="curve" smooth="yes" name="n33"/>
      <point x="449.067" y="59"/>
      <point x="503.238" y="120.823"/>
      <point x="529" y="250" type="curve" smooth="yes"/>
      <point x="599" y="601" type="line"/>
      <point x="598.601" y="611.249"/>
      <point x="594.156" y="614.758"/>
      <point x="580" y="616" type="curve" smooth="yes"/>
      <point x="523" y="621" type="line"/>
      <point x="523" y="671" type="line"/>
      <point x="791" y="671" type="line"/>
    </contour>
  </outline>
</glyph>
<glyph name="bracketleft" format="2">
  <advance width="448"/>
  <unicode hex="005B"/>
  <outline>
    <contour>
      <point x="498" y="708" type="line" name="n00"/>
      <point x="486" y="648" type="line"/>
      <point x="333" y="648" type="line"/>
      <point x="189" y="-74" type="line" name="n03"/>
      <point x="343" y="-74" type="line" name="n04"/>
      <point x="331" y="-132" type="line"/>
      <point x="54" y="-132" type="line"/>
      <point x="220" y="708" type="line" name="n07"/>
    </contour>
  </outline>
</glyph>
<glyph name="bracketright" format="2">
  <advance width="448"/>
  <unicode hex="005D"/>
  <outline>
    <contour>
      <point x="403" y="708" type="line"/>
      <point x="237" y="-132" type="line"/>
      <point x="-41" y="-132" type="line" name="n02"/>
      <point x="-29" y="-74" type="line" name="n03"/>
      <point x="125" y="-74" type="line"/>
      <point x="268" y="648" type="line"/>
      <point x="114" y="648" type="line" name="n06"/>
      <point x="126" y="708" type="line" name="n07"/>
    </contour>
  </outline>
</glyph>
<glyph name="a" format="2">
  <advance width="567"/>
  <unicode hex="0061"/>
  <anchor x="330" y="570" name="top"/>
  <outline>
    <contour>
      <point x="565" y="30" type="line"/>
      <point x="518.125" y="8.04841"/>
      <point x="464" y="-12"/>
      <point x="414.881" y="-12" type="curve" smooth="yes"/>
      <point x="371" y="-12"/>
      <point x="342" y="4"/>
      <point x="329" y="33" type="curve"/>
      <point x="294" y="10"/>
      <point x="247" y="-12"/>
      <point x="193.823" y="-12" type="curve" smooth="yes" name="n09"/>
      <point x="76" y="-12"/>
      <point x="32" y="95.8259"/>
      <point x="32" y="170.43" type="curve" smooth="yes" name="n12"/>
      <point x="32" y="318.644"/>
      <point x="129" y="500"/>
      <point x="344" y="500" type="curve" smooth="yes" name="n15"/>
      <point x="373" y="500"/>
      <point x="404" y="490.69"/>
      <point x="427" y="478.276" type="curve"/>
      <point x="434" y="487.586" type="line"/>
      <point x="541" y="487.586" type="line"/>
      <point x="530.267" y="467.499"/>
      <point x="519.562" y="443.193"/>
      <point x="516" y="425.079" type="curve" smooth="yes"/>
      <point x="451" y="96.8206" type="line"/>
      <point x="451" y="66.9789"/>
      <point x="454" y="57"/>
      <point x="478" y="57" type="curve" smooth="yes"/>
      <point x="483" y="57"/>
      <point x="545.752" y="71.0531"/>
      <point x="565" y="77.9208" type="curve"/>
    </contour>
    <contour>
      <point x="375" y="392.253" type="line"/>
      <point x="375.221" y="398.7"/>
      <point x="370" y="440"/>
      <point x="359" y="440" type="curve" smooth="yes" name="n34"/>
      <point x="231" y="440"/>
      <point x="173" y="289.797"/>
      <point x="173" y="176.398" type="curve" smooth="yes" name="n37"/>
      <point x="173" y="123.678"/>
      <point x="174.515" y="63"/>
      <point x="229.422" y="63" type="curve" smooth="yes" name="n40"/>
      <point x="274" y="63"/>
      <point x="308.905" y="102.996"/>
      <point x="323" y="120.694" type="curve"/>
    </contour>
  </outline>
</glyph>
<glyph name="g" format="2">
  <advance width="485"/>
  <unicode hex="0067"/>
  <outline>
    <contour>
      <point x="533" y="415" type="line" name="n00"/>
      <point x="441" y="415" type="line"/>
      <point x="447.826" y="398.097"/>
      <point x="452" y="374.794"/>
      <point x="452" y="351.465" type="curve" smooth="yes"/>
      <point x="452" y="241.061"/>
      <point x="358.522" y="159"/>
      <point x="230.339" y="159" type="curve" name="n07"/>
      <point x="224.416" y="143.146"/>
      <point x="220.749" y="126.269"/>
      <point x="220.749" y="114.865" type="curve" smooth="yes"/>
      <point x="220.749" y="112.375"/>
      <point x="220.923" y="110.179"/>
      <point x="221.268" y="108.307" type="curve"/>
      <point x="354" y="48.6687" type="line" smooth="yes"/>
      <point x="432.6" y="13.3524"/>
      <point x="460" y="-12.2849"/>
      <point x="460" y="-55.8051" type="curve" smooth="yes"/>
      <point x="460" y="-148.608"/>
      <point x="329.393" y="-229"/>
      <point x="181.601" y="-229" type="curve" smooth="yes" name="n20"/>
      <point x="53.7397" y="-229"/>
      <point x="-31" y="-168.829"/>
      <point x="-31" y="-82.6313" type="curve" smooth="yes" name="n23"/>
      <point x="-31" y="-17.8767"/>
      <point x="16.8225" y="31.992"/>
      <point x="104.929" y="61.5904" type="curve"/>
      <point x="104.326" y="65.1756"/>
      <point x="104.016" y="69.1091"/>
      <point x="104" y="73.3411" type="curve" smooth="yes"/>
      <point x="103.877" y="105.826"/>
      <point x="120.639" y="149.204"/>
      <point x="142.122" y="172" type="curve"/>
      <point x="78.9607" y="201.946"/>
      <point x="49" y="243.128" name="hr01"/>
      <point x="49" y="303.242" type="curve" smooth="yes" name="n35"/>
      <point x="49" y="411.294"/>
      <point x="145.798" y="500"/>
      <point x="267.246" y="500" type="curve" smooth="yes" name="n38"/>
      <point x="305.329" y="500"/>
      <point x="349.55" y="490.768"/>
      <point x="387" y="475" type="curve" name="hr02"/>
      <point x="533" y="475" type="line" name="n42"/>
    </contour>
    <contour>
      <point x="315" y="358.54" type="curve" smooth="yes"/>
      <point x="315" y="405.095"/>
      <point x="315" y="448" name="hr03"/>
      <point x="284.462" y="448" type="curve" smooth="yes" name="n46"/>
      <point x="239.027" y="448"/>
      <point x="187" y="353.025"/>
      <point x="187" y="284.251" type="curve" smooth="yes" name="n49"/>
      <point x="187" y="226.165"/>
      <point x="197.638" y="206"/>
      <point x="225.608" y="206" type="curve" smooth="yes" name="n52"/>
      <point x="276.721" y="206"/>
      <point x="315" y="273.333"/>
    </contour>
    <contour>
      <point x="325" y="-83.1129" type="curve" smooth="yes"/>
      <point x="325" y="-55.5371"/>
      <point x="310.203" y="-36.4544"/>
      <point x="276.701" y="-21.9036" type="curve" smooth="yes"/>
      <point x="164.561" y="26.8012" type="line"/>
      <point x="127.011" y="12.0202"/>
      <point x="107" y="-17.954"/>
      <point x="107" y="-61.173" type="curve" smooth="yes" name="n62"/>
      <point x="107" y="-125.978"/>
      <point x="151.993" y="-171"/>
      <point x="218.509" y="-171" type="curve" smooth="yes" name="n65"/>
      <point x="278.543" y="-171"/>
      <point x="325" y="-131.974"/>
    </contour>
  </outline>
</glyph>
<glyph name="i" format="2">
  <advance width="310"/>
  <unicode hex="0069"/>
  <outline>
    <contour>
      <point x="295" y="663" type="curve" smooth="yes" name="n00"/>
      <point x="295" y="620"/>
      <point x="260.226" y="585"/>
      <point x="217.503" y="585" type="curve" smooth="yes" name="n03"/>
      <point x="175.055" y="585"/>
      <point x="141" y="619.721"/>
      <point x="141" y="663" type="curve" smooth="yes" name="n06"/>
      <point x="141" y="706"/>
      <point x="174.781" y="740"/>
      <point x="217.503" y="740" type="curve" smooth="yes" name="n09"/>
      <point x="260.503" y="740"/>
      <point x="295" y="705.724"/>
    </contour>
    <contour>
      <point x="308" y="32" type="line"/>
      <point x="250.621" y="1.24261"/>
      <point x="200.059" y="-12" name="n14"/>
      <point x="140" y="-12" type="curve" smooth="yes"/>
      <point x="86.6858" y="-12"/>
      <point x="50.8606" y="19.4754"/>
      <point x="49.0558" y="67.902" type="curve" smooth="yes"/>
      <point x="48.7829" y="75.2234"/>
      <point x="49.4021" y="82.5797"/>
      <point x="51" y="91" type="curve" smooth="yes"/>
      <point x="114" y="423" type="line"/>
      <point x="28" y="432" type="line"/>
      <point x="28" y="467" type="line"/>
      <point x="192.665" y="500" type="line" name="n25"/>
      <point x="262.213" y="500" type="line"/>
      <point x="185.71" y="99" type="line" smooth="yes"/>
      <point x="183.979" y="89.93"/>
      <point x="182.914" y="82.3279"/>
      <point x="182.93" y="76.0572" type="curve" smooth="yes"/>
      <point x="182.971" y="60.7117"/>
      <point x="188.708" y="53"/>
      <point x="201.485" y="53" type="curve" smooth="yes"/>
      <point x="221.118" y="53"/>
      <point x="278.904" y="71.2064"/>
      <point x="308" y="87" type="curve"/>
    </contour>
  </outline>
</glyph>
<glyph name="j" format="2">
  <advance width="317"/>
  <unicode hex="006A"/>
  <outline>
    <contour>
      <point x="311" y="663" type="curve" smooth="yes" name="n00"/>
      <point x="311" y="620"/>
      <point x="275" y="585"/>
      <point x="232" y="585" type="curve" smooth="yes" name="n03"/>
      <point x="189" y="585"/>
      <point x="155" y="620"/>
      <point x="155" y="663" type="curve" smooth="yes" name="n06"/>
      <point x="155" y="706"/>
      <point x="189" y="740"/>
      <point x="232" y="740" type="curve" smooth="yes" name="n09"/>
      <point x="275" y="740"/>
      <point x="311" y="706"/>
    </contour>
    <contour>
      <point x="275" y="500" type="line" name="n12"/>
      <point x="204" y="84" type="line"/>
      <point x="186" y="-17"/>
      <point x="96" y="-229" name="n15"/>
      <point x="-42" y="-229" type="curve" smooth="yes"/>
      <point x="-89" y="-229"/>
      <point x="-129" y="-204"/>
      <point x="-129" y="-171" type="curve" smooth="yes"/>
      <point x="-129" y="-146"/>
      <point x="-111" y="-132"/>
      <point x="-88" y="-117" type="curve"/>
      <point x="7" y="-142" type="line"/>
      <point x="25" y="-114"/>
      <point x="46" y="-55"/>
      <point x="55" y="-6" type="curve" smooth="yes"/>
      <point x="129" y="422" type="line"/>
      <point x="43" y="431" type="line"/>
      <point x="43" y="467" type="line"/>
      <point x="209" y="500" type="line"/>
    </contour>
  </outline>
</glyph>
<glyph name="k" format="2">
  <advance width="549"/>
  <unicode hex="006B"/>
  <outline>
    <contour>
      <point x="538" y="26" type="line"/>
      <point x="505" y="9"/>
      <point x="440" y="-12"/>
      <point x="394" y="-12" type="curve" smooth="yes" name="n03"/>
      <point x="358" y="-12"/>
      <point x="315" y="16"/>
      <point x="297" y="43" type="curve" smooth="yes"/>
      <point x="275" y="77"/>
      <point x="233" y="170"/>
      <point x="208" y="224" type="curve"/>
      <point x="187" y="205" type="line"/>
      <point x="145" y="0" type="line" name="n11"/>
      <point x="12" y="0" type="line"/>
      <point x="146" y="661" type="line"/>
      <point x="58" y="669" type="line"/>
      <point x="58" y="705" type="line"/>
      <point x="227" y="737" type="line" name="n16"/>
      <point x="295" y="737" type="line"/>
      <point x="211" y="326" type="line"/>
      <point x="323" y="441" type="line" smooth="yes"/>
      <point x="364" y="484"/>
      <point x="399" y="500" name="n21"/>
      <point x="438" y="500" type="curve" smooth="yes"/>
      <point x="487" y="500"/>
      <point x="523" y="469"/>
      <point x="523" y="442" type="curve" smooth="yes"/>
      <point x="523" y="418"/>
      <point x="517" y="371"/>
      <point x="440" y="345" type="curve"/>
      <point x="400" y="410" type="line"/>
      <point x="368" y="383"/>
      <point x="325" y="338"/>
      <point x="300" y="316" type="curve"/>
      <point x="318" y="282"/>
      <point x="343" y="206"/>
      <point x="372" y="152" type="curve" smooth="yes"/>
      <point x="401" y="100"/>
      <point x="422" y="51" name="hr02"/>
      <point x="456" y="51" type="curve" name="n38"/>
      <point x="457" y="51"/>
      <point x="482" y="56"/>
      <point x="538" y="79" type="curve"/>
    </contour>
  </outline>
</glyph>
<glyph name="l" format="2">
  <advance width="306"/>
  <unicode hex="006C"/>
  <outline>
    <contour>
      <point x="304" y="29" type="line"/>
      <point x="256" y="4"/>
      <point x="196" y="-12"/>
      <point x="144" y="-12" type="curve" smooth="yes" name="n03"/>
      <point x="78" y="-12"/>
      <point x="39" y="18"/>
      <point x="39" y="64" type="curve" smooth="yes"/>
      <point x="39" y="75"/>
      <point x="40" y="87"/>
      <point x="43" y="100" type="curve"/>
      <point x="152" y="661" type="line"/>
      <point x="64" y="669" type="line"/>
      <point x="64" y="705" type="line"/>
      <point x="233" y="737" type="line" name="n13"/>
      <point x="299" y="737" type="line"/>
      <point x="176" y="102" type="line" smooth="yes"/>
      <point x="172" y="79"/>
      <point x="177" y="53"/>
      <point x="202" y="53" type="curve" smooth="yes" name="n18"/>
      <point x="218" y="53"/>
      <point x="257" y="62"/>
      <point x="304" y="83" type="curve"/>
    </contour>
  </outline>
</glyph>
<glyph name="s" format="2">
  <advance width="415"/>
  <unicode hex="0073"/>
  <outline>
    <contour>
      <point x="394" y="423" type="curve" smooth="yes"/>
      <point x="394" y="377.446"/>
      <point x="370.268" y="357.952"/>
      <point x="310" y="354" type="curve"/>
      <point x="259" y="441" type="line"/>
      <point x="252.54" y="443.656"/>
      <point x="245.172" y="445"/>
      <point x="237.077" y="445" type="curve" smooth="yes" name="n07"/>
      <point x="205.749" y="445"/>
      <point x="191" y="425.154"/>
      <point x="191" y="383" type="curve" smooth="yes" name="n10"/>
      <point x="191" y="351.944"/>
      <point x="217.063" y="319.951"/>
      <point x="273.491" y="276.062" type="curve" smooth="yes"/>
      <point x="342.444" y="222.432"/>
      <point x="368" y="185.053"/>
      <point x="368" y="140.772" type="curve" smooth="yes" name="n16"/>
      <point x="368" y="55.2727"/>
      <point x="272.727" y="-12"/>
      <point x="149.494" y="-12" type="curve" smooth="yes" name="n19"/>
      <point x="55.8389" y="-12"/>
      <point x="-7" y="25.5383"/>
      <point x="-7" y="81.4854" type="curve" smooth="yes"/>
      <point x="-7" y="119.021"/>
      <point x="22.9564" y="151" name="hr01"/>
      <point x="58.1178" y="151" type="curve" smooth="yes" name="n25"/>
      <point x="76.9829" y="151"/>
      <point x="97.2592" y="141.798"/>
      <point x="111" y="127" type="curve"/>
      <point x="93" y="68" type="line"/>
      <point x="104.681" y="51.3126"/>
      <point x="141.741" y="37" name="hr02"/>
      <point x="171.415" y="37" type="curve" smooth="yes" name="n32"/>
      <point x="211.486" y="37"/>
      <point x="235" y="63.0998"/>
      <point x="235" y="106.678" type="curve" smooth="yes" name="n35"/>
      <point x="235" y="145.964"/>
      <point x="215.89" y="172.084"/>
      <point x="153" y="220" type="curve" smooth="yes"/>
      <point x="98.0817" y="261.843"/>
      <point x="70" y="306.872"/>
      <point x="70" y="353.093" type="curve" smooth="yes" name="n41"/>
      <point x="70" y="433.918"/>
      <point x="156.994" y="500"/>
      <point x="255.898" y="500" type="curve" smooth="yes" name="n44"/>
      <point x="330.4" y="500"/>
      <point x="394" y="462.503"/>
    </contour>
  </outline>
</glyph>
<glyph name="t" format="2">
  <advance width="344"/>
  <unicode hex="0074"/>
  <outline>
    <contour>
      <point x="393" y="418" type="line" name="n00"/>
      <point x="244" y="418" type="line" name="n01"/>
      <point x="181" y="109" type="line"/>
      <point x="174" y="78"/>
      <point x="189" y="57"/>
      <point x="220" y="57" type="curve" smooth="yes" name="n05"/>
      <point x="251" y="57"/>
      <point x="313" y="81"/>
      <point x="345" y="92" type="curve"/>
      <point x="345" y="37" type="line"/>
      <point x="323" y="27"/>
      <point x="223" y="-12"/>
      <point x="160" y="-12" type="curve" smooth="yes" name="n12"/>
      <point x="83" y="-12"/>
      <point x="46" y="26"/>
      <point x="46" y="78" type="curve" smooth="yes"/>
      <point x="46" y="91"/>
      <point x="47" y="104"/>
      <point x="50" y="118" type="curve" smooth="yes"/>
      <point x="111" y="416" type="line"/>
      <point x="39" y="408" type="line"/>
      <point x="39" y="449" type="line"/>
      <point x="124" y="483" type="line"/>
      <point x="175" y="586" type="line"/>
      <point x="275" y="586" type="line" name="n24"/>
      <point x="254" y="473" type="line" name="hr01"/>
      <point x="393" y="473" type="line" name="n26"/>
    </contour>
  </outline>
</glyph>
<glyph name="exclamdown" format="2">
  <advance width="339"/>
  <unicode hex="00A1"/>
  <outline>
    <contour>
      <point x="278" y="416" type="curve" smooth="yes" name="n00"/>
      <point x="278" y="372"/>
      <point x="239" y="339"/>
      <point x="195" y="339" type="curve" smooth="yes" name="n03"/>
      <point x="152" y="339"/>
      <point x="120" y="377"/>
      <point x="120" y="420" type="curve" smooth="yes" name="n06"/>
      <point x="120" y="464"/>
      <point x="153" y="500"/>
      <point x="196" y="500" type="curve" smooth="yes" name="n09"/>
      <point x="244" y="500"/>
      <point x="278" y="461"/>
    </contour>
    <contour>
      <point x="202" y="280" type="line"/>
      <point x="179" y="-118" type="line" smooth="yes"/>
      <point x="176" y="-174"/>
      <point x="126" y="-199" name="n15"/>
      <point x="81" y="-199" type="curve" smooth="yes"/>
      <point x="42" y="-199"/>
      <point x="13" y="-180"/>
      <point x="13" y="-135" type="curve" smooth="yes"/>
      <point x="13" y="-110"/>
      <point x="102" y="141"/>
      <point x="148" y="280" type="curve"/>
    </contour>
  </outline>
</glyph>
<glyph name="cent" format="2">
  <advance width="598"/>
  <unicode hex="00A2"/>
  <outline>
    <contour>
      <point x="562" y="468" type="curve"/>
      <point x="535" y="335" type="line"/>
      <point x="468" y="335" type="line"/>
      <point x="468" y="341"/>
      <point x="484" y="426"/>
      <point x="459" y="432" type="curve"/>
      <point x="453" y="435"/>
      <point x="426" y="443"/>
      <point x="403" y="446" type="curve"/>
      <point x="324" y="42" type="line"/>
      <point x="345" y="43"/>
      <point x="368" y="48"/>
      <point x="376" y="51" type="curve"/>
      <point x="415" y="57"/>
      <point x="412" y="121"/>
      <point x="427" y="157" type="curve"/>
      <point x="495" y="157" type="line"/>
      <point x="469" y="20" type="line"/>
      <point x="431" y="8"/>
      <point x="377" y="-7" name="n19"/>
      <point x="314" y="-11" type="curve"/>
      <point x="294" y="-110" type="line" name="n21"/>
      <point x="217" y="-110" type="line"/>
      <point x="237" y="-9" type="line"/>
      <point x="91" y="9"/>
      <point x="41" y="107"/>
      <point x="41" y="197" type="curve" smooth="yes" name="n26"/>
      <point x="41" y="335"/>
      <point x="150" y="476"/>
      <point x="336" y="497" type="curve"/>
      <point x="354" y="592" type="line" name="n30"/>
      <point x="432" y="592" type="line"/>
      <point x="414" y="499" type="line"/>
      <point x="463" y="495"/>
      <point x="505" y="484"/>
    </contour>
    <contour>
      <point x="324" y="434" type="line"/>
      <point x="244" y="403"/>
      <point x="169" y="317"/>
      <point x="169" y="188" type="curve" smooth="yes" name="n38"/>
      <point x="169" y="116"/>
      <point x="205" y="73"/>
      <point x="249" y="54" type="curve"/>
    </contour>
  </outline>
</glyph>
<glyph name="section" format="2">
  <advance width="541"/>
  <unicode hex="00A7"/>
  <outline>
    <contour>
      <point x="539" y="689" type="curve"/>
      <point x="513" y="554" type="line"/>
      <point x="437" y="554" type="line"/>
      <point x="441" y="639" type="line"/>
      <point x="413" y="657"/>
      <point x="365" y="661"/>
      <point x="356" y="661" type="curve" smooth="yes" name="n06"/>
      <point x="339" y="661"/>
      <point x="267" y="638"/>
      <point x="267" y="577" type="curve" smooth="yes" name="n09"/>
      <point x="267" y="514"/>
      <point x="377" y="491"/>
      <point x="445" y="436" type="curve" smooth="yes"/>
      <point x="476" y="410"/>
      <point x="499" y="378"/>
      <point x="499" y="331" type="curve" smooth="yes" name="n15"/>
      <point x="499" y="252"/>
      <point x="428" y="182"/>
      <point x="347" y="146" type="curve"/>
      <point x="394" y="120"/>
      <point x="425" y="86" name="hr01"/>
      <point x="425" y="41" type="curve" smooth="yes" name="n21"/>
      <point x="425" y="-66"/>
      <point x="316" y="-140"/>
      <point x="180" y="-140" type="curve" smooth="yes" name="n24"/>
      <point x="114" y="-140"/>
      <point x="59" y="-126"/>
      <point x="12" y="-104" type="curve"/>
      <point x="36" y="32" type="line"/>
      <point x="115" y="32" type="line"/>
      <point x="112" y="-62" type="line"/>
      <point x="140" y="-79"/>
      <point x="189" y="-82"/>
      <point x="198" y="-82" type="curve" smooth="yes" name="n33"/>
      <point x="217" y="-82"/>
      <point x="291" y="-57"/>
      <point x="291" y="5" type="curve" smooth="yes" name="n36"/>
      <point x="291" y="75"/>
      <point x="187" y="89"/>
      <point x="112" y="150" type="curve" smooth="yes"/>
      <point x="80" y="176"/>
      <point x="59" y="209"/>
      <point x="59" y="257" type="curve" smooth="yes" name="n42"/>
      <point x="59" y="344"/>
      <point x="119" y="403"/>
      <point x="205" y="441" type="curve"/>
      <point x="160" y="468"/>
      <point x="131" y="500" name="hr02"/>
      <point x="131" y="545" type="curve" smooth="yes" name="n48"/>
      <point x="131" y="660"/>
      <point x="243" y="718"/>
      <point x="382" y="718" type="curve" smooth="yes" name="n51"/>
      <point x="434" y="718"/>
      <point x="496" y="708"/>
    </contour>
    <contour>
      <point x="362" y="305" type="curve" smooth="yes" name="n54"/>
      <point x="362" y="343"/>
      <point x="341" y="375"/>
      <point x="274" y="407" type="curve"/>
      <point x="216" y="378"/>
      <point x="194" y="326"/>
      <point x="194" y="289" type="curve" smooth="yes" name="n60"/>
      <point x="194" y="246"/>
      <point x="210" y="221"/>
      <point x="280" y="182" type="curve"/>
      <point x="328" y="214"/>
      <point x="362" y="257"/>
    </contour>
  </outline>
</glyph>
<glyph name="copyright" format="2">
  <advance width="836"/>
  <unicode hex="00A9"/>
  <outline>
    <contour>
      <point x="825" y="350" type="curve" smooth="yes" name="n00"/>
      <point x="825" y="135"/>
      <point x="652" y="-39"/>
      <point x="437" y="-39" type="curve" smooth="yes" name="n03"/>
      <point x="225" y="-39"/>
      <point x="51" y="135"/>
      <point x="51" y="350" type="curve" smooth="yes" name="n06"/>
      <point x="51" y="564"/>
      <point x="225" y="739"/>
      <point x="439" y="739" type="curve" smooth="yes" name="n09"/>
      <point x="650" y="739"/>
      <point x="825" y="565"/>
    </contour>
    <contour>
      <point x="777" y="350" type="curve" smooth="yes" name="n12"/>
      <point x="777" y="539"/>
      <point x="626" y="692"/>
      <point x="439" y="692" type="curve" smooth="yes" name="n15"/>
      <point x="253" y="692"/>
      <point x="99" y="541"/>
      <point x="99" y="348" type="curve" smooth="yes" name="n18"/>
      <point x="99" y="162"/>
      <point x="250" y="8"/>
      <point x="438" y="8" type="curve" smooth="yes" name="n21"/>
      <point x="626" y="8"/>
      <point x="777" y="163"/>
    </contour>
    <contour>
      <point x="608" y="139" type="line"/>
      <point x="608" y="139"/>
      <point x="549" y="114"/>
      <point x="463" y="114" type="curve" smooth="yes" name="n27"/>
      <point x="321" y="114"/>
      <point x="220" y="201"/>
      <point x="220" y="350" type="curve" smooth="yes" name="n30"/>
      <point x="220" y="479"/>
      <point x="313" y="585"/>
      <point x="467" y="585" type="curve" smooth="yes" name="n33"/>
      <point x="557" y="585"/>
      <point x="608" y="558"/>
      <point x="608" y="558" type="curve"/>
      <point x="608" y="437" type="line"/>
      <point x="552" y="437" type="line"/>
      <point x="538" y="517" type="line"/>
      <point x="538" y="517"/>
      <point x="519" y="535"/>
      <point x="481" y="535" type="curve" smooth="yes" name="n42"/>
      <point x="375" y="535"/>
      <point x="334" y="435"/>
      <point x="334" y="348" type="curve" smooth="yes" name="n45"/>
      <point x="334" y="243"/>
      <point x="388" y="164"/>
      <point x="478" y="164" type="curve" smooth="yes" name="n48"/>
      <point x="513" y="164"/>
      <point x="538" y="178"/>
      <point x="538" y="178" type="curve"/>
      <point x="552" y="264" type="line"/>
      <point x="608" y="264" type="line"/>
    </contour>
  </outline>
</glyph>
<glyph name="guillemotleft" format="2">
  <advance width="413"/>
  <unicode hex="00AB"/>
  <outline>
    <contour>
      <point x="123" y="0" type="line" name="n00"/>
      <point x="18" y="215" type="line"/>
      <point x="28" y="266" type="line"/>
      <point x="220" y="482" type="line" name="n03"/>
      <point x="288" y="482" type="line"/>
      <point x="124" y="241" type="line"/>
      <point x="190" y="0" type="line"/>
    </contour>
    <contour>
      <point x="293" y="0" type="line"/>
      <point x="188" y="215" type="line"/>
      <point x="199" y="266" type="line"/>
      <point x="391" y="482" type="line"/>
      <point x="458" y="482" type="line"/>
      <point x="295" y="241" type="line"/>
      <point x="360" y="0" type="line"/>
    </contour>
  </outline>
</glyph>
<glyph name="acute" format="2">
  <advance width="320"/>
  <unicode hex="00B4"/>
  <outline>
    <contour>
      <point x="407" y="681" type="curve" smooth="yes"/>
      <point x="407" y="668"/>
      <point x="396" y="647"/>
      <point x="381" y="639" type="curve" smooth="yes"/>
      <point x="220" y="551" type="line" name="n04"/>
      <point x="150" y="551" type="line"/>
      <point x="287" y="702" type="line" smooth="yes"/>
      <point x="309" y="727"/>
      <point x="323" y="734" name="n08"/>
      <point x="350" y="734" type="curve" smooth="yes"/>
      <point x="393" y="734"/>
      <point x="407" y="705"/>
    </contour>
  </outline>
</glyph>
<glyph name="mu" format="2">
  <advance width="583"/>
  <unicode hex="00B5"/>
  <outline>
    <contour>
      <point x="558" y="118" type="line"/>
      <point x="537" y="40"/>
      <point x="495" y="-12"/>
      <point x="410" y="-12" type="curve" smooth="yes" name="n03"/>
      <point x="366" y="-12"/>
      <point x="340" y="30"/>
      <point x="333" y="68" type="curve" name="n06"/>
      <point x="290" y="18"/>
      <point x="249" y="-12"/>
      <point x="180" y="-12" type="curve" smooth="yes" name="n09"/>
      <point x="161" y="-12"/>
      <point x="124" y="13"/>
      <point x="111" y="27" type="curve"/>
      <point x="96" y="-44"/>
      <point x="108" y="-78"/>
      <point x="108" y="-146" type="curve" smooth="yes" name="n15"/>
      <point x="108" y="-186"/>
      <point x="65" y="-222" name="n17"/>
      <point x="26" y="-222" type="curve" smooth="yes"/>
      <point x="-1" y="-222"/>
      <point x="-28" y="-198"/>
      <point x="-28" y="-171" type="curve" smooth="yes" name="n21"/>
      <point x="-28" y="-124"/>
      <point x="-5" y="-115"/>
      <point x="11" y="-76" type="curve" smooth="yes"/>
      <point x="30" y="-31"/>
      <point x="41" y="18"/>
      <point x="50" y="66" type="curve" smooth="yes"/>
      <point x="134" y="488" type="line" name="n28"/>
      <point x="259" y="488" type="line"/>
      <point x="195" y="163" type="line" smooth="yes"/>
      <point x="192" y="149"/>
      <point x="190" y="134"/>
      <point x="190" y="119" type="curve" smooth="yes" name="n33"/>
      <point x="190" y="97"/>
      <point x="203" y="61"/>
      <point x="230" y="61" type="curve" smooth="yes" name="n36"/>
      <point x="272" y="61"/>
      <point x="307" y="99"/>
      <point x="336" y="125" type="curve"/>
      <point x="408" y="488" type="line"/>
      <point x="535" y="488" type="line"/>
      <point x="460" y="108" type="line"/>
      <point x="458" y="96"/>
      <point x="453" y="55" name="hr01"/>
      <point x="471" y="55" type="curve" smooth="yes" name="n45"/>
      <point x="501" y="55"/>
      <point x="516" y="96"/>
      <point x="525" y="118" type="curve"/>
    </contour>
  </outline>
</glyph>
<glyph name="cedilla" format="2">
  <advance width="246"/>
  <unicode hex="00B8"/>
  <outline>
    <contour>
      <point x="170" y="-113" type="curve" smooth="yes" name="n00"/>
      <point x="170" y="-191"/>
      <point x="95" y="-231"/>
      <point x="25" y="-231" type="curve" smooth="yes" name="n03"/>
      <point x="-16" y="-231"/>
      <point x="-54" y="-220"/>
      <point x="-54" y="-220" type="curve"/>
      <point x="-44" y="-170" type="line"/>
      <point x="-44" y="-170"/>
      <point x="-7" y="-178"/>
      <point x="18" y="-178" type="curve" smooth="yes" name="n10"/>
      <point x="44" y="-178"/>
      <point x="83" y="-171"/>
      <point x="83" y="-137" type="curve" smooth="yes" name="n13"/>
      <point x="83" y="-118"/>
      <point x="66" y="-110"/>
      <point x="46" y="-110" type="curve" smooth="yes"/>
      <point x="39" y="-110"/>
      <point x="23" y="-112"/>
      <point x="23" y="-112" type="curve"/>
      <point x="50" y="24" type="line" name="n20"/>
      <point x="101" y="24" type="line"/>
      <point x="85" y="-54" type="line"/>
      <point x="85" y="-54"/>
      <point x="89" y="-55" name="hr01"/>
      <point x="99" y="-55" type="curve" smooth="yes" name="n25"/>
      <point x="139" y="-55"/>
      <point x="170" y="-73"/>
    </contour>
  </outline>
</glyph>
<glyph name="ordmasculine" format="2">
  <advance width="358"/>
  <unicode hex="00BA"/>
  <outline>
    <contour>
      <point x="391" y="565" type="curve" smooth="yes" name="n00"/>
      <point x="391" y="471"/>
      <point x="320" y="376"/>
      <point x="202" y="376" type="curve" smooth="yes" name="n03"/>
      <point x="112" y="376"/>
      <point x="72" y="425"/>
      <point x="72" y="491" type="curve" smooth="yes" name="n06"/>
      <point x="72" y="585"/>
      <point x="139" y="683"/>
      <point x="259" y="683" type="curve" smooth="yes" name="n09"/>
      <point x="339" y="683"/>
      <point x="391" y="643"/>
    </contour>
    <contour>
      <point x="335" y="347" type="line" name="n12"/>
      <point x="326" y="298" type="line" name="n13"/>
      <point x="31" y="298" type="line"/>
      <point x="41" y="347" type="line"/>
    </contour>
    <contour>
      <point x="297" y="567" type="curve" smooth="yes" name="n16"/>
      <point x="297" y="626"/>
      <point x="268" y="651"/>
      <point x="251" y="651" type="curve" smooth="yes" name="n19"/>
      <point x="212" y="651"/>
      <point x="165" y="575"/>
      <point x="165" y="494" type="curve" smooth="yes" name="n22"/>
      <point x="165" y="432"/>
      <point x="194" y="409"/>
      <point x="209" y="409" type="curve" smooth="yes" name="n25"/>
      <point x="255" y="409"/>
      <point x="297" y="493"/>
    </contour>
  </outline>
</glyph>
<glyph name="guillemotright" format="2">
  <advance width="413"/>
  <unicode hex="00BB"/>
  <outline>
    <contour>
      <point x="291" y="482" type="line" name="n00"/>
      <point x="396" y="267" type="line"/>
      <point x="385" y="216" type="line"/>
      <point x="193" y="0" type="line" name="n03"/>
      <point x="126" y="0" type="line"/>
      <point x="289" y="241" type="line"/>
      <point x="224" y="482" type="line"/>
    </contour>
    <contour>
      <point x="120" y="482" type="line"/>
      <point x="225" y="267" type="line"/>
      <point x="215" y="216" type="line"/>
      <point x="22" y="0" type="line"/>
      <point x="-45" y="0" type="line"/>
      <point x="119" y="241" type="line"/>
      <point x="53" y="482" type="line"/>
    </contour>
  </outline>
</glyph>
<glyph name="questiondown" format="2">
  <advance width="521"/>
  <unicode hex="00BF"/>
  <outline>
    <contour>
      <point x="424" y="416" type="curve" smooth="yes" name="n00"/>
      <point x="424" y="372"/>
      <point x="384" y="339"/>
      <point x="341" y="339" type="curve" smooth="yes" name="n03"/>
      <point x="298" y="339"/>
      <point x="266" y="378"/>
      <point x="266" y="420" type="curve" smooth="yes" name="n06"/>
      <point x="266" y="463"/>
      <point x="299" y="500"/>
      <point x="342" y="500" type="curve" smooth="yes" name="n09"/>
      <point x="389" y="500"/>
      <point x="424" y="462"/>
    </contour>
    <contour>
      <point x="414" y="-64" type="curve" smooth="yes"/>
      <point x="414" y="-163"/>
      <point x="280" y="-199"/>
      <point x="202" y="-199" type="curve" smooth="yes" name="n15"/>
      <point x="107" y="-199"/>
      <point x="9" y="-154"/>
      <point x="9" y="-46" type="curve" smooth="yes" name="n18"/>
      <point x="9" y="91"/>
      <point x="151" y="181"/>
      <point x="272" y="205" type="curve"/>
      <point x="289" y="290" type="line"/>
      <point x="357" y="290" type="line"/>
      <point x="330" y="157" type="line"/>
      <point x="237" y="138"/>
      <point x="149" y="57"/>
      <point x="149" y="-43" type="curve" smooth="yes" name="n27"/>
      <point x="149" y="-110"/>
      <point x="197" y="-138"/>
      <point x="258" y="-138" type="curve" name="n30"/>
      <point x="272" y="-115"/>
      <point x="329" y="-16"/>
      <point x="329" y="-16" type="curve" name="n33"/>
      <point x="358" y="-16" type="line" smooth="yes"/>
      <point x="386" y="-16"/>
      <point x="414" y="-33"/>
    </contour>
  </outline>
</glyph>
<glyph name="Oslash" format="2">
  <advance width="751"/>
  <unicode hex="00D8"/>
  <outline>
    <contour>
      <point x="733" y="417" type="curve" smooth="yes" name="n00"/>
      <point x="733" y="212"/>
      <point x="603" y="-16"/>
      <point x="341" y="-16" type="curve" smooth="yes" name="n03"/>
      <point x="292" y="-16"/>
      <point x="248" y="-8"/>
      <point x="210" y="7" type="curve"/>
      <point x="142" y="-96" type="line"/>
      <point x="70" y="-44" type="line"/>
      <point x="134" y="54" type="line"/>
      <point x="78" y="104"/>
      <point x="48" y="177"/>
      <point x="48" y="263" type="curve" smooth="yes" name="n12"/>
      <point x="48" y="471"/>
      <point x="194" y="687"/>
      <point x="441" y="687" type="curve" smooth="yes" name="n15"/>
      <point x="478" y="687"/>
      <point x="511" y="682"/>
      <point x="541" y="674" type="curve"/>
      <point x="600" y="763" type="line"/>
      <point x="680" y="713" type="line"/>
      <point x="627" y="633" type="line"/>
      <point x="698" y="583"/>
      <point x="733" y="502"/>
    </contour>
    <contour>
      <point x="496" y="605" type="line"/>
      <point x="476" y="620"/>
      <point x="454" y="627"/>
      <point x="432" y="627" type="curve" smooth="yes" name="n27"/>
      <point x="313" y="627"/>
      <point x="203" y="435"/>
      <point x="203" y="255" type="curve" smooth="yes" name="n30"/>
      <point x="203" y="225"/>
      <point x="207" y="198"/>
      <point x="213" y="174" type="curve"/>
    </contour>
    <contour>
      <point x="577" y="417" type="curve" smooth="yes" name="n34"/>
      <point x="577" y="460"/>
      <point x="570" y="497"/>
      <point x="557" y="527" type="curve"/>
      <point x="263" y="85" type="line"/>
      <point x="289" y="59"/>
      <point x="320" y="46"/>
      <point x="348" y="46" type="curve" smooth="yes" name="n41"/>
      <point x="466" y="46"/>
      <point x="577" y="243"/>
    </contour>
  </outline>
</glyph>
<glyph name="oslash" format="2">
  <advance width="553"/>
  <unicode hex="00F8"/>
  <outline>
    <contour>
      <point x="522" y="303" type="curve" smooth="yes" name="n00"/>
      <point x="522" y="146"/>
      <point x="414" y="-12"/>
      <point x="232" y="-12" type="curve" smooth="yes" name="n03"/>
      <point x="204" y="-12"/>
      <point x="179" y="-8"/>
      <point x="157" y="-2" type="curve"/>
      <point x="98" y="-94" type="line"/>
      <point x="47" y="-60" type="line"/>
      <point x="101" y="25" type="line"/>
      <point x="54" y="60"/>
      <point x="32" y="115"/>
      <point x="32" y="181" type="curve" smooth="yes" name="n12"/>
      <point x="32" y="338"/>
      <point x="135" y="500"/>
      <point x="320" y="500" type="curve" smooth="yes" name="n15"/>
      <point x="348" y="500"/>
      <point x="373" y="496"/>
      <point x="396" y="490" type="curve"/>
      <point x="442" y="563" type="line"/>
      <point x="498" y="531" type="line"/>
      <point x="454" y="462" type="line"/>
      <point x="498" y="430"/>
      <point x="522" y="377"/>
    </contour>
    <contour>
      <point x="350" y="418" type="line"/>
      <point x="336" y="438"/>
      <point x="321" y="447"/>
      <point x="309" y="447" type="curve" smooth="yes" name="n27"/>
      <point x="248" y="447"/>
      <point x="175" y="320"/>
      <point x="175" y="185" type="curve" smooth="yes" name="n30"/>
      <point x="175" y="171"/>
      <point x="176" y="158"/>
      <point x="178" y="146" type="curve"/>
    </contour>
    <contour>
      <point x="378" y="307" type="curve" smooth="yes" name="n34"/>
      <point x="378" y="319"/>
      <point x="378" y="331"/>
      <point x="376" y="341" type="curve"/>
      <point x="204" y="72" type="line"/>
      <point x="217" y="52"/>
      <point x="233" y="43"/>
      <point x="244" y="43" type="curve" smooth="yes" name="n41"/>
      <point x="314" y="43"/>
      <point x="378" y="184"/>
    </contour>
  </outline>
</glyph>
<glyph name="ydieresis" format="2">
  <advance width="542"/>
  <unicode hex="00FF"/>
  <outline>
    <contour>
      <point x="572" y="444" type="line"/>
      <point x="520" y="412" type="line"/>
      <point x="504" y="397"/>
      <point x="456" y="322"/>
      <point x="438" y="281" type="curve" smooth="yes"/>
      <point x="409" y="217"/>
      <point x="358" y="94"/>
      <point x="295" y="-14" type="curve" smooth="yes"/>
      <point x="228" y="-130"/>
      <point x="145" y="-229"/>
      <point x="24" y="-229" type="curve" smooth="yes" name="n10"/>
      <point x="-57" y="-229"/>
      <point x="-81" y="-181"/>
      <point x="-81" y="-153" type="curve" smooth="yes"/>
      <point x="-81" y="-120"/>
      <point x="-62" y="-72"/>
      <point x="0" y="-70" type="curve" name="n16"/>
      <point x="43" y="-146" type="line"/>
      <point x="88" y="-136"/>
      <point x="138" y="-81"/>
      <point x="194" y="21" type="curve"/>
      <point x="191" y="37"/>
      <point x="173" y="135"/>
      <point x="152" y="230" type="curve" smooth="yes"/>
      <point x="132" y="322"/>
      <point x="118" y="424"/>
      <point x="109" y="424" type="curve"/>
      <point x="3" y="432" type="line"/>
      <point x="3" y="463" type="line"/>
      <point x="26" y="471"/>
      <point x="124" y="500" name="n30"/>
      <point x="145" y="500" type="curve" smooth="yes"/>
      <point x="190" y="500"/>
      <point x="217" y="496"/>
      <point x="245" y="402" type="curve" smooth="yes"/>
      <point x="259" y="356"/>
      <point x="276" y="276"/>
      <point x="292" y="198" type="curve"/>
      <point x="429" y="500" type="line"/>
      <point x="477" y="500" type="line"/>
      <point x="572" y="470" type="line"/>
    </contour>
    <contour>
      <point x="522" y="654" type="curve" smooth="yes" name="n41"/>
      <point x="522" y="616"/>
      <point x="492" y="585"/>
      <point x="454" y="585" type="curve" smooth="yes" name="n44"/>
      <point x="416" y="585"/>
      <point x="386" y="616"/>
      <point x="386" y="654" type="curve" smooth="yes" name="n47"/>
      <point x="386" y="692"/>
      <point x="416" y="723"/>
      <point x="454" y="723" type="curve" smooth="yes" name="n50"/>
      <point x="492" y="723"/>
      <point x="522" y="692"/>
    </contour>
    <contour>
      <point x="312" y="654" type="curve" smooth="yes" name="n53"/>
      <point x="312" y="616"/>
      <point x="282" y="585"/>
      <point x="244" y="585" type="curve" smooth="yes"/>
      <point x="206" y="585"/>
      <point x="175" y="616"/>
      <point x="175" y="654" type="curve" smooth="yes" name="n59"/>
      <point x="175" y="692"/>
      <point x="206" y="723"/>
      <point x="244" y="723" type="curve" smooth="yes"/>
      <point x="282" y="723"/>
      <point x="312" y="692"/>
    </contour>
  </outline>
</glyph>
<glyph name="dotlessi" format="2">
  <advance width="310"/>
  <unicode hex="0131"/>
  <anchor x="190" y="570" name="top"/>
  <outline>
    <contour>
      <point x="308" y="32" type="line"/>
      <point x="248" y="0"/>
      <point x="197" y="-12"/>
      <point x="139" y="-12" type="curve" smooth="yes" name="n03"/>
      <point x="75.9324" y="-12"/>
      <point x="47.9452" y="28.3051"/>
      <point x="47.9452" y="69.322" type="curve" smooth="yes"/>
      <point x="47.9452" y="77.5735"/>
      <point x="49.0779" y="86.1407"/>
      <point x="50" y="91" type="curve" smooth="yes"/>
      <point x="113" y="423" type="line"/>
      <point x="27" y="432" type="line"/>
      <point x="27" y="467" type="line"/>
      <point x="192" y="500" type="line" name="n13"/>
      <point x="262" y="500" type="line"/>
      <point x="185" y="99" type="line" smooth="yes"/>
      <point x="183.305" y="90.8626"/>
      <point x="182.184" y="82.9552"/>
      <point x="182.203" y="76.0572" type="curve" smooth="yes"/>
      <point x="182.238" y="62.6106"/>
      <point x="186.601" y="53"/>
      <point x="199.469" y="53" type="curve" smooth="yes" name="n21"/>
      <point x="215" y="53"/>
      <point x="271" y="67"/>
      <point x="308" y="87" type="curve"/>
    </contour>
  </outline>
</glyph>
<glyph name="ij" format="2">
  <advance width="627"/>
  <unicode hex="0133"/>
  <outline>
    <contour>
      <point x="295" y="663" type="curve" smooth="yes" name="n00"/>
      <point x="295" y="620"/>
      <point x="260" y="585"/>
      <point x="217" y="585" type="curve" smooth="yes"/>
      <point x="174" y="585"/>
      <point x="140" y="620"/>
      <point x="140" y="663" type="curve" smooth="yes" name="n06"/>
      <point x="140" y="706"/>
      <point x="174" y="740"/>
      <point x="217" y="740" type="curve" smooth="yes"/>
      <point x="260" y="740"/>
      <point x="295" y="706"/>
    </contour>
    <contour>
      <point x="308" y="32" type="line"/>
      <point x="248" y="0"/>
      <point x="197" y="-12"/>
      <point x="139" y="-12" type="curve" smooth="yes" name="n15"/>
      <point x="66" y="-12"/>
      <point x="40" y="42"/>
      <point x="50" y="91" type="curve"/>
      <point x="113" y="423" type="line"/>
      <point x="27" y="432" type="line"/>
      <point x="27" y="467" type="line"/>
      <point x="192" y="500" type="line" name="n22"/>
      <point x="262" y="500" type="line"/>
      <point x="185" y="99" type="line" smooth="yes"/>
      <point x="180" y="75"/>
      <point x="180" y="53"/>
      <point x="204" y="53" type="curve" smooth="yes" name="n27"/>
      <point x="215" y="53"/>
      <point x="271" y="67"/>
      <point x="308" y="87" type="curve"/>
    </contour>
    <contour>
      <point x="621" y="663" type="curve" smooth="yes" name="n31"/>
      <point x="621" y="620"/>
      <point x="585" y="585"/>
      <point x="542" y="585" type="curve" smooth="yes" name="n34"/>
      <point x="499" y="585"/>
      <point x="465" y="620"/>
      <point x="465" y="663" type="curve" smooth="yes" name="n37"/>
      <point x="465" y="706"/>
      <point x="499" y="740"/>
      <point x="542" y="740" type="curve" smooth="yes" name="n40"/>
      <point x="585" y="740"/>
      <point x="621" y="706"/>
    </contour>
    <contour>
      <point x="585" y="500" type="line"/>
      <point x="514" y="84" type="line"/>
      <point x="496" y="-17"/>
      <point x="406" y="-229" name="n46"/>
      <point x="268" y="-229" type="curve" smooth="yes"/>
      <point x="221" y="-229"/>
      <point x="181" y="-204"/>
      <point x="181" y="-171" type="curve" smooth="yes"/>
      <point x="181" y="-146"/>
      <point x="199" y="-132"/>
      <point x="222" y="-117" type="curve"/>
      <point x="317" y="-142" type="line"/>
      <point x="335" y="-114"/>
      <point x="356" y="-55"/>
      <point x="365" y="-6" type="curve" smooth="yes"/>
      <point x="439" y="422" type="line"/>
      <point x="353" y="431" type="line"/>
      <point x="353" y="467" type="line"/>
      <point x="519" y="500" type="line"/>
    </contour>
  </outline>
</glyph>
<glyph name="lacute" format="2">
  <advance width="306"/>
  <unicode hex="013A"/>
  <outline>
    <contour>
      <point x="304" y="29" type="line"/>
      <point x="256" y="4"/>
      <point x="196" y="-12"/>
      <point x="144" y="-12" type="curve" smooth="yes" name="n03"/>
      <point x="78" y="-12"/>
      <point x="39" y="18"/>
      <point x="39" y="64" type="curve" smooth="yes"/>
      <point x="39" y="75"/>
      <point x="40" y="87"/>
      <point x="43" y="100" type="curve"/>
      <point x="152" y="661" type="line"/>
      <point x="64" y="669" type="line"/>
      <point x="64" y="705" type="line"/>
      <point x="233" y="737" type="line"/>
      <point x="299" y="737" type="line"/>
      <point x="176" y="102" type="line" smooth="yes"/>
      <point x="172" y="79"/>
      <point x="177" y="53"/>
      <point x="202" y="53" type="curve" smooth="yes" name="n18"/>
      <point x="218" y="53"/>
      <point x="257" y="62"/>
      <point x="304" y="83" type="curve"/>
    </contour>
    <contour>
      <point x="432" y="916" type="curve" smooth="yes"/>
      <point x="432" y="903"/>
      <point x="420" y="882"/>
      <point x="405" y="874" type="curve" smooth="yes"/>
      <point x="245" y="785" type="line"/>
      <point x="174" y="785" type="line"/>
      <point x="312" y="937" type="line" smooth="yes"/>
      <point x="334" y="962"/>
      <point x="348" y="968" name="n30"/>
      <point x="375" y="968" type="curve" smooth="yes"/>
      <point x="418" y="968"/>
      <point x="432" y="940"/>
    </contour>
  </outline>
</glyph>
<glyph name="Lcedilla" format="2">
  <advance width="560"/>
  <unicode hex="013B"/>
  <outline>
    <contour>
      <point x="528" y="202" type="line"/>
      <point x="488" y="0" type="line" name="n01"/>
      <point x="-15" y="0" type="line"/>
      <point x="-15" y="50" type="line"/>
      <point x="12" y="53"/>
      <point x="42" y="54"/>
      <point x="42" y="54" type="curve"/>
      <point x="61" y="56"/>
      <point x="65" y="58"/>
      <point x="67" y="71" type="curve"/>
      <point x="171" y="601" type="line"/>
      <point x="174" y="612"/>
      <point x="166" y="615"/>
      <point x="155" y="616" type="curve"/>
      <point x="155" y="616"/>
      <point x="125" y="618"/>
      <point x="96" y="621" type="curve"/>
      <point x="96" y="671" type="line" name="n17"/>
      <point x="398" y="671" type="line"/>
      <point x="398" y="621" type="line"/>
      <point x="365" y="618"/>
      <point x="333" y="616"/>
      <point x="333" y="616" type="curve"/>
      <point x="324" y="615"/>
      <point x="317" y="612"/>
      <point x="314" y="600" type="curve"/>
      <point x="208" y="60" type="line" name="hr01"/>
      <point x="384" y="60" type="line" smooth="yes" name="n27"/>
      <point x="394" y="60"/>
      <point x="409" y="66"/>
      <point x="412" y="74" type="curve"/>
      <point x="453" y="202" type="line" name="n31"/>
    </contour>
    <contour>
      <point x="278" y="-128" type="curve" smooth="yes" name="n32"/>
      <point x="278" y="-212"/>
      <point x="179" y="-264"/>
      <point x="108" y="-277" type="curve"/>
      <point x="116" y="-237" type="line"/>
      <point x="150" y="-228"/>
      <point x="194" y="-200"/>
      <point x="202" y="-163" type="curve" name="n39"/>
      <point x="139" y="-163" type="line"/>
      <point x="130" y="-154"/>
      <point x="126" y="-143"/>
      <point x="126" y="-131" type="curve" smooth="yes" name="n43"/>
      <point x="126" y="-87"/>
      <point x="166" y="-61"/>
      <point x="206" y="-61" type="curve" smooth="yes" name="n46"/>
      <point x="247" y="-61"/>
      <point x="278" y="-86"/>
    </contour>
  </outline>
</glyph>
<glyph name="ldot" format="2">
  <advance width="439"/>
  <unicode hex="0140"/>
  <outline>
    <contour>
      <point x="304" y="29" type="line"/>
      <point x="256" y="4"/>
      <point x="196" y="-12"/>
      <point x="144" y="-12" type="curve" smooth="yes" name="n03"/>
      <point x="78" y="-12"/>
      <point x="39" y="18"/>
      <point x="39" y="64" type="curve" smooth="yes"/>
      <point x="39" y="75"/>
      <point x="40" y="87"/>
      <point x="43" y="100" type="curve"/>
      <point x="152" y="661" type="line"/>
      <point x="64" y="669" type="line"/>
      <point x="64" y="705" type="line"/>
      <point x="233" y="737" type="line" name="n13"/>
      <point x="299" y="737" type="line"/>
      <point x="176" y="102" type="line" smooth="yes"/>
      <point x="172" y="79"/>
      <point x="177" y="53"/>
      <point x="202" y="53" type="curve" smooth="yes" name="n18"/>
      <point x="218" y="53"/>
      <point x="257" y="62"/>
      <point x="304" y="83" type="curve"/>
    </contour>
    <contour>
      <point x="435" y="340" type="curve" smooth="yes" name="n22"/>
      <point x="435" y="307"/>
      <point x="409" y="281"/>
      <point x="376" y="281" type="curve" smooth="yes" name="n25"/>
      <point x="343" y="281"/>
      <point x="317" y="307"/>
      <point x="317" y="340" type="curve" smooth="yes" name="n28"/>
      <point x="317" y="373"/>
      <point x="343" y="399"/>
      <point x="376" y="399" type="curve" smooth="yes" name="n31"/>
      <point x="409" y="399"/>
      <point x="435" y="373"/>
    </contour>
  </outline>
</glyph>
<glyph name="nacute" format="2">
  <advance width="578"/>
  <unicode hex="0144"/>
  <outline>
    <contour>
      <point x="574" y="23" type="line"/>
      <point x="539" y="6"/>
      <point x="464" y="-12" name="n02"/>
      <point x="418" y="-12" type="curve" smooth="yes"/>
      <point x="374" y="-12"/>
      <point x="306" y="-2"/>
      <point x="317" y="51" type="curve" smooth="yes"/>
      <point x="378" y="356" type="line" smooth="yes"/>
      <point x="388" y="405"/>
      <point x="375" y="421"/>
      <point x="354" y="421" type="curve" smooth="yes" name="n10"/>
      <point x="323" y="421"/>
      <point x="270" y="382"/>
      <point x="228" y="339" type="curve"/>
      <point x="157" y="0" type="line" name="n14"/>
      <point x="24" y="0" type="line"/>
      <point x="112" y="425" type="line"/>
      <point x="28" y="433" type="line"/>
      <point x="28" y="467" type="line"/>
      <point x="192" y="500" type="line"/>
      <point x="261" y="500" type="line"/>
      <point x="249" y="442" type="line"/>
      <point x="298" y="475"/>
      <point x="358" y="500"/>
      <point x="410" y="500" type="curve" smooth="yes" name="n24"/>
      <point x="510" y="500"/>
      <point x="535" y="454"/>
      <point x="519" y="369" type="curve" smooth="yes"/>
      <point x="465" y="88" type="line" smooth="yes"/>
      <point x="459" y="55"/>
      <point x="479" y="49"/>
      <point x="489" y="49" type="curve" smooth="yes"/>
      <point x="510" y="49"/>
      <point x="542" y="58"/>
      <point x="572" y="71" type="curve"/>
    </contour>
    <contour>
      <point x="516" y="681" type="curve" smooth="yes"/>
      <point x="516" y="668"/>
      <point x="504" y="647"/>
      <point x="489" y="639" type="curve" smooth="yes"/>
      <point x="329" y="551" type="line"/>
      <point x="258" y="551" type="line"/>
      <point x="396" y="702" type="line" smooth="yes"/>
      <point x="418" y="727"/>
      <point x="431" y="734" name="n43"/>
      <point x="458" y="734" type="curve" smooth="yes"/>
      <point x="501" y="734"/>
      <point x="516" y="705"/>
    </contour>
  </outline>
</glyph>
<glyph name="ncedilla" format="2">
  <advance width="578"/>
  <unicode hex="0146"/>
  <outline>
    <contour>
      <point x="574" y="23" type="line"/>
      <point x="539" y="6"/>
      <point x="464" y="-12" name="n02"/>
      <point x="418" y="-12" type="curve" smooth="yes"/>
      <point x="374" y="-12"/>
      <point x="306" y="-2"/>
      <point x="317" y="51" type="curve" smooth="yes"/>
      <point x="378" y="356" type="line" smooth="yes"/>
      <point x="388" y="405"/>
      <point x="375" y="421"/>
      <point x="354" y="421" type="curve" smooth="yes" name="n10"/>
      <point x="323" y="421"/>
      <point x="270" y="382"/>
      <point x="228" y="339" type="curve"/>
      <point x="157" y="0" type="line" name="n14"/>
      <point x="24" y="0" type="line"/>
      <point x="112" y="425" type="line"/>
      <point x="28" y="433" type="line"/>
      <point x="28" y="467" type="line"/>
      <point x="192" y="500" type="line"/>
      <point x="261" y="500" type="line"/>
      <point x="249" y="442" type="line"/>
      <point x="298" y="475"/>
      <point x="358" y="500"/>
      <point x="410" y="500" type="curve" smooth="yes" name="n24"/>
      <point x="510" y="500"/>
      <point x="535" y="454"/>
      <point x="519" y="369" type="curve" smooth="yes"/>
      <point x="465" y="88" type="line" smooth="yes"/>
      <point x="459" y="55"/>
      <point x="479" y="49"/>
      <point x="489" y="49" type="curve" smooth="yes"/>
      <point x="510" y="49"/>
      <point x="542" y="58"/>
      <point x="572" y="71" type="curve"/>
    </contour>
    <contour>
      <point x="281" y="-128" type="curve" smooth="yes" name="n35"/>
      <point x="281" y="-212"/>
      <point x="182" y="-264"/>
      <point x="111" y="-277" type="curve"/>
      <point x="119" y="-237" type="line"/>
      <point x="153" y="-228"/>
      <point x="197" y="-200"/>
      <point x="205" y="-163" type="curve" name="n42"/>
      <point x="142" y="-163" type="line"/>
      <point x="133" y="-154"/>
      <point x="129" y="-143"/>
      <point x="129" y="-131" type="curve" smooth="yes" name="n46"/>
      <point x="129" y="-87"/>
      <point x="169" y="-61"/>
      <point x="209" y="-61" type="curve" smooth="yes" name="n49"/>
      <point x="250" y="-61"/>
      <point x="281" y="-86"/>
    </contour>
  </outline>
</glyph>
<glyph name="Eng" format="2">
  <advance width="767"/>
  <unicode hex="014A"/>
  <outline>
    <contour>
      <point x="731" y="510" type="curve" smooth="yes"/>
      <point x="731" y="499"/>
      <point x="730" y="487"/>
      <point x="728" y="476" type="curve" smooth="yes"/>
      <point x="634" y="-21" type="line" smooth="yes"/>
      <point x="610" y="-149"/>
      <point x="549" y="-229" name="n06"/>
      <point x="379" y="-229" type="curve" smooth="yes"/>
      <point x="317" y="-229"/>
      <point x="281" y="-196"/>
      <point x="281" y="-160" type="curve" smooth="yes"/>
      <point x="281" y="-124"/>
      <point x="315" y="-80"/>
      <point x="362" y="-80" type="curve"/>
      <point x="420" y="-158" type="line"/>
      <point x="460" y="-155"/>
      <point x="471" y="-129"/>
      <point x="487" y="-42" type="curve" smooth="yes"/>
      <point x="584" y="476" type="line" smooth="yes"/>
      <point x="600" y="558"/>
      <point x="529" y="604"/>
      <point x="480" y="604" type="curve" smooth="yes" name="n21"/>
      <point x="406" y="604"/>
      <point x="326" y="522"/>
      <point x="286" y="456" type="curve"/>
      <point x="211" y="76" type="line"/>
      <point x="209" y="63"/>
      <point x="215" y="56"/>
      <point x="229" y="55" type="curve"/>
      <point x="229" y="55"/>
      <point x="250" y="52"/>
      <point x="278" y="50" type="curve"/>
      <point x="278" y="0" type="line" name="n32"/>
      <point x="-15" y="0" type="line"/>
      <point x="-15" y="50" type="line"/>
      <point x="13" y="52"/>
      <point x="43" y="54"/>
      <point x="43" y="54" type="curve"/>
      <point x="62" y="56"/>
      <point x="66" y="63"/>
      <point x="68" y="76" type="curve"/>
      <point x="169" y="591" type="line" smooth="yes"/>
      <point x="172" y="608"/>
      <point x="170" y="615"/>
      <point x="152" y="617" type="curve"/>
      <point x="152" y="617"/>
      <point x="122" y="619"/>
      <point x="95" y="621" type="curve"/>
      <point x="95" y="671" type="line" name="n48"/>
      <point x="328" y="671" type="line"/>
      <point x="314" y="603" type="line"/>
      <point x="370" y="653"/>
      <point x="439" y="687" name="hr02"/>
      <point x="524" y="687" type="curve" smooth="yes" name="n53"/>
      <point x="640" y="687"/>
      <point x="731" y="610"/>
    </contour>
  </outline>
</glyph>
<glyph name="OE" format="2">
  <advance width="1046"/>
  <unicode hex="0152"/>
  <outline>
    <contour>
      <point x="1080" y="671" type="line" name="n00"/>
      <point x="1048" y="513" type="line" name="n01"/>
      <point x="968" y="513" type="line"/>
      <point x="968" y="598" type="line" smooth="yes"/>
      <point x="968" y="608"/>
      <point x="956" y="612" name="hr01"/>
      <point x="945" y="612" type="curve" smooth="yes"/>
      <point x="765" y="612" type="line" name="n07"/>
      <point x="719" y="379" type="line" name="n08"/>
      <point x="832" y="379" type="line" smooth="yes" name="n09"/>
      <point x="842" y="379"/>
      <point x="857" y="384"/>
      <point x="859" y="394" type="curve"/>
      <point x="880" y="464" type="line"/>
      <point x="954" y="464" type="line"/>
      <point x="907" y="229" type="line"/>
      <point x="833" y="229" type="line" name="n16"/>
      <point x="844" y="304" type="line" smooth="yes"/>
      <point x="845" y="312"/>
      <point x="831" y="318" name="hr02"/>
      <point x="821" y="318" type="curve" smooth="yes"/>
      <point x="708" y="318" type="line" name="n21"/>
      <point x="656" y="60" type="line"/>
      <point x="870" y="60" type="line" smooth="yes" name="n23"/>
      <point x="879" y="60"/>
      <point x="895" y="66"/>
      <point x="897" y="74" type="curve"/>
      <point x="930" y="174" type="line" name="n27"/>
      <point x="1008" y="174" type="line"/>
      <point x="974" y="0" type="line" name="n29"/>
      <point x="503" y="0" type="line"/>
      <point x="515" y="51" type="line"/>
      <point x="464" y="9"/>
      <point x="408" y="-16" name="hr04"/>
      <point x="341" y="-16" type="curve" smooth="yes" name="n34"/>
      <point x="164" y="-16"/>
      <point x="48" y="94"/>
      <point x="48" y="264" type="curve" smooth="yes" name="n37"/>
      <point x="48" y="463"/>
      <point x="191" y="687"/>
      <point x="440" y="687" type="curve" smooth="yes" name="n40"/>
      <point x="531" y="687"/>
      <point x="587" y="659"/>
      <point x="625" y="621" type="curve"/>
      <point x="634" y="671" type="line" name="n44"/>
    </contour>
    <contour>
      <point x="577" y="417" type="curve" smooth="yes"/>
      <point x="577" y="573"/>
      <point x="487" y="627" name="hr06"/>
      <point x="431" y="627" type="curve" smooth="yes" name="n48"/>
      <point x="317" y="627"/>
      <point x="203" y="436"/>
      <point x="203" y="254" type="curve" smooth="yes" name="n51"/>
      <point x="203" y="108"/>
      <point x="287" y="46"/>
      <point x="348" y="46" type="curve" smooth="yes" name="n54"/>
      <point x="465" y="46"/>
      <point x="577" y="237"/>
    </contour>
  </outline>
</glyph>
<glyph name="Rcedilla" format="2">
  <advance width="683"/>
  <unicode hex="0156"/>
  <outline>
    <contour>
      <point x="657" y="3" type="line" name="n00"/>
      <point x="627" y="-10"/>
      <point x="599" y="-16" name="hr01"/>
      <point x="563" y="-16" type="curve" smooth="yes" name="n03"/>
      <point x="440" y="-16"/>
      <point x="411" y="42"/>
      <point x="389" y="147" type="curve" smooth="yes"/>
      <point x="376" y="205"/>
      <point x="362" y="292"/>
      <point x="286" y="292" type="curve" smooth="yes" name="n09"/>
      <point x="278" y="292"/>
      <point x="265" y="291"/>
      <point x="254" y="291" type="curve"/>
      <point x="212" y="70" type="line" smooth="yes"/>
      <point x="210" y="59"/>
      <point x="215" y="56"/>
      <point x="228" y="55" type="curve"/>
      <point x="228" y="55"/>
      <point x="259" y="52"/>
      <point x="289" y="50" type="curve"/>
      <point x="289" y="0" type="line"/>
      <point x="-13" y="0" type="line"/>
      <point x="-13" y="50" type="line"/>
      <point x="16" y="52"/>
      <point x="46" y="54"/>
      <point x="46" y="54" type="curve"/>
      <point x="58" y="55"/>
      <point x="66" y="58"/>
      <point x="69" y="71" type="curve"/>
      <point x="171" y="601" type="line"/>
      <point x="174" y="612"/>
      <point x="167" y="615"/>
      <point x="154" y="616" type="curve"/>
      <point x="154" y="616"/>
      <point x="124" y="618"/>
      <point x="96" y="621" type="curve"/>
      <point x="96" y="671" type="line"/>
      <point x="385" y="671" type="line" smooth="yes" name="n37"/>
      <point x="519" y="671"/>
      <point x="623" y="632"/>
      <point x="623" y="521" type="curve" smooth="yes" name="n40"/>
      <point x="623" y="416"/>
      <point x="536" y="350"/>
      <point x="423" y="317" type="curve"/>
      <point x="500" y="282"/>
      <point x="510" y="232"/>
      <point x="529" y="157" type="curve" smooth="yes"/>
      <point x="547" y="87"/>
      <point x="556" y="50"/>
      <point x="657" y="50" type="curve" name="n49"/>
    </contour>
    <contour>
      <point x="468" y="506" type="curve" smooth="yes" name="n50"/>
      <point x="468" y="603"/>
      <point x="372" y="615"/>
      <point x="341" y="613" type="curve" smooth="yes" name="n53"/>
      <point x="338.163" y="612.773"/>
      <point x="319.404" y="611.272"/>
      <point x="316" y="611" type="curve"/>
      <point x="267" y="352" type="line"/>
      <point x="275" y="352"/>
      <point x="292" y="353"/>
      <point x="292" y="353" type="curve" name="n60"/>
      <point x="368" y="356"/>
      <point x="468" y="392"/>
    </contour>
    <contour>
      <point x="310" y="-128" type="curve" smooth="yes" name="n63"/>
      <point x="310" y="-212"/>
      <point x="210" y="-264"/>
      <point x="139" y="-277" type="curve"/>
      <point x="147" y="-237" type="line"/>
      <point x="181" y="-228"/>
      <point x="225" y="-200"/>
      <point x="233" y="-163" type="curve" name="n70"/>
      <point x="170" y="-163" type="line"/>
      <point x="161" y="-154"/>
      <point x="157" y="-143"/>
      <point x="157" y="-131" type="curve" smooth="yes" name="n74"/>
      <point x="157" y="-87"/>
      <point x="197" y="-61"/>
      <point x="237" y="-61" type="curve" smooth="yes" name="n77"/>
      <point x="278" y="-61"/>
      <point x="310" y="-86"/>
    </contour>
  </outline>
</glyph>
<glyph name="rcedilla" format="2">
  <advance width="418"/>
  <unicode hex="0157"/>
  <outline>
    <contour>
      <point x="456" y="429" type="curve" smooth="yes"/>
      <point x="456" y="383"/>
      <point x="429" y="360"/>
      <point x="361" y="360" type="curve" name="n03"/>
      <point x="334" y="414" type="line"/>
      <point x="271" y="383"/>
      <point x="219" y="324"/>
      <point x="207" y="264" type="curve" smooth="yes"/>
      <point x="151" y="0" type="line" name="n08"/>
      <point x="18" y="0" type="line"/>
      <point x="106" y="423" type="line"/>
      <point x="22" y="432" type="line"/>
      <point x="22" y="467" type="line"/>
      <point x="188" y="500" type="line"/>
      <point x="257" y="500" type="line"/>
      <point x="244" y="433" type="line"/>
      <point x="280" y="470"/>
      <point x="330" y="500"/>
      <point x="380" y="500" type="curve" smooth="yes" name="n18"/>
      <point x="432" y="500"/>
      <point x="456" y="458"/>
    </contour>
    <contour>
      <point x="123" y="-128" type="curve" smooth="yes" name="n21"/>
      <point x="123" y="-212"/>
      <point x="24" y="-264"/>
      <point x="-47" y="-277" type="curve"/>
      <point x="-39" y="-237" type="line"/>
      <point x="-5" y="-228"/>
      <point x="39" y="-200"/>
      <point x="47" y="-163" type="curve" name="n28"/>
      <point x="-16" y="-163" type="line"/>
      <point x="-25" y="-154"/>
      <point x="-29" y="-143"/>
      <point x="-29" y="-131" type="curve" smooth="yes" name="n32"/>
      <point x="-29" y="-87"/>
      <point x="11" y="-61"/>
      <point x="51" y="-61" type="curve" smooth="yes" name="n35"/>
      <point x="92" y="-61"/>
      <point x="123" y="-86"/>
    </contour>
  </outline>
</glyph>
<glyph name="Tbar" format="2">
  <advance width="627"/>
  <unicode hex="0166"/>
  <outline>
    <contour>
      <point x="692" y="671" type="line"/>
      <point x="656" y="496" type="line"/>
      <point x="578" y="496" type="line"/>
      <point x="583" y="603" type="line"/>
      <point x="584" y="612"/>
      <point x="571" y="616" name="hr01"/>
      <point x="561" y="616" type="curve" smooth="yes"/>
      <point x="452" y="616" type="line"/>
      <point x="408" y="380" type="line"/>
      <point x="541" y="380" type="line" name="n09"/>
      <point x="541" y="320" type="line" name="n10"/>
      <point x="396" y="320" type="line"/>
      <point x="349" y="70" type="line" smooth="yes"/>
      <point x="347" y="58"/>
      <point x="356" y="56"/>
      <point x="368" y="55" type="curve" smooth="yes"/>
      <point x="426" y="50" type="line"/>
      <point x="426" y="0" type="line" name="n17"/>
      <point x="124" y="0" type="line"/>
      <point x="124" y="50" type="line"/>
      <point x="150" y="52"/>
      <point x="179" y="54"/>
      <point x="179" y="54" type="curve"/>
      <point x="193" y="55"/>
      <point x="204" y="58"/>
      <point x="206" y="71" type="curve"/>
      <point x="253" y="320" type="line"/>
      <point x="120" y="320" type="line"/>
      <point x="120" y="380" type="line"/>
      <point x="265" y="380" type="line"/>
      <point x="309" y="616" type="line"/>
      <point x="206" y="616" type="line" smooth="yes" name="n31"/>
      <point x="197" y="616"/>
      <point x="181" y="611"/>
      <point x="178" y="602" type="curve" smooth="yes"/>
      <point x="140" y="496" type="line" name="hr02"/>
      <point x="62" y="496" type="line" name="n36"/>
      <point x="96" y="671" type="line" name="n37"/>
    </contour>
  </outline>
</glyph>
<glyph name="longs" format="2">
  <advance width="361"/>
  <unicode hex="017F"/>
  <outline>
    <contour>
      <point x="482" y="670" type="curve" smooth="yes"/>
      <point x="482" y="640"/>
      <point x="467" y="610"/>
      <point x="396" y="600" type="curve"/>
      <point x="334" y="659" type="line"/>
      <point x="279" y="611"/>
      <point x="271" y="507"/>
      <point x="254" y="400" type="curve" smooth="yes"/>
      <point x="245" y="344"/>
      <point x="212" y="95"/>
      <point x="195" y="24" type="curve" smooth="yes"/>
      <point x="169" y="-82"/>
      <point x="78" y="-229" name="n12"/>
      <point x="-47" y="-229" type="curve" smooth="yes"/>
      <point x="-104" y="-229"/>
      <point x="-130" y="-183"/>
      <point x="-130" y="-159" type="curve" smooth="yes"/>
      <point x="-130" y="-133"/>
      <point x="-111" y="-104"/>
      <point x="-84" y="-85" type="curve"/>
      <point x="6" y="-142" type="line"/>
      <point x="37" y="-98"/>
      <point x="57" y="-21"/>
      <point x="73" y="64" type="curve" smooth="yes"/>
      <point x="90" y="156"/>
      <point x="97" y="271"/>
      <point x="132" y="466" type="curve" smooth="yes"/>
      <point x="150" y="566"/>
      <point x="208" y="737" name="n28"/>
      <point x="370" y="737" type="curve" smooth="yes"/>
      <point x="444" y="737"/>
      <point x="482" y="696"/>
    </contour>
  </outline>
</glyph>
<glyph name="uni0180" format="2">
  <advance width="532"/>
  <unicode hex="0180"/>
  <outline>
    <contour>
      <point x="501" y="311" type="curve" smooth="yes" name="n00"/>
      <point x="501" y="192"/>
      <point x="428" y="-12"/>
      <point x="199" y="-12" type="curve" smooth="yes" name="n03"/>
      <point x="127" y="-12"/>
      <point x="66" y="7"/>
      <point x="18" y="38" type="curve"/>
      <point x="111" y="534" type="line"/>
      <point x="36" y="534" type="line" name="n08"/>
      <point x="49" y="600" type="line" name="n09"/>
      <point x="124" y="600" type="line"/>
      <point x="135" y="661" type="line"/>
      <point x="47" y="669" type="line"/>
      <point x="47" y="705" type="line"/>
      <point x="216" y="737" type="line" name="n14"/>
      <point x="284" y="737" type="line"/>
      <point x="257" y="600" type="line"/>
      <point x="386" y="600" type="line"/>
      <point x="373" y="534" type="line"/>
      <point x="245" y="534" type="line"/>
      <point x="232" y="468" type="line"/>
      <point x="268" y="487"/>
      <point x="308" y="500"/>
      <point x="343" y="500" type="curve" smooth="yes" name="n23"/>
      <point x="450" y="500"/>
      <point x="501" y="395"/>
    </contour>
    <contour>
      <point x="362" y="307" type="curve" smooth="yes" name="n26"/>
      <point x="362" y="391"/>
      <point x="333" y="424"/>
      <point x="310" y="424" type="curve" smooth="yes" name="n29"/>
      <point x="282" y="424"/>
      <point x="245" y="404"/>
      <point x="215" y="378" type="curve"/>
      <point x="159" y="79" type="line"/>
      <point x="170" y="62"/>
      <point x="189" y="44"/>
      <point x="220" y="44" type="curve" smooth="yes" name="n36"/>
      <point x="286" y="44"/>
      <point x="362" y="183"/>
    </contour>
  </outline>
</glyph>
<glyph name="uni0183" format="2">
  <advance width="564"/>
  <unicode hex="0183"/>
  <outline>
    <contour>
      <point x="270" y="665" type="curve" smooth="yes"/>
      <point x="232" y="468" type="line" name="n01"/>
      <point x="268" y="487"/>
      <point x="308" y="500"/>
      <point x="343" y="500" type="curve" smooth="yes" name="n04"/>
      <point x="450" y="500"/>
      <point x="501" y="395"/>
      <point x="501" y="311" type="curve" smooth="yes"/>
      <point x="501" y="192"/>
      <point x="428" y="-12"/>
      <point x="199" y="-12" type="curve" smooth="yes"/>
      <point x="127" y="-12"/>
      <point x="66" y="7"/>
      <point x="18" y="38" type="curve" name="n13"/>
      <point x="149" y="737" type="line"/>
      <point x="225.23" y="737"/>
      <point x="489.099" y="737"/>
      <point x="534" y="737" type="curve"/>
      <point x="501" y="573" type="line" name="hr02"/>
      <point x="489.664" y="573"/>
      <point x="441.142" y="573"/>
      <point x="430" y="573" type="curve" name="n21"/>
      <point x="430.394" y="589.743"/>
      <point x="431.683" y="644.508"/>
      <point x="432" y="658" type="curve" name="n24"/>
      <point x="433" y="674"/>
      <point x="429" y="680" name="hr03"/>
      <point x="415" y="680" type="curve" smooth="yes" name="n27"/>
      <point x="393.924" y="680"/>
      <point x="308.985" y="680"/>
      <point x="288" y="680" type="curve" smooth="yes"/>
      <point x="278" y="680"/>
      <point x="271" y="671"/>
    </contour>
    <contour>
      <point x="362" y="307" type="curve" smooth="yes" name="n33"/>
      <point x="362" y="391"/>
      <point x="333" y="424"/>
      <point x="310" y="424" type="curve" smooth="yes" name="n36"/>
      <point x="282" y="424"/>
      <point x="245" y="404"/>
      <point x="215" y="378" type="curve"/>
      <point x="159" y="79" type="line"/>
      <point x="170" y="62"/>
      <point x="189" y="44"/>
      <point x="220" y="44" type="curve" smooth="yes" name="n43"/>
      <point x="286" y="44"/>
      <point x="362" y="183"/>
    </contour>
  </outline>
</glyph>
<glyph name="uni0186" format="2">
  <advance width="671"/>
  <unicode hex="0186"/>
  <outline>
    <contour>
      <point x="652" y="403" type="curve" smooth="yes" name="n00"/>
      <point x="652" y="197"/>
      <point x="494" y="-16"/>
      <point x="229" y="-16" type="curve" smooth="yes" name="n03"/>
      <point x="152" y="-16"/>
      <point x="93" y="1"/>
      <point x="14" y="26" type="curve"/>
      <point x="44" y="202" type="line"/>
      <point x="118" y="202" type="line"/>
      <point x="117" y="90" type="line"/>
      <point x="117" y="81"/>
      <point x="122" y="70"/>
      <point x="132" y="67" type="curve"/>
      <point x="143" y="61"/>
      <point x="194" y="45"/>
      <point x="225" y="45" type="curve" smooth="yes" name="n15"/>
      <point x="351" y="45"/>
      <point x="504" y="182"/>
      <point x="504" y="414" type="curve" smooth="yes" name="n18"/>
      <point x="504" y="566"/>
      <point x="406" y="626"/>
      <point x="320" y="626" type="curve" smooth="yes" name="n21"/>
      <point x="292" y="626"/>
      <point x="250" y="616"/>
      <point x="237" y="611" type="curve"/>
      <point x="227" y="610"/>
      <point x="222" y="602"/>
      <point x="219" y="595" type="curve"/>
      <point x="171" y="463" type="line"/>
      <point x="97" y="463" type="line"/>
      <point x="127" y="644" type="line"/>
      <point x="178" y="661"/>
      <point x="259" y="687"/>
      <point x="353" y="687" type="curve" smooth="yes" name="n33"/>
      <point x="579" y="687"/>
      <point x="652" y="538"/>
    </contour>
  </outline>
</glyph>
<glyph name="uni0187" format="2">
  <advance width="671"/>
  <unicode hex="0187"/>
  <outline>
    <contour>
      <point x="902" y="770" type="curve" smooth="yes"/>
      <point x="902" y="733"/>
      <point x="867" y="703"/>
      <point x="838" y="693" type="curve"/>
      <point x="752" y="790" type="line"/>
      <point x="719" y="790"/>
      <point x="699" y="717"/>
      <point x="687" y="645" type="curve" smooth="yes"/>
      <point x="656" y="469" type="line"/>
      <point x="582" y="469" type="line"/>
      <point x="583" y="581" type="line"/>
      <point x="584" y="589"/>
      <point x="578" y="601"/>
      <point x="568" y="604" type="curve"/>
      <point x="557" y="610"/>
      <point x="506" y="626"/>
      <point x="476" y="626" type="curve" smooth="yes"/>
      <point x="349" y="626"/>
      <point x="196" y="489"/>
      <point x="196" y="257" type="curve" smooth="yes" name="n19"/>
      <point x="196" y="105"/>
      <point x="294" y="45"/>
      <point x="380" y="45" type="curve" smooth="yes" name="n22"/>
      <point x="408" y="45"/>
      <point x="451" y="54"/>
      <point x="463" y="60" type="curve"/>
      <point x="473" y="61"/>
      <point x="478" y="69"/>
      <point x="481" y="76" type="curve"/>
      <point x="529" y="208" type="line"/>
      <point x="604" y="208" type="line"/>
      <point x="573" y="27" type="line"/>
      <point x="522" y="9"/>
      <point x="441" y="-16"/>
      <point x="347" y="-16" type="curve" smooth="yes" name="n34"/>
      <point x="122" y="-16"/>
      <point x="48" y="132"/>
      <point x="48" y="268" type="curve" smooth="yes" name="n37"/>
      <point x="48" y="474"/>
      <point x="206" y="687" name="n39"/>
      <point x="471" y="687" type="curve" smooth="yes"/>
      <point x="510" y="687"/>
      <point x="523" y="687"/>
      <point x="594" y="671" type="curve"/>
      <point x="612" y="800"/>
      <point x="711" y="851" name="n45"/>
      <point x="817" y="851" type="curve" smooth="yes"/>
      <point x="856" y="851"/>
      <point x="902" y="806"/>
    </contour>
  </outline>
</glyph>
<glyph name="uni018F" format="2">
  <advance width="643"/>
  <unicode hex="018F"/>
  <outline>
    <contour>
      <point x="625" y="429" type="curve" smooth="yes" name="n00"/>
      <point x="625" y="210"/>
      <point x="512" y="-16"/>
      <point x="233" y="-16" type="curve" smooth="yes" name="n03"/>
      <point x="73" y="-16"/>
      <point x="21" y="96"/>
      <point x="21" y="135" type="curve" smooth="yes" name="n06"/>
      <point x="21" y="287"/>
      <point x="150" y="378"/>
      <point x="471" y="383" type="curve" name="n09"/>
      <point x="472" y="396"/>
      <point x="473" y="409"/>
      <point x="473" y="423" type="curve" smooth="yes" name="n12"/>
      <point x="473" y="530"/>
      <point x="406" y="621"/>
      <point x="338" y="621" type="curve" smooth="yes" name="n15"/>
      <point x="254" y="621"/>
      <point x="151" y="551"/>
      <point x="83" y="478" type="curve"/>
      <point x="83" y="588" type="line"/>
      <point x="165" y="660"/>
      <point x="237" y="687"/>
      <point x="366" y="687" type="curve" smooth="yes" name="n22"/>
      <point x="466" y="687"/>
      <point x="625" y="614"/>
    </contour>
    <contour>
      <point x="461" y="316" type="curve" name="n25"/>
      <point x="260" y="310"/>
      <point x="184" y="233"/>
      <point x="184" y="134" type="curve" smooth="yes" name="n28"/>
      <point x="184" y="96"/>
      <point x="214" y="46"/>
      <point x="253" y="46" type="curve" smooth="yes" name="n31"/>
      <point x="334" y="46"/>
      <point x="423" y="166"/>
    </contour>
  </outline>
</glyph>
<glyph name="uni0190" format="2">
  <advance width="585"/>
  <unicode hex="0190"/>
  <outline>
    <contour>
      <point x="601" y="566" type="curve" smooth="yes"/>
      <point x="601" y="526"/>
      <point x="562" y="493"/>
      <point x="507" y="493" type="curve" smooth="yes" name="n03"/>
      <point x="484" y="493"/>
      <point x="461" y="507"/>
      <point x="461" y="507" type="curve"/>
      <point x="420" y="617" type="line"/>
      <point x="413" y="620"/>
      <point x="402" y="622" name="hr01"/>
      <point x="396" y="622" type="curve" smooth="yes" name="n10"/>
      <point x="340" y="622"/>
      <point x="274" y="556"/>
      <point x="274" y="469" type="curve" smooth="yes" name="n13"/>
      <point x="274" y="393"/>
      <point x="333" y="381"/>
      <point x="361" y="381" type="curve" smooth="yes" name="n16"/>
      <point x="367" y="381"/>
      <point x="376" y="382"/>
      <point x="416" y="383" type="curve"/>
      <point x="401" y="306" type="line"/>
      <point x="357" y="311"/>
      <point x="336" y="313"/>
      <point x="324" y="313" type="curve" smooth="yes" name="n23"/>
      <point x="255" y="313"/>
      <point x="174" y="268" name="hr02"/>
      <point x="174" y="165" type="curve" smooth="yes" name="n26"/>
      <point x="174" y="84"/>
      <point x="244" y="45"/>
      <point x="286" y="45" type="curve" smooth="yes" name="n29"/>
      <point x="316" y="45"/>
      <point x="340" y="53"/>
      <point x="368" y="77" type="curve"/>
      <point x="405" y="166" type="line"/>
      <point x="417" y="170"/>
      <point x="447" y="176"/>
      <point x="462" y="176" type="curve" smooth="yes"/>
      <point x="504" y="176"/>
      <point x="527" y="151"/>
      <point x="527" y="121" type="curve" smooth="yes"/>
      <point x="527" y="52"/>
      <point x="402" y="-16"/>
      <point x="275" y="-16" type="curve" smooth="yes" name="n42"/>
      <point x="120" y="-16"/>
      <point x="20" y="34"/>
      <point x="20" y="149" type="curve" smooth="yes" name="n45"/>
      <point x="20" y="292"/>
      <point x="137" y="340"/>
      <point x="225" y="356" type="curve"/>
      <point x="162" y="384"/>
      <point x="123" y="422" name="hr03"/>
      <point x="123" y="480" type="curve" smooth="yes" name="n51"/>
      <point x="123" y="598"/>
      <point x="229" y="687"/>
      <point x="384" y="687" type="curve" smooth="yes" name="n54"/>
      <point x="509" y="687"/>
      <point x="601" y="656"/>
    </contour>
  </outline>
</glyph>
<glyph name="uni0198" format="2">
  <advance width="698"/>
  <unicode hex="0198"/>
  <outline>
    <contour>
      <point x="785" y="582" type="curve" smooth="yes" name="n00"/>
      <point x="785" y="548"/>
      <point x="753" y="503"/>
      <point x="713" y="502" type="curve" smooth="yes"/>
      <point x="679" y="501"/>
      <point x="672" y="513"/>
      <point x="660" y="520" type="curve"/>
      <point x="660" y="623" type="line" name="n07"/>
      <point x="656" y="627"/>
      <point x="645" y="631"/>
      <point x="636" y="631" type="curve" smooth="yes" name="n10"/>
      <point x="622" y="631"/>
      <point x="611" y="620"/>
      <point x="596" y="603" type="curve" smooth="yes"/>
      <point x="388" y="367" type="line"/>
      <point x="527" y="103" type="line" smooth="yes"/>
      <point x="550" y="59"/>
      <point x="554" y="50"/>
      <point x="585" y="49" type="curve" name="n18"/>
      <point x="595" y="49"/>
      <point x="645" y="53"/>
      <point x="648" y="53" type="curve"/>
      <point x="648" y="3" type="line" name="n22"/>
      <point x="612" y="-8"/>
      <point x="570" y="-16" name="hr02"/>
      <point x="533" y="-16" type="curve" smooth="yes" name="n25"/>
      <point x="452" y="-16"/>
      <point x="425" y="7"/>
      <point x="396" y="62" type="curve" smooth="yes"/>
      <point x="276" y="291" type="line"/>
      <point x="253" y="291" type="line"/>
      <point x="209" y="70" type="line"/>
      <point x="207" y="57"/>
      <point x="214" y="55"/>
      <point x="225" y="54" type="curve"/>
      <point x="225" y="54"/>
      <point x="253" y="52"/>
      <point x="277" y="50" type="curve"/>
      <point x="277" y="0" type="line"/>
      <point x="-16" y="0" type="line"/>
      <point x="-16" y="50" type="line"/>
      <point x="10" y="52"/>
      <point x="47" y="54"/>
      <point x="47" y="54" type="curve"/>
      <point x="57" y="54"/>
      <point x="64" y="58"/>
      <point x="66" y="71" type="curve"/>
      <point x="171" y="601" type="line"/>
      <point x="174" y="613"/>
      <point x="168" y="616"/>
      <point x="158" y="617" type="curve"/>
      <point x="158" y="617"/>
      <point x="131" y="618"/>
      <point x="105" y="621" type="curve"/>
      <point x="105" y="671" type="line" name="n54"/>
      <point x="388" y="671" type="line"/>
      <point x="388" y="621" type="line"/>
      <point x="361" y="618"/>
      <point x="333" y="617"/>
      <point x="333" y="617" type="curve"/>
      <point x="323" y="616"/>
      <point x="317" y="613"/>
      <point x="314" y="600" type="curve"/>
      <point x="271" y="383" type="line"/>
      <point x="279" y="383" type="line"/>
      <point x="491" y="630" type="line" smooth="yes"/>
      <point x="522" y="666"/>
      <point x="577" y="687" name="hr03"/>
      <point x="631" y="687" type="curve" smooth="yes" name="n68"/>
      <point x="708" y="687"/>
      <point x="785" y="641"/>
    </contour>
  </outline>
</glyph>
<glyph name="uni019C" format="2">
  <advance width="1107"/>
  <unicode hex="019C"/>
  <outline>
    <contour>
      <point x="318" y="593" type="curve"/>
      <point x="244" y="220" type="line" smooth="yes"/>
      <point x="226" y="129"/>
      <point x="285" y="76"/>
      <point x="347" y="76" type="curve" smooth="yes"/>
      <point x="383" y="76"/>
      <point x="430" y="100"/>
      <point x="468" y="118" type="curve"/>
      <point x="465" y="142"/>
      <point x="467" y="170"/>
      <point x="473" y="200" type="curve" smooth="yes"/>
      <point x="551" y="593" type="line"/>
      <point x="553" y="606"/>
      <point x="544" y="614"/>
      <point x="533" y="615" type="curve" smooth="yes" name="n14"/>
      <point x="482" y="620" type="line"/>
      <point x="482" y="671" type="line" name="n16"/>
      <point x="774" y="671" type="line"/>
      <point x="774" y="620" type="line"/>
      <point x="720" y="615" type="line" smooth="yes"/>
      <point x="708" y="614"/>
      <point x="696" y="606"/>
      <point x="694" y="593" type="curve"/>
      <point x="620" y="220" type="line" smooth="yes"/>
      <point x="602" y="128"/>
      <point x="635" y="76"/>
      <point x="697" y="76" type="curve" smooth="yes" name="n26"/>
      <point x="749" y="76"/>
      <point x="792" y="112"/>
      <point x="837" y="142" type="curve"/>
      <point x="927" y="593" type="line"/>
      <point x="929" y="606"/>
      <point x="920" y="614"/>
      <point x="909" y="615" type="curve" smooth="yes"/>
      <point x="858" y="620" type="line"/>
      <point x="858" y="671" type="line"/>
      <point x="1150" y="671" type="line"/>
      <point x="1150" y="620" type="line"/>
      <point x="1096" y="615" type="line" smooth="yes"/>
      <point x="1084" y="614"/>
      <point x="1072" y="606"/>
      <point x="1070" y="593" type="curve"/>
      <point x="966" y="70" type="line" smooth="yes"/>
      <point x="964" y="60"/>
      <point x="967" y="57"/>
      <point x="976" y="56" type="curve"/>
      <point x="976" y="56"/>
      <point x="1014" y="53"/>
      <point x="1041" y="51" type="curve"/>
      <point x="1041" y="0" type="line" name="n49"/>
      <point x="809" y="0" type="line"/>
      <point x="821" y="56" type="line"/>
      <point x="751" y="7"/>
      <point x="727" y="-16" name="hr02"/>
      <point x="639" y="-16" type="curve" smooth="yes" name="n54"/>
      <point x="562" y="-16"/>
      <point x="517" y="14"/>
      <point x="492" y="53" type="curve"/>
      <point x="431" y="16"/>
      <point x="369" y="-16"/>
      <point x="290" y="-16" type="curve" smooth="yes"/>
      <point x="170" y="-16"/>
      <point x="92" y="49"/>
      <point x="92" y="153" type="curve" smooth="yes"/>
      <point x="92" y="168"/>
      <point x="94" y="184"/>
      <point x="97" y="200" type="curve" smooth="yes"/>
      <point x="175" y="593" type="line"/>
      <point x="177" y="606"/>
      <point x="168" y="614"/>
      <point x="157" y="615" type="curve" smooth="yes"/>
      <point x="106" y="620" type="line"/>
      <point x="106" y="671" type="line"/>
      <point x="398" y="671" type="line"/>
      <point x="398" y="620" type="line"/>
      <point x="344" y="615" type="line" smooth="yes"/>
      <point x="332" y="614"/>
      <point x="320" y="606"/>
    </contour>
  </outline>
</glyph>
<glyph name="uni019D" format="2">
  <advance width="761"/>
  <unicode hex="019D"/>
  <outline>
    <contour>
      <point x="270" y="465" type="line"/>
      <point x="177" y="0" type="line" smooth="yes"/>
      <point x="155" y="-112"/>
      <point x="85" y="-229" name="n03"/>
      <point x="-55" y="-229" type="curve" smooth="yes"/>
      <point x="-122" y="-229"/>
      <point x="-159" y="-195"/>
      <point x="-159" y="-157" type="curve" smooth="yes"/>
      <point x="-159" y="-118"/>
      <point x="-120" y="-85"/>
      <point x="-85" y="-77" type="curve"/>
      <point x="-16" y="-150" type="line"/>
      <point x="25" y="-144"/>
      <point x="49" y="-65"/>
      <point x="62" y="0" type="curve" smooth="yes"/>
      <point x="179" y="601" type="line"/>
      <point x="182" y="613"/>
      <point x="174" y="615"/>
      <point x="161" y="616" type="curve" name="n18"/>
      <point x="161" y="616"/>
      <point x="132" y="618"/>
      <point x="104" y="621" type="curve"/>
      <point x="104" y="671" type="line" name="n22"/>
      <point x="339" y="671" type="line"/>
      <point x="339" y="640" type="line"/>
      <point x="534" y="233" type="line"/>
      <point x="607" y="601" type="line"/>
      <point x="610" y="613"/>
      <point x="600" y="615"/>
      <point x="588" y="616" type="curve"/>
      <point x="588" y="616"/>
      <point x="558" y="618"/>
      <point x="531" y="621" type="curve"/>
      <point x="531" y="671" type="line"/>
      <point x="805" y="671" type="line"/>
      <point x="805" y="621" type="line"/>
      <point x="740" y="615" type="line" smooth="yes"/>
      <point x="731" y="614"/>
      <point x="725" y="609"/>
      <point x="723" y="600" type="curve" smooth="yes"/>
      <point x="604" y="0" type="line" name="n40"/>
      <point x="493" y="0" type="line"/>
    </contour>
  </outline>
</glyph>
<glyph name="uni01A9" format="2">
  <advance width="572"/>
  <unicode hex="01A9"/>
  <outline>
    <contour>
      <point x="486" y="0" type="line" name="n00"/>
      <point x="-21" y="0" type="line"/>
      <point x="-10" y="59" type="line"/>
      <point x="239" y="349" type="line"/>
      <point x="116" y="612" type="line"/>
      <point x="127" y="671" type="line"/>
      <point x="607" y="671" type="line" name="n06"/>
      <point x="572" y="489" type="line" name="n07"/>
      <point x="498" y="489" type="line"/>
      <point x="502" y="598" type="line"/>
      <point x="502" y="606"/>
      <point x="498" y="610" name="hr01"/>
      <point x="490" y="610" type="curve" smooth="yes" name="n12"/>
      <point x="274" y="610" type="line"/>
      <point x="393" y="349" type="line"/>
      <point x="146" y="62" type="line"/>
      <point x="389" y="62" type="line" smooth="yes" name="n16"/>
      <point x="398" y="62"/>
      <point x="404" y="66"/>
      <point x="407" y="73" type="curve"/>
      <point x="450" y="197" type="line" name="n20"/>
      <point x="523" y="197" type="line"/>
    </contour>
  </outline>
</glyph>
<glyph name="uni01AA" format="2">
  <advance width="481"/>
  <unicode hex="01AA"/>
  <outline>
    <contour>
      <point x="526" y="-147" type="curve" smooth="yes"/>
      <point x="526" y="-193"/>
      <point x="469" y="-218" name="n02"/>
      <point x="403" y="-218" type="curve" smooth="yes"/>
      <point x="274" y="-218"/>
      <point x="222" y="-139"/>
      <point x="222" y="-50" type="curve" smooth="yes" name="n06"/>
      <point x="222" y="-35"/>
      <point x="224" y="-19"/>
      <point x="227" y="-3" type="curve" smooth="yes"/>
      <point x="288" y="315" type="line"/>
      <point x="266" y="309"/>
      <point x="241" y="305"/>
      <point x="213" y="305" type="curve" smooth="yes" name="n13"/>
      <point x="93" y="305"/>
      <point x="39" y="372"/>
      <point x="39" y="456" type="curve" smooth="yes" name="n16"/>
      <point x="39" y="556"/>
      <point x="116" y="688"/>
      <point x="284" y="688" type="curve" smooth="yes" name="n19"/>
      <point x="410" y="688"/>
      <point x="458" y="615" name="hr01"/>
      <point x="458" y="533" type="curve" smooth="yes" name="n22"/>
      <point x="458" y="521"/>
      <point x="457" y="508"/>
      <point x="454" y="496" type="curve"/>
      <point x="356" y="-6" type="line" smooth="yes"/>
      <point x="349" y="-43"/>
      <point x="347" y="-73" name="hr02"/>
      <point x="347" y="-94" type="curve" smooth="yes" name="n29"/>
      <point x="347" y="-117"/>
      <point x="368" y="-142"/>
      <point x="382" y="-142" type="curve"/>
      <point x="457" y="-79" type="line"/>
      <point x="499" y="-79"/>
      <point x="526" y="-103"/>
    </contour>
    <contour>
      <point x="328" y="538" type="curve" smooth="yes" name="n36"/>
      <point x="328" y="598" name="hr03"/>
      <point x="318" y="627"/>
      <point x="276" y="627" type="curve" smooth="yes" name="n39"/>
      <point x="195" y="627"/>
      <point x="168" y="525"/>
      <point x="168" y="454" type="curve" smooth="yes" name="n42"/>
      <point x="168" y="393"/>
      <point x="183" y="366"/>
      <point x="221" y="366" type="curve" smooth="yes" name="n45"/>
      <point x="301" y="366"/>
      <point x="328" y="463"/>
    </contour>
  </outline>
</glyph>
<glyph name="uni01AE" format="2">
  <advance width="627"/>
  <unicode hex="01AE"/>
  <outline>
    <contour>
      <point x="200" y="45" type="curve" smooth="yes"/>
      <point x="309" y="616" type="line"/>
      <point x="289.693" y="616"/>
      <point x="220.43" y="616"/>
      <point x="206" y="616" type="curve" smooth="yes" name="n04"/>
      <point x="197" y="616"/>
      <point x="181" y="611"/>
      <point x="178" y="602" type="curve" smooth="yes"/>
      <point x="140" y="496" type="line"/>
      <point x="128.81" y="496"/>
      <point x="79.3418" y="496"/>
      <point x="62" y="496" type="curve"/>
      <point x="68.2574" y="528.207"/>
      <point x="90.2949" y="641.635" name="n13"/>
      <point x="96" y="671" type="curve"/>
      <point x="233.445" y="671"/>
      <point x="588.371" y="671"/>
      <point x="692" y="671" type="curve" name="n17"/>
      <point x="686.283" y="643.208"/>
      <point x="662.168" y="525.986"/>
      <point x="656" y="496" type="curve"/>
      <point x="578" y="496" type="line"/>
      <point x="583" y="603" type="line" smooth="yes" name="n22"/>
      <point x="583.423" y="612.046"/>
      <point x="571" y="616"/>
      <point x="561" y="616" type="curve" smooth="yes"/>
      <point x="452" y="616" type="line"/>
      <point x="332" y="-18" type="line" smooth="yes" name="n27"/>
      <point x="325" y="-55"/>
      <point x="319" y="-89"/>
      <point x="319" y="-116" type="curve" smooth="yes" name="n30"/>
      <point x="319" y="-135"/>
      <point x="322" y="-149"/>
      <point x="328" y="-161" type="curve"/>
      <point x="428" y="-101" type="line"/>
      <point x="466" y="-116"/>
      <point x="485" y="-130"/>
      <point x="485" y="-157.665" type="curve" smooth="yes"/>
      <point x="485" y="-206"/>
      <point x="427" y="-229"/>
      <point x="377" y="-229" type="curve" smooth="yes"/>
      <point x="225" y="-229"/>
      <point x="188.012" y="-143.998"/>
      <point x="188.012" y="-58.9616" type="curve" smooth="yes"/>
      <point x="188.012" y="-23"/>
      <point x="194" y="11"/>
    </contour>
  </outline>
</glyph>
<glyph name="uni01BB" format="2">
  <advance width="586"/>
  <unicode hex="01BB"/>
  <outline>
    <contour>
      <point x="583" y="332" type="curve" name="n00"/>
      <point x="581.118" y="321.964"/>
      <point x="573.286" y="280.192"/>
      <point x="571" y="268" type="curve"/>
      <point x="397" y="268" type="line" name="n04"/>
      <point x="328" y="216"/>
      <point x="241" y="164"/>
      <point x="145" y="108" type="curve" name="n07"/>
      <point x="430" y="108" type="line"/>
      <point x="435.377" y="121.52"/>
      <point x="458.842" y="180.517"/>
      <point x="465" y="196" type="curve" name="hr01"/>
      <point x="530" y="196" type="line" name="n12"/>
      <point x="491" y="0" type="line" name="n13"/>
      <point x="-9" y="0" type="line"/>
      <point x="8" y="83" type="line" name="n15"/>
      <point x="60" y="121"/>
      <point x="173" y="186"/>
      <point x="268" y="268" type="curve"/>
      <point x="64" y="268" type="line"/>
      <point x="66.6485" y="281.039"/>
      <point x="75.271" y="323.488"/>
      <point x="77" y="332" type="curve"/>
      <point x="333" y="332" type="line"/>
      <point x="375" y="378"/>
      <point x="407" y="428"/>
      <point x="417" y="480" type="curve" smooth="yes"/>
      <point x="433" y="559"/>
      <point x="396" y="616"/>
      <point x="321" y="616" type="curve" smooth="yes"/>
      <point x="294" y="616"/>
      <point x="286" y="614"/>
      <point x="262" y="607" type="curve" name="n32"/>
      <point x="256.188" y="577.94"/>
      <point x="240.166" y="497.831"/>
      <point x="235" y="472" type="curve" name="n35"/>
      <point x="235" y="472"/>
      <point x="195" y="453"/>
      <point x="164" y="453" type="curve" smooth="yes"/>
      <point x="115" y="453"/>
      <point x="94" y="483"/>
      <point x="103" y="527" type="curve" smooth="yes"/>
      <point x="128" y="653"/>
      <point x="291" y="683"/>
      <point x="378" y="683" type="curve" smooth="yes"/>
      <point x="505" y="683"/>
      <point x="591" y="609"/>
      <point x="567" y="489" type="curve" smooth="yes"/>
      <point x="556" y="432"/>
      <point x="523" y="381"/>
      <point x="473" y="332" type="curve" name="n50"/>
      <point x="492.537" y="332"/>
      <point x="560.173" y="332"/>
    </contour>
  </outline>
</glyph>
<glyph name="uni01BD" format="2">
  <advance width="443"/>
  <unicode hex="01BD"/>
  <outline>
    <contour>
      <point x="389" y="360" type="curve"/>
      <point x="329" y="360" type="line"/>
      <point x="329.322" y="368.212"/>
      <point x="330.636" y="401.706"/>
      <point x="331" y="411" type="curve" name="n04"/>
      <point x="331" y="418"/>
      <point x="328" y="425"/>
      <point x="322" y="425" type="curve" smooth="yes" name="n07"/>
      <point x="298.164" y="425"/>
      <point x="221.472" y="425"/>
      <point x="202" y="425" type="curve" smooth="yes"/>
      <point x="193" y="425"/>
      <point x="186" y="416"/>
      <point x="185" y="410" type="curve" name="n13"/>
      <point x="182.762" y="399.469"/>
      <point x="168.715" y="333.364"/>
      <point x="168" y="330" type="curve"/>
      <point x="273" y="322"/>
      <point x="373" y="261"/>
      <point x="373" y="166" type="curve" smooth="yes"/>
      <point x="373" y="39"/>
      <point x="242" y="-12" name="hr02"/>
      <point x="132" y="-12" type="curve" smooth="yes" name="n22"/>
      <point x="61" y="-12"/>
      <point x="-12" y="23"/>
      <point x="-12" y="81" type="curve" smooth="yes" name="n25"/>
      <point x="-12" y="128"/>
      <point x="21" y="155" name="hr03"/>
      <point x="65" y="155" type="curve" smooth="yes" name="n28"/>
      <point x="72" y="155"/>
      <point x="86" y="154"/>
      <point x="91" y="151" type="curve"/>
      <point x="93.014" y="137.909"/>
      <point x="102.002" y="79.4886"/>
      <point x="105" y="60" type="curve" name="n34"/>
      <point x="114" y="49"/>
      <point x="133" y="38"/>
      <point x="148" y="38" type="curve" smooth="yes"/>
      <point x="198" y="38"/>
      <point x="234" y="78"/>
      <point x="234" y="148" type="curve" smooth="yes" name="n40"/>
      <point x="234" y="212"/>
      <point x="171" y="271"/>
      <point x="61" y="271" type="curve"/>
      <point x="89" y="410" type="line"/>
      <point x="90" y="416"/>
      <point x="88" y="424"/>
      <point x="79" y="425" type="curve"/>
      <point x="35" y="428" type="line"/>
      <point x="36.8787" y="438.145"/>
      <point x="43.3897" y="473.304"/>
      <point x="45" y="482" type="curve"/>
      <point x="413" y="482" type="line"/>
      <point x="408.606" y="459.663"/>
      <point x="391.97" y="375.097"/>
    </contour>
  </outline>
</glyph>
<glyph name="uni01C2" format="2">
  <advance width="421"/>
  <unicode hex="01C2"/>
  <outline>
    <contour>
      <point x="49" y="297" type="line" name="n00"/>
      <point x="49" y="363" type="line" name="n01"/>
      <point x="417" y="363" type="line"/>
      <point x="417" y="297" type="line"/>
    </contour>
    <contour>
      <point x="20" y="158" type="line" name="n04"/>
      <point x="20" y="223" type="line" name="n05"/>
      <point x="387" y="223" type="line"/>
      <point x="387" y="158" type="line"/>
    </contour>
    <contour>
      <point x="168" y="-215" type="line" name="n08"/>
      <point x="93" y="-215" type="line"/>
      <point x="274" y="736" type="line" name="n10"/>
      <point x="350" y="736" type="line"/>
    </contour>
  </outline>
</glyph>
<glyph name="uni01C3" format="2">
  <advance width="268"/>
  <unicode hex="01C3"/>
  <outline>
    <contour>
      <point x="283" y="616" type="curve"/>
      <point x="283" y="616"/>
      <point x="195" y="347"/>
      <point x="148" y="208" type="curve"/>
      <point x="94" y="208" type="line"/>
      <point x="117" y="593" type="line"/>
      <point x="117" y="649"/>
      <point x="165" y="687" name="n07"/>
      <point x="215" y="687" type="curve" smooth="yes"/>
      <point x="264" y="687"/>
      <point x="283" y="665"/>
    </contour>
    <contour>
      <point x="184" y="65" type="curve" smooth="yes" name="n11"/>
      <point x="184" y="21"/>
      <point x="146" y="-12"/>
      <point x="102" y="-12" type="curve" smooth="yes" name="n14"/>
      <point x="59" y="-12"/>
      <point x="27" y="26"/>
      <point x="27" y="69" type="curve" smooth="yes" name="n17"/>
      <point x="27" y="113"/>
      <point x="60" y="149"/>
      <point x="103" y="149" type="curve" smooth="yes" name="n20"/>
      <point x="151" y="149"/>
      <point x="184" y="110"/>
    </contour>
  </outline>
</glyph>
<glyph name="uni01C9" format="2">
  <advance width="624"/>
  <unicode hex="01C9"/>
  <outline>
    <contour>
      <point x="304" y="29" type="line"/>
      <point x="256" y="4"/>
      <point x="196" y="-12"/>
      <point x="144" y="-12" type="curve" smooth="yes" name="n03"/>
      <point x="78" y="-12"/>
      <point x="39" y="18"/>
      <point x="39" y="64" type="curve" smooth="yes"/>
      <point x="39" y="75"/>
      <point x="40" y="87"/>
      <point x="43" y="100" type="curve"/>
      <point x="152" y="661" type="line"/>
      <point x="64" y="669" type="line"/>
      <point x="64" y="705" type="line"/>
      <point x="233" y="737" type="line" name="n13"/>
      <point x="299" y="737" type="line"/>
      <point x="176" y="102" type="line" smooth="yes"/>
      <point x="172" y="79"/>
      <point x="177" y="53"/>
      <point x="202" y="53" type="curve" smooth="yes" name="n18"/>
      <point x="218" y="53"/>
      <point x="257" y="62"/>
      <point x="304" y="83" type="curve"/>
    </contour>
    <contour>
      <point x="617" y="663" type="curve" smooth="yes" name="n22"/>
      <point x="617" y="620"/>
      <point x="581" y="585" name="hr01"/>
      <point x="538" y="585" type="curve" smooth="yes" name="n25"/>
      <point x="495" y="585"/>
      <point x="461" y="620"/>
      <point x="461" y="663" type="curve" smooth="yes" name="n28"/>
      <point x="461" y="706"/>
      <point x="495" y="740"/>
      <point x="538" y="740" type="curve" smooth="yes" name="n31"/>
      <point x="581" y="740"/>
      <point x="617" y="706"/>
    </contour>
    <contour>
      <point x="581" y="500" type="line" name="n34"/>
      <point x="510" y="84" type="line"/>
      <point x="492" y="-17"/>
      <point x="402" y="-229" name="n37"/>
      <point x="264" y="-229" type="curve" smooth="yes"/>
      <point x="217" y="-229"/>
      <point x="177" y="-204"/>
      <point x="177" y="-171" type="curve" smooth="yes"/>
      <point x="177" y="-146"/>
      <point x="195" y="-132"/>
      <point x="218" y="-117" type="curve"/>
      <point x="313" y="-142" type="line"/>
      <point x="331" y="-114"/>
      <point x="352" y="-55"/>
      <point x="361" y="-6" type="curve" smooth="yes"/>
      <point x="435" y="422" type="line"/>
      <point x="349" y="431" type="line"/>
      <point x="349" y="467" type="line"/>
      <point x="515" y="500" type="line"/>
    </contour>
  </outline>
</glyph>
<glyph name="uni01CC" format="2">
  <advance width="895"/>
  <unicode hex="01CC"/>
  <outline>
    <contour>
      <point x="574" y="23" type="line"/>
      <point x="539" y="6"/>
      <point x="464" y="-12" name="n02"/>
      <point x="418" y="-12" type="curve" smooth="yes"/>
      <point x="374" y="-12"/>
      <point x="306" y="-2"/>
      <point x="317" y="51" type="curve" smooth="yes"/>
      <point x="378" y="356" type="line" smooth="yes"/>
      <point x="388" y="405"/>
      <point x="375" y="421"/>
      <point x="354" y="421" type="curve" smooth="yes" name="n10"/>
      <point x="323" y="421"/>
      <point x="270" y="382"/>
      <point x="228" y="339" type="curve"/>
      <point x="157" y="0" type="line" name="n14"/>
      <point x="24" y="0" type="line"/>
      <point x="112" y="425" type="line"/>
      <point x="28" y="433" type="line"/>
      <point x="28" y="467" type="line"/>
      <point x="192" y="500" type="line"/>
      <point x="261" y="500" type="line"/>
      <point x="249" y="442" type="line"/>
      <point x="298" y="475"/>
      <point x="358" y="500"/>
      <point x="410" y="500" type="curve" smooth="yes" name="n24"/>
      <point x="510" y="500"/>
      <point x="535" y="454"/>
      <point x="519" y="369" type="curve" smooth="yes"/>
      <point x="465" y="88" type="line" smooth="yes"/>
      <point x="459" y="55"/>
      <point x="479" y="49"/>
      <point x="489" y="49" type="curve" smooth="yes"/>
      <point x="510" y="49"/>
      <point x="542" y="58"/>
      <point x="572" y="71" type="curve"/>
    </contour>
    <contour>
      <point x="889" y="663" type="curve" smooth="yes" name="n35"/>
      <point x="889" y="620"/>
      <point x="853" y="585"/>
      <point x="810" y="585" type="curve" smooth="yes" name="n38"/>
      <point x="767" y="585"/>
      <point x="733" y="620"/>
      <point x="733" y="663" type="curve" smooth="yes" name="n41"/>
      <point x="733" y="706"/>
      <point x="767" y="740"/>
      <point x="810" y="740" type="curve" smooth="yes" name="n44"/>
      <point x="853" y="740"/>
      <point x="889" y="706"/>
    </contour>
    <contour>
      <point x="853" y="500" type="line"/>
      <point x="782" y="84" type="line"/>
      <point x="764" y="-17"/>
      <point x="674" y="-229" name="n50"/>
      <point x="536" y="-229" type="curve" smooth="yes"/>
      <point x="489" y="-229"/>
      <point x="449" y="-204"/>
      <point x="449" y="-171" type="curve" smooth="yes"/>
      <point x="449" y="-146"/>
      <point x="467" y="-132"/>
      <point x="490" y="-117" type="curve"/>
      <point x="585" y="-142" type="line"/>
      <point x="603" y="-114"/>
      <point x="624" y="-55"/>
      <point x="633" y="-6" type="curve" smooth="yes"/>
      <point x="707" y="422" type="line"/>
      <point x="621" y="431" type="line"/>
      <point x="621" y="467" type="line"/>
      <point x="787" y="500" type="line"/>
    </contour>
  </outline>
</glyph>
<glyph name="uni01E5" format="2">
  <advance width="541"/>
  <unicode hex="01E5"/>
  <outline>
    <contour>
      <point x="537" y="-102" type="line" name="n00"/>
      <point x="490" y="-102" type="line"/>
      <point x="459" y="-171"/>
      <point x="350" y="-229"/>
      <point x="223" y="-229" type="curve" smooth="yes" name="n04"/>
      <point x="81" y="-229"/>
      <point x="21" y="-166"/>
      <point x="10" y="-102" type="curve"/>
      <point x="-25" y="-102" type="line"/>
      <point x="-25" y="-47" type="line"/>
      <point x="13" y="-47" type="line"/>
      <point x="28" y="4"/>
      <point x="79" y="39"/>
      <point x="142" y="61" type="curve"/>
      <point x="137" y="92"/>
      <point x="154" y="145"/>
      <point x="180" y="172" type="curve"/>
      <point x="127" y="197"/>
      <point x="88" y="234"/>
      <point x="88" y="297" type="curve" smooth="yes" name="n19"/>
      <point x="88" y="390"/>
      <point x="158" y="500"/>
      <point x="313" y="500" type="curve" smooth="yes" name="n22"/>
      <point x="363" y="500"/>
      <point x="407" y="483"/>
      <point x="426" y="475" type="curve" name="hr01"/>
      <point x="572" y="475" type="line" name="n26"/>
      <point x="572" y="417" type="line" name="n27"/>
      <point x="480" y="417" type="line"/>
      <point x="486" y="402"/>
      <point x="491" y="379"/>
      <point x="491" y="355" type="curve" smooth="yes" name="n31"/>
      <point x="491" y="256"/>
      <point x="414" y="160"/>
      <point x="269" y="159" type="curve" name="n34"/>
      <point x="262" y="140"/>
      <point x="258" y="119"/>
      <point x="260" y="108" type="curve"/>
      <point x="393" y="48" type="line"/>
      <point x="451" y="23"/>
      <point x="491" y="0"/>
      <point x="498" y="-47" type="curve"/>
      <point x="537" y="-47" type="line" name="n42"/>
    </contour>
    <contour>
      <point x="353" y="360" type="curve" smooth="yes" name="n43"/>
      <point x="353" y="407"/>
      <point x="353" y="448" name="hr02"/>
      <point x="315" y="448" type="curve" smooth="yes" name="n46"/>
      <point x="293" y="448"/>
      <point x="226" y="383"/>
      <point x="226" y="285" type="curve" smooth="yes" name="n49"/>
      <point x="226" y="239"/>
      <point x="230" y="206"/>
      <point x="263" y="206" type="curve" smooth="yes" name="n52"/>
      <point x="329" y="206"/>
      <point x="353" y="299"/>
    </contour>
    <contour>
      <point x="249" y="-173" type="curve" smooth="yes" name="n55"/>
      <point x="324" y="-173"/>
      <point x="354" y="-133"/>
      <point x="362" y="-102" type="curve"/>
      <point x="150" y="-102" type="line"/>
      <point x="161" y="-138"/>
      <point x="190" y="-173"/>
    </contour>
    <contour>
      <point x="203" y="26" type="line"/>
      <point x="165" y="11"/>
      <point x="149" y="-16"/>
      <point x="145" y="-47" type="curve"/>
      <point x="351" y="-47" type="line"/>
      <point x="343" y="-38"/>
      <point x="331" y="-30"/>
      <point x="315" y="-23" type="curve" smooth="yes"/>
    </contour>
  </outline>
</glyph>
<glyph name="uni01F3" format="2">
  <advance width="1057"/>
  <unicode hex="01F3"/>
  <outline>
    <contour>
      <point x="570" y="737" type="line" name="n00"/>
      <point x="455" y="90" type="line" smooth="yes"/>
      <point x="449" y="57"/>
      <point x="463" y="49"/>
      <point x="471" y="49" type="curve" smooth="yes"/>
      <point x="499" y="49"/>
      <point x="542" y="68"/>
      <point x="564" y="79" type="curve"/>
      <point x="564" y="30" type="line"/>
      <point x="530" y="10"/>
      <point x="464" y="-12"/>
      <point x="412" y="-12" type="curve" smooth="yes"/>
      <point x="362" y="-12"/>
      <point x="333" y="6"/>
      <point x="322" y="36" type="curve"/>
      <point x="286" y="9"/>
      <point x="239" y="-12"/>
      <point x="196" y="-12" type="curve" smooth="yes" name="n17"/>
      <point x="80" y="-12"/>
      <point x="32" y="83"/>
      <point x="32" y="169" type="curve" smooth="yes" name="n20"/>
      <point x="32" y="322"/>
      <point x="133" y="500"/>
      <point x="335" y="500" type="curve" smooth="yes" name="n23"/>
      <point x="360" y="500"/>
      <point x="380" y="492"/>
      <point x="393" y="488" type="curve"/>
      <point x="423" y="661" type="line"/>
      <point x="333" y="669" type="line"/>
      <point x="333" y="705" type="line"/>
      <point x="502" y="737" type="line"/>
    </contour>
    <contour>
      <point x="376" y="394" type="line" smooth="yes"/>
      <point x="377" y="399"/>
      <point x="357" y="443" name="hr01"/>
      <point x="333" y="443" type="curve" smooth="yes" name="n34"/>
      <point x="263" y="443"/>
      <point x="170" y="334"/>
      <point x="170" y="175" type="curve" smooth="yes" name="n37"/>
      <point x="170" y="94"/>
      <point x="190" y="59"/>
      <point x="227" y="59" type="curve" smooth="yes" name="n40"/>
      <point x="261" y="59"/>
      <point x="296" y="96"/>
      <point x="330" y="135" type="curve"/>
    </contour>
    <contour>
      <point x="1064" y="470" type="line"/>
      <point x="734" y="92" type="line"/>
      <point x="797" y="105" type="line"/>
      <point x="833" y="86"/>
      <point x="853" y="73"/>
      <point x="876" y="73" type="curve" smooth="yes"/>
      <point x="890" y="73"/>
      <point x="931" y="87"/>
      <point x="940" y="102" type="curve"/>
      <point x="880" y="166" type="line"/>
      <point x="887" y="176"/>
      <point x="924" y="204"/>
      <point x="957" y="204" type="curve" smooth="yes"/>
      <point x="1000" y="204"/>
      <point x="1019" y="157"/>
      <point x="1019" y="130" type="curve" smooth="yes"/>
      <point x="1019" y="66"/>
      <point x="939" y="-11"/>
      <point x="846" y="-11" type="curve" smooth="yes"/>
      <point x="778" y="-11"/>
      <point x="722" y="31"/>
      <point x="709" y="31" type="curve" smooth="yes"/>
      <point x="700" y="31"/>
      <point x="692" y="31"/>
      <point x="688" y="25" type="curve"/>
      <point x="651" y="-39" type="line"/>
      <point x="550" y="16" type="line"/>
      <point x="880" y="396" type="line"/>
      <point x="817" y="383" type="line"/>
      <point x="782" y="402"/>
      <point x="762" y="415" name="hr02"/>
      <point x="739" y="415" type="curve" smooth="yes" name="n75"/>
      <point x="725" y="415"/>
      <point x="684" y="401"/>
      <point x="675" y="386" type="curve"/>
      <point x="734" y="323" type="line"/>
      <point x="728" y="312"/>
      <point x="691" y="284" name="hr03"/>
      <point x="658" y="284" type="curve" smooth="yes" name="n82"/>
      <point x="615" y="284"/>
      <point x="596" y="331"/>
      <point x="596" y="358" type="curve" smooth="yes"/>
      <point x="596" y="422"/>
      <point x="676" y="500"/>
      <point x="769" y="500" type="curve" smooth="yes" name="n88"/>
      <point x="837" y="500"/>
      <point x="893" y="457"/>
      <point x="906" y="457" type="curve" smooth="yes"/>
      <point x="915" y="457"/>
      <point x="922" y="458"/>
      <point x="927" y="463" type="curve"/>
      <point x="954" y="526" type="line"/>
    </contour>
  </outline>
</glyph>
<glyph name="uni01F6" format="2">
  <advance width="1089"/>
  <unicode hex="01F6"/>
  <outline>
    <contour>
      <point x="879" y="488" type="curve"/>
      <point x="1012" y="488" type="line" name="n01"/>
      <point x="947" y="180" type="line" smooth="yes"/>
      <point x="926" y="82"/>
      <point x="838" y="-16"/>
      <point x="667" y="-16" type="curve" smooth="yes"/>
      <point x="520" y="-16"/>
      <point x="459" y="63"/>
      <point x="481" y="172" type="curve" smooth="yes"/>
      <point x="512" y="321" type="line"/>
      <point x="242" y="321" type="line" name="n10"/>
      <point x="193" y="70" type="line"/>
      <point x="191" y="58"/>
      <point x="194" y="56"/>
      <point x="211" y="55" type="curve"/>
      <point x="211" y="55"/>
      <point x="242" y="53"/>
      <point x="271" y="50" type="curve"/>
      <point x="271" y="40.3598"/>
      <point x="271" y="9.14552"/>
      <point x="271" y="0" type="curve"/>
      <point x="-32" y="0" type="line"/>
      <point x="-32" y="8.41429"/>
      <point x="-32" y="36.4324"/>
      <point x="-32" y="50" type="curve" name="n24"/>
      <point x="-2" y="53"/>
      <point x="28" y="55"/>
      <point x="28" y="55" type="curve"/>
      <point x="42" y="56"/>
      <point x="48" y="59"/>
      <point x="50" y="71" type="curve" name="n30"/>
      <point x="154" y="601" type="line"/>
      <point x="156" y="613"/>
      <point x="149" y="615"/>
      <point x="135" y="616" type="curve"/>
      <point x="135" y="616"/>
      <point x="107" y="618"/>
      <point x="79" y="621" type="curve"/>
      <point x="79" y="629.841"/>
      <point x="79" y="661.343"/>
      <point x="79" y="671" type="curve"/>
      <point x="380" y="671" type="line"/>
      <point x="380" y="621" type="line" name="n42"/>
      <point x="349" y="618"/>
      <point x="318" y="616"/>
      <point x="318" y="616" type="curve"/>
      <point x="305" y="615"/>
      <point x="299" y="612"/>
      <point x="297" y="600" type="curve"/>
      <point x="254" y="381" type="line"/>
      <point x="524" y="381" type="line"/>
      <point x="567" y="601" type="line"/>
      <point x="569" y="613"/>
      <point x="562" y="616"/>
      <point x="546" y="617" type="curve"/>
      <point x="546" y="617"/>
      <point x="516" y="618"/>
      <point x="490" y="621" type="curve"/>
      <point x="490" y="629.841"/>
      <point x="490" y="661.343"/>
      <point x="490" y="671" type="curve"/>
      <point x="792" y="671" type="line"/>
      <point x="792" y="654.091"/>
      <point x="792" y="625.386"/>
      <point x="792" y="621" type="curve" name="n64"/>
      <point x="783.413" y="620.182"/>
      <point x="742.684" y="616.303"/>
      <point x="729" y="615" type="curve" smooth="yes"/>
      <point x="717" y="614"/>
      <point x="712" y="609"/>
      <point x="710" y="600" type="curve" smooth="yes"/>
      <point x="623" y="162" type="line" name="hr01"/>
      <point x="611" y="97"/>
      <point x="643" y="59"/>
      <point x="692" y="59" type="curve" smooth="yes"/>
      <point x="733" y="59"/>
      <point x="795" y="82"/>
      <point x="810" y="162" type="curve" name="n77"/>
      <point x="823.239" y="224.549"/>
      <point x="862.445" y="409.782"/>
    </contour>
  </outline>
</glyph>
<glyph name="uni01F7" format="2">
  <advance width="619"/>
  <unicode hex="01F7"/>
  <outline>
    <contour>
      <point x="473" y="687" type="curve" smooth="yes" name="n00"/>
      <point x="546" y="687"/>
      <point x="625" y="631"/>
      <point x="625" y="546" type="curve" smooth="yes"/>
      <point x="625" y="330"/>
      <point x="332" y="106"/>
      <point x="163" y="10" type="curve"/>
      <point x="157.961" y="-14.7249"/>
      <point x="139.909" y="-103.292"/>
      <point x="131" y="-147" type="curve"/>
      <point x="130" y="-155"/>
      <point x="132" y="-161"/>
      <point x="150" y="-162" type="curve"/>
      <point x="214" y="-168" type="line" name="n13"/>
      <point x="214" y="-218" type="line"/>
      <point x="-84" y="-218" type="line"/>
      <point x="-84" y="-167" type="line"/>
      <point x="-73.2091" y="-166.086"/>
      <point x="-36.0846" y="-162.939"/>
      <point x="-25" y="-162" type="curve" smooth="yes"/>
      <point x="-12" y="-161"/>
      <point x="-8" y="-159"/>
      <point x="-5" y="-147" type="curve"/>
      <point x="140" y="602" type="line"/>
      <point x="52" y="609" type="line"/>
      <point x="52" y="646" type="line" name="n25"/>
      <point x="221" y="677" type="line"/>
      <point x="287" y="677" type="line"/>
      <point x="285.292" y="667.992"/>
      <point x="277.41" y="626.435"/>
      <point x="276" y="619" type="curve" name="n30"/>
      <point x="316" y="651"/>
      <point x="384" y="687"/>
    </contour>
    <contour>
      <point x="409" y="596" type="curve" smooth="yes" name="n33"/>
      <point x="360" y="596"/>
      <point x="311" y="573"/>
      <point x="262" y="532" type="curve" name="n36"/>
      <point x="252.465" y="482.697"/>
      <point x="197.804" y="200.062"/>
      <point x="180" y="108" type="curve"/>
      <point x="323" y="212"/>
      <point x="473" y="370"/>
      <point x="473" y="513" type="curve" smooth="yes"/>
      <point x="473" y="563"/>
      <point x="451" y="596"/>
    </contour>
  </outline>
</glyph>
<glyph name="uni021D" format="2">
  <advance width="425"/>
  <unicode hex="021D"/>
  <outline>
    <contour>
      <point x="417" y="372.07" type="curve" smooth="yes" name="n00"/>
      <point x="417" y="305"/>
      <point x="355" y="241"/>
      <point x="270" y="190" type="curve"/>
      <point x="328" y="173"/>
      <point x="374" y="135" name="hr01"/>
      <point x="374" y="75.2565" type="curve" smooth="yes" name="n06"/>
      <point x="374" y="-53"/>
      <point x="162" y="-169"/>
      <point x="-32" y="-229" type="curve"/>
      <point x="-18" y="-164" type="line"/>
      <point x="153" y="-100"/>
      <point x="220" y="-17"/>
      <point x="220" y="65.9526" type="curve" smooth="yes" name="n13"/>
      <point x="220" y="98"/>
      <point x="210" y="134"/>
      <point x="186" y="147" type="curve"/>
      <point x="147" y="130"/>
      <point x="106" y="116"/>
      <point x="66" y="104" type="curve"/>
      <point x="78" y="169" type="line"/>
      <point x="224" y="225"/>
      <point x="263" y="295" name="hr02"/>
      <point x="263" y="363.195" type="curve" smooth="yes" name="n23"/>
      <point x="263" y="422"/>
      <point x="234" y="436"/>
      <point x="202.108" y="436" type="curve" smooth="yes" name="n26"/>
      <point x="178" y="436"/>
      <point x="145" y="428"/>
      <point x="125" y="410" type="curve"/>
      <point x="102" y="354" type="line"/>
      <point x="43" y="354" type="line"/>
      <point x="65" y="463" type="line"/>
      <point x="141" y="493"/>
      <point x="175" y="500"/>
      <point x="228" y="500" type="curve" smooth="yes" name="n35"/>
      <point x="308" y="500"/>
      <point x="417" y="461"/>
    </contour>
  </outline>
</glyph>
<glyph name="hcaron" format="2">
  <advance width="564"/>
  <unicode hex="021F"/>
  <outline>
    <contour>
      <point x="563" y="28" type="line"/>
      <point x="513" y="4"/>
      <point x="462" y="-12" name="n02"/>
      <point x="409" y="-12" type="curve" smooth="yes"/>
      <point x="362" y="-12"/>
      <point x="305" y="6"/>
      <point x="316" y="58" type="curve" smooth="yes"/>
      <point x="376" y="349" type="line" smooth="yes"/>
      <point x="386" y="397"/>
      <point x="362" y="424"/>
      <point x="342" y="424" type="curve" smooth="yes" name="n10"/>
      <point x="312" y="424"/>
      <point x="264" y="392"/>
      <point x="223" y="350" type="curve"/>
      <point x="150" y="0" type="line" name="n14"/>
      <point x="17" y="0" type="line"/>
      <point x="155" y="661" type="line"/>
      <point x="67" y="669" type="line"/>
      <point x="67" y="705" type="line"/>
      <point x="236" y="737" type="line"/>
      <point x="305" y="737" type="line"/>
      <point x="245" y="454" type="line"/>
      <point x="285" y="479"/>
      <point x="338" y="500"/>
      <point x="397" y="500" type="curve" smooth="yes" name="n24"/>
      <point x="497" y="500"/>
      <point x="529" y="443"/>
      <point x="512" y="359" type="curve" smooth="yes"/>
      <point x="456" y="94" type="line" smooth="yes"/>
      <point x="449" y="61"/>
      <point x="468" y="50"/>
      <point x="479" y="50" type="curve" smooth="yes"/>
      <point x="508" y="50"/>
      <point x="532" y="61"/>
      <point x="562" y="78" type="curve"/>
    </contour>
    <contour>
      <point x="593" y="937" type="line" name="n35"/>
      <point x="448" y="766" type="line"/>
      <point x="330" y="766" type="line"/>
      <point x="252" y="937" type="line"/>
      <point x="335" y="937" type="line"/>
      <point x="405" y="843" type="line"/>
      <point x="510" y="937" type="line"/>
    </contour>
  </outline>
</glyph>
<glyph name="uni0223" format="2">
  <advance width="590"/>
  <unicode hex="0223"/>
  <outline>
    <contour>
      <point x="378" y="737" type="curve" smooth="yes" name="n00"/>
      <point x="480" y="737"/>
      <point x="559" y="673"/>
      <point x="559" y="580" type="curve" smooth="yes" name="n03"/>
      <point x="559" y="466"/>
      <point x="458" y="395"/>
      <point x="375" y="383" type="curve"/>
      <point x="450" y="365"/>
      <point x="516" y="309" name="hr01"/>
      <point x="516" y="222" type="curve" smooth="yes" name="n09"/>
      <point x="516" y="81"/>
      <point x="377" y="-12"/>
      <point x="235" y="-12" type="curve" smooth="yes" name="n12"/>
      <point x="114" y="-12"/>
      <point x="32" y="57"/>
      <point x="32" y="158" type="curve" smooth="yes" name="n15"/>
      <point x="32" y="283"/>
      <point x="137" y="365"/>
      <point x="247" y="383" type="curve"/>
      <point x="190" y="392"/>
      <point x="124" y="439" name="hr02"/>
      <point x="124" y="521" type="curve" smooth="yes" name="n21"/>
      <point x="124" y="660"/>
      <point x="253" y="737"/>
    </contour>
    <contour>
      <point x="419" y="577" type="curve" smooth="yes" name="n24"/>
      <point x="419" y="640"/>
      <point x="399" y="685"/>
      <point x="355" y="685" type="curve" smooth="yes" name="n27"/>
      <point x="305" y="685"/>
      <point x="264" y="615"/>
      <point x="264" y="524" type="curve" smooth="yes" name="n30"/>
      <point x="264" y="466"/>
      <point x="282" y="411"/>
      <point x="320" y="411" type="curve" smooth="yes" name="n33"/>
      <point x="371" y="411" name="hr03"/>
      <point x="419" y="484"/>
    </contour>
    <contour>
      <point x="250" y="41" type="curve" smooth="yes" name="n36"/>
      <point x="314" y="41"/>
      <point x="370" y="112"/>
      <point x="370" y="227" type="curve" smooth="yes" name="n39"/>
      <point x="370" y="304" name="hr04"/>
      <point x="341" y="356"/>
      <point x="299" y="356" type="curve" smooth="yes" name="n42"/>
      <point x="236" y="356"/>
      <point x="178" y="276"/>
      <point x="178" y="166" type="curve" smooth="yes" name="n45"/>
      <point x="178" y="98"/>
      <point x="208" y="41"/>
    </contour>
  </outline>
</glyph>
<glyph name="uni0225" format="2">
  <advance width="491"/>
  <unicode hex="0225"/>
  <outline>
    <contour>
      <point x="498" y="470" type="line"/>
      <point x="168" y="92" type="line"/>
      <point x="231" y="105" type="line"/>
      <point x="267" y="86"/>
      <point x="281" y="75"/>
      <point x="304" y="75" type="curve" smooth="yes" name="n05"/>
      <point x="326" y="75"/>
      <point x="352" y="91"/>
      <point x="361" y="106" type="curve"/>
      <point x="434" y="123" type="line"/>
      <point x="446" y="107"/>
      <point x="453" y="75"/>
      <point x="453" y="42" type="curve" smooth="yes" name="n12"/>
      <point x="453" y="-6"/>
      <point x="421" y="-85"/>
      <point x="343" y="-144" type="curve" name="n15"/>
      <point x="292" y="-144" type="line"/>
      <point x="339" y="-101"/>
      <point x="361" y="-51"/>
      <point x="361" y="-17" type="curve" smooth="yes" name="n19"/>
      <point x="361" y="-6"/>
      <point x="357" y="3"/>
      <point x="355" y="10" type="curve"/>
      <point x="332" y="-3"/>
      <point x="307" y="-11"/>
      <point x="280" y="-11" type="curve" smooth="yes" name="n25"/>
      <point x="212" y="-11"/>
      <point x="156" y="31"/>
      <point x="143" y="31" type="curve" smooth="yes"/>
      <point x="134" y="31"/>
      <point x="126" y="31"/>
      <point x="122" y="25" type="curve"/>
      <point x="85" y="-39" type="line"/>
      <point x="-16" y="16" type="line"/>
      <point x="314" y="396" type="line"/>
      <point x="251" y="383" type="line"/>
      <point x="216" y="402"/>
      <point x="196" y="415"/>
      <point x="173" y="415" type="curve" smooth="yes" name="n38"/>
      <point x="159" y="415"/>
      <point x="118" y="401"/>
      <point x="109" y="386" type="curve"/>
      <point x="168" y="323" type="line"/>
      <point x="162" y="312"/>
      <point x="125" y="284" name="hr01"/>
      <point x="92" y="284" type="curve" smooth="yes" name="n45"/>
      <point x="49" y="284"/>
      <point x="30" y="331"/>
      <point x="30" y="358" type="curve" smooth="yes"/>
      <point x="30" y="422"/>
      <point x="110" y="500"/>
      <point x="203" y="500" type="curve" smooth="yes" name="n51"/>
      <point x="271" y="500"/>
      <point x="327" y="457"/>
      <point x="340" y="457" type="curve" smooth="yes"/>
      <point x="349" y="457"/>
      <point x="356" y="458"/>
      <point x="361" y="463" type="curve"/>
      <point x="388" y="526" type="line"/>
    </contour>
  </outline>
</glyph>
<glyph name="uni0235" format="2">
  <advance width="617"/>
  <unicode hex="0235"/>
  <outline>
    <contour>
      <point x="631" y="127" type="curve" smooth="yes" name="n00"/>
      <point x="631" y="51"/>
      <point x="563" y="-12"/>
      <point x="461" y="-12" type="curve" smooth="yes" name="n03"/>
      <point x="396" y="-12"/>
      <point x="359" y="12"/>
      <point x="340" y="45" type="curve"/>
      <point x="299" y="9"/>
      <point x="270" y="-29"/>
      <point x="243" y="-78" type="curve"/>
      <point x="196" y="-44" type="line"/>
      <point x="232" y="13"/>
      <point x="251" y="38"/>
      <point x="329" y="110" type="curve"/>
      <point x="329" y="110"/>
      <point x="380" y="353"/>
      <point x="378" y="356" type="curve"/>
      <point x="388" y="405"/>
      <point x="375" y="421"/>
      <point x="354" y="421" type="curve" smooth="yes" name="n19"/>
      <point x="323" y="421"/>
      <point x="270" y="382"/>
      <point x="228" y="339" type="curve"/>
      <point x="157" y="0" type="line" name="n23"/>
      <point x="24" y="0" type="line"/>
      <point x="112" y="425" type="line"/>
      <point x="28" y="433" type="line"/>
      <point x="28" y="467" type="line"/>
      <point x="192" y="500" type="line"/>
      <point x="261" y="500" type="line"/>
      <point x="249" y="442" type="line"/>
      <point x="298" y="475"/>
      <point x="358" y="500"/>
      <point x="410" y="500" type="curve" smooth="yes" name="n33"/>
      <point x="510" y="500"/>
      <point x="535" y="454"/>
      <point x="519" y="369" type="curve" smooth="yes"/>
      <point x="484" y="186" type="line"/>
      <point x="503" y="192"/>
      <point x="523" y="199"/>
      <point x="543" y="199" type="curve" smooth="yes" name="n40"/>
      <point x="591" y="199"/>
      <point x="631" y="178"/>
    </contour>
    <contour>
      <point x="560" y="107" type="curve" smooth="yes" name="n43"/>
      <point x="563" y="131"/>
      <point x="549" y="148"/>
      <point x="531" y="148" type="curve" smooth="yes" name="n46"/>
      <point x="514" y="148"/>
      <point x="488" y="135"/>
      <point x="473" y="126" type="curve"/>
      <point x="471" y="116"/>
      <point x="464" y="79"/>
      <point x="464" y="79" type="curve"/>
      <point x="461" y="59"/>
      <point x="472" y="42"/>
      <point x="490" y="42" type="curve" smooth="yes" name="n55"/>
      <point x="528" y="42"/>
      <point x="556" y="76"/>
    </contour>
  </outline>
</glyph>
<glyph name="j.dotless" format="2">
  <advance width="317"/>
  <unicode hex="0237"/>
  <outline>
    <contour>
      <point x="275" y="500" type="line" name="n00"/>
      <point x="204" y="84" type="line"/>
      <point x="186" y="-17"/>
      <point x="96" y="-229" name="n03"/>
      <point x="-42" y="-229" type="curve" smooth="yes"/>
      <point x="-89" y="-229"/>
      <point x="-129" y="-204"/>
      <point x="-129" y="-171" type="curve" smooth="yes"/>
      <point x="-129" y="-146"/>
      <point x="-111" y="-132"/>
      <point x="-88" y="-117" type="curve"/>
      <point x="7" y="-142" type="line"/>
      <point x="25" y="-114"/>
      <point x="46" y="-55"/>
      <point x="55" y="-6" type="curve" smooth="yes"/>
      <point x="129" y="422" type="line"/>
      <point x="43" y="431" type="line"/>
      <point x="43" y="467" type="line"/>
      <point x="209" y="500" type="line"/>
    </contour>
  </outline>
</glyph>
<glyph name="uni0238" format="2">
  <advance width="817"/>
  <unicode hex="0238"/>
  <outline>
    <contour>
      <point x="569.839" y="737" type="curve"/>
      <point x="561.918" y="696.883"/>
      <point x="526.625" y="518.132"/>
      <point x="516.727" y="468" type="curve" name="n03"/>
      <point x="552.803" y="487"/>
      <point x="592.887" y="500"/>
      <point x="629.924" y="500" type="curve" smooth="yes" name="n06"/>
      <point x="735" y="500"/>
      <point x="786" y="395"/>
      <point x="786" y="302.576" type="curve" smooth="yes" name="n09"/>
      <point x="786" y="192"/>
      <point x="713" y="-12"/>
      <point x="479.075" y="-12" type="curve" smooth="yes"/>
      <point x="411.507" y="-12"/>
      <point x="369.419" y="5"/>
      <point x="321.319" y="36" type="curve"/>
      <point x="285.243" y="9"/>
      <point x="238.145" y="-12"/>
      <point x="187.189" y="-12" type="curve" smooth="yes"/>
      <point x="79.6522" y="-12"/>
      <point x="32" y="83"/>
      <point x="32" y="169" type="curve" smooth="yes"/>
      <point x="32" y="322"/>
      <point x="132.268" y="500"/>
      <point x="334.346" y="500" type="curve" smooth="yes" name="n24"/>
      <point x="359.398" y="500"/>
      <point x="379.653" y="493"/>
      <point x="392.467" y="488" type="curve"/>
      <point x="422.53" y="661" type="line"/>
      <point x="408.355" y="662.257"/>
      <point x="347.28" y="667.675"/>
      <point x="332.342" y="669" type="curve" name="n31"/>
      <point x="332.342" y="675.926"/>
      <point x="332.342" y="699.225"/>
      <point x="332.342" y="705" type="curve" name="n34"/>
      <point x="354.054" y="709.103"/>
      <point x="466.15" y="730.284"/>
      <point x="501.696" y="737" type="curve" name="n37"/>
      <point x="513.003" y="737"/>
      <point x="558.552" y="737"/>
    </contour>
    <contour>
      <point x="375.432" y="394" type="line" smooth="yes"/>
      <point x="376.434" y="399"/>
      <point x="356.392" y="443"/>
      <point x="332.342" y="443" type="curve" smooth="yes" name="n43"/>
      <point x="262.195" y="443"/>
      <point x="169" y="334"/>
      <point x="169" y="170.036" type="curve" smooth="yes" name="n46"/>
      <point x="169" y="94"/>
      <point x="189.042" y="59"/>
      <point x="224.122" y="59" type="curve" smooth="yes" name="n49"/>
      <point x="260.191" y="59"/>
      <point x="295.264" y="96"/>
      <point x="329.335" y="135" type="curve"/>
    </contour>
    <contour>
      <point x="647" y="311.576" type="curve" smooth="yes" name="n53"/>
      <point x="647" y="391" name="hr07"/>
      <point x="617.939" y="424"/>
      <point x="589.203" y="424" type="curve" smooth="yes" name="n56"/>
      <point x="566.832" y="424"/>
      <point x="529.755" y="404"/>
      <point x="499.692" y="378" type="curve"/>
      <point x="443.574" y="79" type="line"/>
      <point x="454.597" y="62"/>
      <point x="473.637" y="44"/>
      <point x="499.36" y="44" type="curve" smooth="yes" name="n63"/>
      <point x="570.841" y="44"/>
      <point x="647" y="183"/>
    </contour>
  </outline>
</glyph>
<glyph name="uni023A" format="2">
  <advance width="714"/>
  <unicode hex="023A"/>
  <outline>
    <contour>
      <point x="89" y="-44" type="line"/>
      <point x="620" y="763" type="line"/>
      <point x="700" y="713" type="line"/>
      <point x="162" y="-96" type="line"/>
    </contour>
    <contour>
      <point x="668" y="0" type="line" name="n04"/>
      <point x="391" y="0" type="line"/>
      <point x="391" y="50" type="line"/>
      <point x="412" y="52"/>
      <point x="437" y="55"/>
      <point x="437" y="55" type="curve"/>
      <point x="450" y="56"/>
      <point x="458" y="58"/>
      <point x="456" y="70" type="curve" smooth="yes"/>
      <point x="427" y="253" type="line" name="n13"/>
      <point x="238" y="253" type="line"/>
      <point x="139" y="70" type="line"/>
      <point x="133" y="60"/>
      <point x="139" y="56"/>
      <point x="152" y="55" type="curve"/>
      <point x="152" y="55"/>
      <point x="179" y="52"/>
      <point x="204" y="50" type="curve"/>
      <point x="204" y="0" type="line"/>
      <point x="-53" y="0" type="line"/>
      <point x="-53" y="50" type="line"/>
      <point x="5" y="56" type="line"/>
      <point x="375" y="687" type="line" name="n26"/>
      <point x="493" y="687" type="line"/>
      <point x="602" y="71" type="line" smooth="yes"/>
      <point x="604" y="58"/>
      <point x="607" y="56"/>
      <point x="622" y="54" type="curve"/>
      <point x="622" y="54"/>
      <point x="646" y="52"/>
      <point x="668" y="50" type="curve"/>
    </contour>
    <contour>
      <point x="416" y="310" type="line" name="n35"/>
      <point x="383" y="504" type="line"/>
      <point x="271" y="310" type="line"/>
    </contour>
  </outline>
</glyph>
<glyph name="uni0242" format="2">
  <advance width="423"/>
  <unicode hex="0242"/>
  <outline>
    <contour>
      <point x="412" y="383" type="curve" smooth="yes" name="n00"/>
      <point x="412" y="283"/>
      <point x="342" y="236"/>
      <point x="256" y="208" type="curve"/>
      <point x="228" y="62" type="line"/>
      <point x="226" y="54"/>
      <point x="229" y="50"/>
      <point x="237" y="50" type="curve"/>
      <point x="237" y="50"/>
      <point x="270" y="48"/>
      <point x="292" y="47" type="curve"/>
      <point x="292" y="0" type="line"/>
      <point x="19" y="0" type="line"/>
      <point x="19" y="47" type="line"/>
      <point x="44" y="48"/>
      <point x="80" y="50"/>
      <point x="80" y="50" type="curve"/>
      <point x="88" y="50"/>
      <point x="93" y="54"/>
      <point x="94" y="62" type="curve"/>
      <point x="126" y="223" type="line"/>
      <point x="224" y="245"/>
      <point x="277" y="297"/>
      <point x="277" y="396" type="curve" smooth="yes" name="n23"/>
      <point x="277" y="431"/>
      <point x="266" y="449"/>
      <point x="242" y="449" type="curve" smooth="yes" name="n26"/>
      <point x="229" y="449"/>
      <point x="209" y="445"/>
      <point x="202" y="439" type="curve"/>
      <point x="153" y="338" type="line"/>
      <point x="153" y="338"/>
      <point x="134" y="325"/>
      <point x="118" y="325" type="curve" smooth="yes"/>
      <point x="84" y="325"/>
      <point x="59" y="356"/>
      <point x="59" y="397" type="curve" smooth="yes"/>
      <point x="59" y="438"/>
      <point x="111" y="500"/>
      <point x="231" y="500" type="curve" smooth="yes" name="n39"/>
      <point x="357" y="500"/>
      <point x="412" y="448"/>
    </contour>
  </outline>
</glyph>
<glyph name="uni0248" format="2">
  <advance width="509"/>
  <unicode hex="0248"/>
  <outline>
    <contour>
      <point x="549" y="621" type="line"/>
      <point x="481" y="615" type="line"/>
      <point x="472" y="615"/>
      <point x="469" y="609"/>
      <point x="467" y="600" type="curve"/>
      <point x="427" y="384" type="line"/>
      <point x="536" y="384" type="line" name="n06"/>
      <point x="536" y="321" type="line" name="n07"/>
      <point x="415" y="321" type="line"/>
      <point x="403" y="257" type="line" smooth="yes"/>
      <point x="374" y="99"/>
      <point x="330" y="-16"/>
      <point x="133" y="-16" type="curve" smooth="yes" name="n12"/>
      <point x="44" y="-16"/>
      <point x="-6" y="11"/>
      <point x="-20" y="18" type="curve"/>
      <point x="14" y="192" type="line" name="hr01"/>
      <point x="96" y="192" type="line" name="n17"/>
      <point x="96" y="66" type="line" smooth="yes"/>
      <point x="96" y="55"/>
      <point x="125" y="46" name="hr02"/>
      <point x="140" y="46" type="curve" smooth="yes" name="n21"/>
      <point x="198" y="46"/>
      <point x="232" y="112"/>
      <point x="258" y="249" type="curve" smooth="yes"/>
      <point x="272" y="321" type="line"/>
      <point x="161" y="321" type="line"/>
      <point x="161" y="384" type="line"/>
      <point x="284" y="384" type="line"/>
      <point x="324" y="601" type="line" smooth="yes"/>
      <point x="326" y="613"/>
      <point x="319" y="615"/>
      <point x="306" y="616" type="curve"/>
      <point x="306" y="616"/>
      <point x="275" y="618"/>
      <point x="247" y="621" type="curve"/>
      <point x="247" y="671" type="line" name="n36"/>
      <point x="549" y="671" type="line"/>
    </contour>
  </outline>
</glyph>
<glyph name="uni024B" format="2">
  <advance width="569"/>
  <unicode hex="024B"/>
  <outline>
    <contour>
      <point x="616.399" y="-135.001" type="curve"/>
      <point x="616.399" y="-192.01"/>
      <point x="521.429" y="-229" name="n02"/>
      <point x="477.429" y="-229" type="curve" smooth="yes"/>
      <point x="364.423" y="-229"/>
      <point x="292.412" y="-184.384"/>
      <point x="292.39" y="-83.6624" type="curve" smooth="yes" name="n06"/>
      <point x="292.387" y="-65.2514"/>
      <point x="294.828" y="-44.7574"/>
      <point x="300" y="-22" type="curve" smooth="yes"/>
      <point x="310" y="22" type="line"/>
      <point x="270" y="-1"/>
      <point x="229" y="-14"/>
      <point x="185.934" y="-14" type="curve" smooth="yes" name="n13"/>
      <point x="86" y="-14"/>
      <point x="34" y="56"/>
      <point x="34" y="164.555" type="curve" smooth="yes" name="n16"/>
      <point x="34" y="321"/>
      <point x="142" y="500"/>
      <point x="331.036" y="500" type="curve" smooth="yes" name="n19"/>
      <point x="371" y="500"/>
      <point x="402" y="492"/>
      <point x="425" y="482" type="curve"/>
      <point x="441" y="500" type="line"/>
      <point x="538" y="500" type="line"/>
      <point x="434" y="-22" type="line" smooth="yes"/>
      <point x="429.122" y="-46.3896"/>
      <point x="426.429" y="-73.3286"/>
      <point x="426.429" y="-96.1757" type="curve" smooth="yes" name="n28"/>
      <point x="426.429" y="-143.637"/>
      <point x="438.05" y="-165.354"/>
      <point x="458" y="-177" type="curve"/>
      <point x="555" y="-77" type="line"/>
      <point x="590.115" y="-77"/>
      <point x="616.399" y="-105.01"/>
    </contour>
    <contour>
      <point x="383" y="390" type="line" smooth="yes"/>
      <point x="385.061" y="400.306"/>
      <point x="365" y="445"/>
      <point x="351" y="445" type="curve" smooth="yes" name="n38"/>
      <point x="266" y="445"/>
      <point x="171" y="335"/>
      <point x="171" y="165.647" type="curve" smooth="yes" name="n41"/>
      <point x="171" y="103"/>
      <point x="184" y="56"/>
      <point x="234.483" y="56" type="curve" smooth="yes" name="n44"/>
      <point x="273" y="56"/>
      <point x="304.954" y="83.3592"/>
      <point x="328" y="115" type="curve"/>
    </contour>
  </outline>
</glyph>
<glyph name="uni024C" format="2">
  <advance width="683"/>
  <unicode hex="024C"/>
  <outline>
    <contour>
      <point x="657" y="3" type="line" name="n00"/>
      <point x="627" y="-10"/>
      <point x="599" y="-16" name="hr01"/>
      <point x="563" y="-16" type="curve" smooth="yes" name="n03"/>
      <point x="440" y="-16"/>
      <point x="411" y="42"/>
      <point x="389" y="147" type="curve" smooth="yes"/>
      <point x="376" y="205"/>
      <point x="362" y="292"/>
      <point x="286" y="292" type="curve" smooth="yes" name="n09"/>
      <point x="278" y="292"/>
      <point x="265" y="291"/>
      <point x="254" y="291" type="curve"/>
      <point x="212" y="70" type="line" smooth="yes"/>
      <point x="210" y="59"/>
      <point x="215" y="56"/>
      <point x="228" y="55" type="curve"/>
      <point x="228" y="55"/>
      <point x="259" y="52"/>
      <point x="289" y="50" type="curve"/>
      <point x="289" y="0" type="line"/>
      <point x="-13" y="0" type="line"/>
      <point x="-13" y="50" type="line"/>
      <point x="16" y="52"/>
      <point x="46" y="54"/>
      <point x="46" y="54" type="curve"/>
      <point x="58" y="55"/>
      <point x="66" y="58"/>
      <point x="69" y="71" type="curve"/>
      <point x="111" y="290" type="line"/>
      <point x="11" y="290" type="line"/>
      <point x="11" y="354" type="line" name="hr02"/>
      <point x="124" y="354" type="line" name="n32"/>
      <point x="171" y="601" type="line"/>
      <point x="174" y="612"/>
      <point x="167" y="615"/>
      <point x="154" y="616" type="curve"/>
      <point x="154" y="616"/>
      <point x="124" y="618"/>
      <point x="96" y="621" type="curve"/>
      <point x="96" y="671" type="line"/>
      <point x="385" y="671" type="line" smooth="yes" name="n41"/>
      <point x="519" y="671"/>
      <point x="623" y="632"/>
      <point x="623" y="521" type="curve" smooth="yes" name="n44"/>
      <point x="623" y="416"/>
      <point x="536" y="350"/>
      <point x="423" y="317" type="curve"/>
      <point x="500" y="282"/>
      <point x="510" y="232"/>
      <point x="529" y="157" type="curve" smooth="yes"/>
      <point x="547" y="87"/>
      <point x="556" y="50"/>
      <point x="657" y="50" type="curve" name="n53"/>
    </contour>
    <contour>
      <point x="468" y="506" type="curve" smooth="yes" name="n54"/>
      <point x="468" y="603"/>
      <point x="372" y="615"/>
      <point x="341" y="613" type="curve" smooth="yes" name="n57"/>
      <point x="338.163" y="612.773"/>
      <point x="319.404" y="611.272"/>
      <point x="316" y="611" type="curve"/>
      <point x="267" y="352" type="line"/>
      <point x="275" y="352"/>
      <point x="292" y="353"/>
      <point x="292" y="353" type="curve" name="n64"/>
      <point x="368" y="356"/>
      <point x="468" y="392"/>
    </contour>
  </outline>
</glyph>
<glyph name="uni024E" format="2">
  <advance width="681"/>
  <unicode hex="024E"/>
  <outline>
    <contour>
      <point x="753" y="621" type="line"/>
      <point x="689" y="616" type="line"/>
      <point x="682" y="615"/>
      <point x="674" y="608"/>
      <point x="671" y="604" type="curve" smooth="yes"/>
      <point x="618" y="536" type="line"/>
      <point x="670" y="536" type="line" name="n06"/>
      <point x="670" y="482" type="line" name="n07"/>
      <point x="575" y="482" type="line"/>
      <point x="417" y="281" type="line"/>
      <point x="375" y="70" type="line"/>
      <point x="372" y="58"/>
      <point x="379" y="56"/>
      <point x="393" y="55" type="curve"/>
      <point x="393" y="55"/>
      <point x="422" y="53"/>
      <point x="450" y="50" type="curve"/>
      <point x="450" y="0" type="line" name="n17"/>
      <point x="148" y="0" type="line"/>
      <point x="148" y="50" type="line"/>
      <point x="175" y="53"/>
      <point x="205" y="55"/>
      <point x="205" y="55" type="curve"/>
      <point x="218" y="56"/>
      <point x="227" y="58"/>
      <point x="230" y="71" type="curve"/>
      <point x="271" y="273" type="line"/>
      <point x="201" y="482" type="line"/>
      <point x="123" y="482" type="line"/>
      <point x="123" y="536" type="line"/>
      <point x="182" y="536" type="line"/>
      <point x="159" y="605" type="line"/>
      <point x="156" y="616"/>
      <point x="146" y="616"/>
      <point x="134" y="617" type="curve"/>
      <point x="134" y="617"/>
      <point x="107" y="619"/>
      <point x="84" y="621" type="curve"/>
      <point x="84" y="671" type="line"/>
      <point x="385" y="671" type="line"/>
      <point x="385" y="621" type="line"/>
      <point x="355" y="619"/>
      <point x="323" y="617"/>
      <point x="323" y="617" type="curve"/>
      <point x="312" y="617"/>
      <point x="302" y="614"/>
      <point x="307" y="601" type="curve"/>
      <point x="328" y="536" type="line"/>
      <point x="491" y="536" type="line"/>
      <point x="541" y="602" type="line"/>
      <point x="545" y="607"/>
      <point x="544" y="616"/>
      <point x="529" y="617" type="curve" smooth="yes"/>
      <point x="470" y="621" type="line"/>
      <point x="470" y="671" type="line"/>
      <point x="753" y="671" type="line"/>
    </contour>
    <contour>
      <point x="345" y="482" type="line"/>
      <point x="376" y="384" type="line"/>
      <point x="450" y="482" type="line"/>
    </contour>
  </outline>
</glyph>
<glyph name="uni0253" format="2">
  <advance width="532"/>
  <unicode hex="0253"/>
  <outline>
    <contour>
      <point x="501" y="311" type="curve" smooth="yes"/>
      <point x="501" y="192"/>
      <point x="428" y="-12"/>
      <point x="199" y="-12" type="curve" smooth="yes"/>
      <point x="127" y="-12"/>
      <point x="18" y="38"/>
      <point x="18" y="38" type="curve"/>
      <point x="35.5733" y="130.552"/>
      <point x="93.9633" y="438.074"/>
      <point x="108" y="512" type="curve" smooth="yes" name="n09"/>
      <point x="117" y="558"/>
      <point x="127" y="581"/>
      <point x="153" y="625" type="curve" smooth="yes"/>
      <point x="203" y="709"/>
      <point x="292" y="737"/>
      <point x="389" y="737" type="curve" smooth="yes"/>
      <point x="457" y="737"/>
      <point x="490" y="702"/>
      <point x="484" y="669" type="curve" smooth="yes" name="n18"/>
      <point x="475" y="623"/>
      <point x="414" y="609"/>
      <point x="383" y="603" type="curve"/>
      <point x="374.86" y="613.798"/>
      <point x="334" y="668"/>
      <point x="334" y="668" type="curve"/>
      <point x="298" y="656"/>
      <point x="275" y="616"/>
      <point x="259" y="574" type="curve" name="n27"/>
      <point x="246" y="536"/>
      <point x="232" y="468"/>
      <point x="232" y="468" type="curve" name="n30"/>
      <point x="268" y="487"/>
      <point x="308" y="500" name="hr02"/>
      <point x="343" y="500" type="curve" smooth="yes" name="n33"/>
      <point x="450" y="500"/>
      <point x="501" y="395"/>
    </contour>
    <contour>
      <point x="362" y="307" type="curve" smooth="yes"/>
      <point x="362" y="391"/>
      <point x="333" y="424"/>
      <point x="310" y="424" type="curve" smooth="yes" name="n39"/>
      <point x="282" y="424"/>
      <point x="245" y="404"/>
      <point x="215" y="378" type="curve" name="n42"/>
      <point x="198.916" y="292.122"/>
      <point x="163.289" y="101.901"/>
      <point x="159" y="79" type="curve" name="n45"/>
      <point x="170" y="62" name="hr03"/>
      <point x="189" y="44"/>
      <point x="220" y="44" type="curve" smooth="yes"/>
      <point x="286" y="44"/>
      <point x="362" y="183"/>
    </contour>
  </outline>
</glyph>
<glyph name="uni0256" format="2">
  <advance width="565"/>
  <unicode hex="0256"/>
  <outline>
    <contour>
      <point x="590" y="-154" type="curve" smooth="yes"/>
      <point x="590" y="-186"/>
      <point x="538" y="-229" name="n02"/>
      <point x="471" y="-229" type="curve" smooth="yes"/>
      <point x="343" y="-229"/>
      <point x="296" y="-151"/>
      <point x="296" y="-63" type="curve" smooth="yes" name="n06"/>
      <point x="296" y="-49"/>
      <point x="309" y="26"/>
      <point x="309" y="26" type="curve"/>
      <point x="273" y="0"/>
      <point x="239" y="-12"/>
      <point x="196" y="-12" type="curve" smooth="yes" name="n12"/>
      <point x="80" y="-12"/>
      <point x="32" y="83"/>
      <point x="32" y="169" type="curve" smooth="yes" name="n15"/>
      <point x="32" y="322"/>
      <point x="133" y="500"/>
      <point x="335" y="500" type="curve" smooth="yes" name="n18"/>
      <point x="360" y="500"/>
      <point x="380" y="492"/>
      <point x="393" y="488" type="curve"/>
      <point x="423" y="661" type="line"/>
      <point x="333" y="669" type="line"/>
      <point x="333" y="705" type="line"/>
      <point x="502" y="737" type="line" name="n25"/>
      <point x="570" y="737" type="line"/>
      <point x="438" y="-6" type="line" smooth="yes"/>
      <point x="431" y="-42"/>
      <point x="421" y="-78"/>
      <point x="421" y="-100" type="curve" smooth="yes" name="n30"/>
      <point x="421" y="-126"/>
      <point x="438" y="-154"/>
      <point x="461" y="-154" type="curve"/>
      <point x="524" y="-86" type="line"/>
      <point x="554" y="-91"/>
      <point x="590" y="-105"/>
    </contour>
    <contour>
      <point x="376" y="394" type="line" smooth="yes"/>
      <point x="377" y="399"/>
      <point x="357" y="443"/>
      <point x="333" y="443" type="curve" smooth="yes" name="n40"/>
      <point x="263" y="443"/>
      <point x="170" y="334"/>
      <point x="170" y="175" type="curve" smooth="yes" name="n43"/>
      <point x="170" y="94"/>
      <point x="190" y="59"/>
      <point x="227" y="59" type="curve" smooth="yes" name="n46"/>
      <point x="261" y="59"/>
      <point x="296" y="96"/>
      <point x="330" y="135" type="curve"/>
    </contour>
  </outline>
</glyph>
<glyph name="uni0258" format="2">
  <advance width="539"/>
  <unicode hex="0258"/>
  <outline>
    <contour>
      <point x="508" y="299" type="curve" smooth="yes"/>
      <point x="508" y="144"/>
      <point x="386" y="-12"/>
      <point x="193" y="-12" type="curve" smooth="yes" name="n03"/>
      <point x="106" y="-12"/>
      <point x="44" y="16"/>
      <point x="5" y="72" type="curve"/>
      <point x="25" y="165" type="line"/>
      <point x="94" y="78"/>
      <point x="161" y="51"/>
      <point x="207" y="51" type="curve" smooth="yes" name="n10"/>
      <point x="305" y="51"/>
      <point x="340" y="164"/>
      <point x="357" y="254" type="curve"/>
      <point x="294" y="220"/>
      <point x="258" y="209"/>
      <point x="183" y="208" type="curve" smooth="yes" name="n16"/>
      <point x="105" y="206"/>
      <point x="50" y="242"/>
      <point x="50" y="299" type="curve" smooth="yes" name="n19"/>
      <point x="50" y="424"/>
      <point x="153" y="500"/>
      <point x="307" y="500" type="curve" smooth="yes" name="n22"/>
      <point x="447" y="500"/>
      <point x="508" y="404"/>
    </contour>
    <contour>
      <point x="364" y="330" type="curve"/>
      <point x="360" y="374"/>
      <point x="356" y="446"/>
      <point x="294" y="446" type="curve" smooth="yes" name="n28"/>
      <point x="228" y="446"/>
      <point x="187" y="385"/>
      <point x="187" y="319" type="curve" smooth="yes" name="n31"/>
      <point x="187" y="287"/>
      <point x="211" y="278"/>
      <point x="224" y="278" type="curve" smooth="yes" name="n34"/>
      <point x="255" y="278"/>
      <point x="292" y="289"/>
    </contour>
  </outline>
</glyph>
<glyph name="uni025E" format="2">
  <advance width="544"/>
  <unicode hex="025E"/>
  <outline>
    <contour>
      <point x="513" y="381" type="curve" smooth="yes" name="n00"/>
      <point x="513" y="319"/>
      <point x="445" y="271"/>
      <point x="389" y="248" type="curve"/>
      <point x="442" y="237"/>
      <point x="480" y="213" name="hr01"/>
      <point x="480" y="160" type="curve" smooth="yes" name="n06"/>
      <point x="480" y="35"/>
      <point x="347" y="-12"/>
      <point x="221" y="-12" type="curve" smooth="yes" name="n09"/>
      <point x="82" y="-12"/>
      <point x="32" y="72"/>
      <point x="32" y="176" type="curve" smooth="yes" name="n12"/>
      <point x="32" y="349"/>
      <point x="152" y="500"/>
      <point x="346" y="500" type="curve" smooth="yes" name="n15"/>
      <point x="437" y="500"/>
      <point x="513" y="457" name="hr02"/>
    </contour>
    <contour>
      <point x="375" y="384" type="curve" smooth="yes" name="n18"/>
      <point x="375" y="425"/>
      <point x="363" y="451"/>
      <point x="322" y="451" type="curve" smooth="yes" name="n21"/>
      <point x="218" y="451"/>
      <point x="132" y="303"/>
      <point x="132" y="188" type="curve" smooth="yes" name="n24"/>
      <point x="132" y="122"/>
      <point x="157" y="44"/>
      <point x="234" y="44" type="curve" smooth="yes" name="n27"/>
      <point x="274" y="44"/>
      <point x="343" y="92"/>
      <point x="343" y="161" type="curve" smooth="yes" name="n30"/>
      <point x="343" y="226"/>
      <point x="281" y="214"/>
      <point x="236" y="214" type="curve" name="n33"/>
      <point x="236" y="264" type="line" name="n34"/>
      <point x="305" y="265"/>
      <point x="375" y="307"/>
    </contour>
  </outline>
</glyph>
<glyph name="uni0266" format="2">
  <advance width="564"/>
  <unicode hex="0266"/>
  <outline>
    <contour>
      <point x="579" y="645" type="curve" smooth="yes"/>
      <point x="579" y="605"/>
      <point x="547" y="572"/>
      <point x="506" y="572" type="curve" smooth="yes"/>
      <point x="484" y="572"/>
      <point x="463" y="581"/>
      <point x="463" y="581" type="curve"/>
      <point x="445" y="665" type="line"/>
      <point x="437" y="672"/>
      <point x="407" y="674"/>
      <point x="397" y="674" type="curve" smooth="yes" name="n10"/>
      <point x="346" y="674"/>
      <point x="283" y="628"/>
      <point x="259" y="516" type="curve" smooth="yes"/>
      <point x="245" y="454" type="line"/>
      <point x="285" y="479"/>
      <point x="338" y="500"/>
      <point x="397" y="500" type="curve" smooth="yes" name="n17"/>
      <point x="497" y="500"/>
      <point x="529" y="443"/>
      <point x="512" y="359" type="curve" smooth="yes"/>
      <point x="456" y="94" type="line" smooth="yes"/>
      <point x="449" y="61"/>
      <point x="468" y="50"/>
      <point x="479" y="50" type="curve" smooth="yes"/>
      <point x="508" y="50"/>
      <point x="532" y="61"/>
      <point x="562" y="78" type="curve"/>
      <point x="563" y="28" type="line"/>
      <point x="513" y="4"/>
      <point x="462" y="-12" name="n30"/>
      <point x="409" y="-12" type="curve" smooth="yes"/>
      <point x="362" y="-12"/>
      <point x="305" y="6"/>
      <point x="316" y="58" type="curve" smooth="yes"/>
      <point x="376" y="349" type="line" smooth="yes"/>
      <point x="386" y="397"/>
      <point x="362" y="424"/>
      <point x="342" y="424" type="curve" smooth="yes" name="n38"/>
      <point x="312" y="424"/>
      <point x="264" y="392"/>
      <point x="223" y="350" type="curve"/>
      <point x="150" y="0" type="line" name="n42"/>
      <point x="17" y="0" type="line"/>
      <point x="126" y="519" type="line" smooth="yes"/>
      <point x="137" y="572"/>
      <point x="212" y="737"/>
      <point x="402" y="737" type="curve" smooth="yes" name="n47"/>
      <point x="529" y="737"/>
      <point x="579" y="703"/>
    </contour>
  </outline>
</glyph>
<glyph name="uni0267" format="2">
  <advance width="564"/>
  <unicode hex="0267"/>
  <outline>
    <contour>
      <point x="579" y="645" type="curve" smooth="yes"/>
      <point x="579" y="605"/>
      <point x="547" y="572"/>
      <point x="506" y="572" type="curve" smooth="yes"/>
      <point x="484" y="572"/>
      <point x="463" y="581"/>
      <point x="463" y="581" type="curve"/>
      <point x="445" y="665" type="line"/>
      <point x="437" y="672"/>
      <point x="407" y="674"/>
      <point x="397" y="674" type="curve" smooth="yes" name="n10"/>
      <point x="346" y="674"/>
      <point x="283" y="628"/>
      <point x="259" y="516" type="curve" smooth="yes"/>
      <point x="245" y="454" type="line"/>
      <point x="285" y="479"/>
      <point x="338" y="500"/>
      <point x="397" y="500" type="curve" smooth="yes" name="n17"/>
      <point x="497" y="500"/>
      <point x="529" y="443"/>
      <point x="512" y="359" type="curve" smooth="yes"/>
      <point x="435" y="-15" type="line" smooth="yes"/>
      <point x="409" y="-140"/>
      <point x="315" y="-229"/>
      <point x="169" y="-229" type="curve" smooth="yes" name="n24"/>
      <point x="95" y="-229"/>
      <point x="65" y="-188"/>
      <point x="65" y="-149" type="curve" smooth="yes"/>
      <point x="65" y="-105"/>
      <point x="109" y="-83"/>
      <point x="152" y="-78" type="curve"/>
      <point x="213" y="-166" type="line" name="n31"/>
      <point x="260" y="-157"/>
      <point x="282" y="-108"/>
      <point x="294" y="-49" type="curve"/>
      <point x="294" y="-49"/>
      <point x="379" y="343"/>
      <point x="376" y="349" type="curve"/>
      <point x="386" y="397"/>
      <point x="362" y="424"/>
      <point x="342" y="424" type="curve" smooth="yes" name="n40"/>
      <point x="312" y="424"/>
      <point x="264" y="392"/>
      <point x="223" y="350" type="curve"/>
      <point x="150" y="0" type="line" name="n44"/>
      <point x="17" y="0" type="line"/>
      <point x="126" y="519" type="line" smooth="yes"/>
      <point x="137" y="572"/>
      <point x="212" y="737"/>
      <point x="402" y="737" type="curve" smooth="yes" name="n49"/>
      <point x="529" y="737"/>
      <point x="579" y="703"/>
    </contour>
  </outline>
</glyph>
<glyph name="uni0269" format="2">
  <advance width="349"/>
  <unicode hex="0269"/>
  <outline>
    <contour>
      <point x="344" y="85" type="curve" smooth="yes"/>
      <point x="344" y="19"/>
      <point x="265" y="-12"/>
      <point x="176" y="-12" type="curve" smooth="yes" name="n03"/>
      <point x="78" y="-12"/>
      <point x="36" y="45"/>
      <point x="46" y="94" type="curve" smooth="yes"/>
      <point x="109" y="422" type="line"/>
      <point x="26" y="431" type="line"/>
      <point x="26" y="467" type="line"/>
      <point x="189" y="500" type="line" name="n10"/>
      <point x="258" y="500" type="line"/>
      <point x="181" y="106" type="line" smooth="yes"/>
      <point x="175" y="75"/>
      <point x="196" y="60"/>
      <point x="225" y="56" type="curve" name="n15"/>
      <point x="269" y="145" type="line"/>
      <point x="319" y="141"/>
      <point x="344" y="112"/>
    </contour>
  </outline>
</glyph>
<glyph name="uni026A" format="2">
  <advance width="298"/>
  <unicode hex="026A"/>
  <outline>
    <contour>
      <point x="326" y="440" type="line"/>
      <point x="271" y="435" type="line" smooth="yes"/>
      <point x="262" y="434"/>
      <point x="256" y="429"/>
      <point x="253" y="416" type="curve" smooth="yes"/>
      <point x="179" y="72" type="line" smooth="yes"/>
      <point x="176" y="58"/>
      <point x="183" y="54"/>
      <point x="203" y="51" type="curve"/>
      <point x="245" y="47" type="line"/>
      <point x="245" y="0" type="line" name="n10"/>
      <point x="-27" y="0" type="line"/>
      <point x="-27" y="47" type="line"/>
      <point x="-8" y="49"/>
      <point x="5" y="51"/>
      <point x="15" y="51" type="curve"/>
      <point x="37" y="53"/>
      <point x="43" y="58"/>
      <point x="45" y="72" type="curve"/>
      <point x="120" y="416" type="line" smooth="yes"/>
      <point x="123" y="429"/>
      <point x="116" y="435"/>
      <point x="96" y="437" type="curve"/>
      <point x="96" y="437"/>
      <point x="72" y="439"/>
      <point x="54" y="440" type="curve"/>
      <point x="54" y="488" type="line" name="n26"/>
      <point x="326" y="488" type="line"/>
    </contour>
  </outline>
</glyph>
<glyph name="uni026B" format="2">
  <advance width="334"/>
  <unicode hex="026B"/>
  <outline>
    <contour>
      <point x="408" y="427" type="line"/>
      <point x="378" y="358"/>
      <point x="331" y="303" name="hr01"/>
      <point x="263" y="303" type="curve" smooth="yes" name="n03"/>
      <point x="257" y="303"/>
      <point x="251" y="303"/>
      <point x="245" y="304" type="curve"/>
      <point x="206" y="102" type="line" smooth="yes"/>
      <point x="202" y="79"/>
      <point x="207" y="53"/>
      <point x="231" y="53" type="curve" smooth="yes" name="n10"/>
      <point x="248" y="53"/>
      <point x="287" y="62"/>
      <point x="333" y="83" type="curve"/>
      <point x="333" y="29" type="line"/>
      <point x="286" y="4"/>
      <point x="226" y="-12"/>
      <point x="174" y="-12" type="curve" smooth="yes" name="n17"/>
      <point x="108" y="-12"/>
      <point x="69" y="18"/>
      <point x="69" y="64" type="curve" smooth="yes"/>
      <point x="69" y="75"/>
      <point x="70" y="87"/>
      <point x="73" y="100" type="curve"/>
      <point x="120" y="345" type="line"/>
      <point x="107" y="348"/>
      <point x="94" y="351" name="hr02"/>
      <point x="81" y="351" type="curve" smooth="yes" name="n27"/>
      <point x="60" y="351"/>
      <point x="36" y="330"/>
      <point x="28" y="303" type="curve" name="hr03"/>
      <point x="-26" y="303" type="line"/>
      <point x="4" y="372"/>
      <point x="52" y="427" name="hr04"/>
      <point x="119" y="427" type="curve" smooth="yes" name="n34"/>
      <point x="125" y="427"/>
      <point x="130" y="427"/>
      <point x="136" y="426" type="curve"/>
      <point x="182" y="661" type="line"/>
      <point x="94" y="669" type="line"/>
      <point x="94" y="705" type="line"/>
      <point x="263" y="737" type="line" name="n41"/>
      <point x="329" y="737" type="line"/>
      <point x="261" y="385" type="line"/>
      <point x="274" y="382"/>
      <point x="288" y="379" name="hr05"/>
      <point x="301" y="379" type="curve" smooth="yes" name="n46"/>
      <point x="322" y="379"/>
      <point x="346" y="400"/>
      <point x="354" y="427" type="curve" name="hr06"/>
    </contour>
  </outline>
</glyph>
<glyph name="uni026D" format="2">
  <advance width="306"/>
  <unicode hex="026D"/>
  <outline>
    <contour>
      <point x="305" y="-168" type="curve" smooth="yes" name="n00"/>
      <point x="305" y="-211"/>
      <point x="253" y="-229" name="n02"/>
      <point x="208" y="-229" type="curve" smooth="yes"/>
      <point x="61" y="-229"/>
      <point x="25" y="-138"/>
      <point x="25" y="-44" type="curve" smooth="yes" name="n06"/>
      <point x="25" y="-7"/>
      <point x="30" y="33"/>
      <point x="37" y="70" type="curve" smooth="yes"/>
      <point x="152" y="661" type="line"/>
      <point x="64" y="669" type="line"/>
      <point x="64" y="705" type="line"/>
      <point x="233" y="737" type="line" name="n13"/>
      <point x="299" y="737" type="line"/>
      <point x="154" y="-13" type="line" smooth="yes"/>
      <point x="151" y="-30"/>
      <point x="149" y="-55" name="hr01"/>
      <point x="149" y="-80" type="curve" smooth="yes" name="n18"/>
      <point x="149" y="-110"/>
      <point x="149" y="-152"/>
      <point x="172" y="-159" type="curve"/>
      <point x="249" y="-89" type="line"/>
      <point x="292" y="-106"/>
      <point x="305" y="-134" name="hr02"/>
    </contour>
  </outline>
</glyph>
<glyph name="uni026E" format="2">
  <advance width="641"/>
  <unicode hex="026E"/>
  <outline>
    <contour>
      <point x="670" y="447" type="line"/>
      <point x="392" y="194" type="line" name="n01"/>
      <point x="504" y="181"/>
      <point x="573" y="117"/>
      <point x="573" y="13" type="curve" smooth="yes" name="n04"/>
      <point x="573" y="-132"/>
      <point x="425" y="-229"/>
      <point x="267" y="-229" type="curve" smooth="yes" name="n07"/>
      <point x="150" y="-229"/>
      <point x="63" y="-189"/>
      <point x="63" y="-115" type="curve" smooth="yes"/>
      <point x="63" y="-72"/>
      <point x="102" y="-38"/>
      <point x="143" y="-38" type="curve" smooth="yes"/>
      <point x="159" y="-38"/>
      <point x="182" y="-46"/>
      <point x="200" y="-53" type="curve"/>
      <point x="224" y="-147" type="line"/>
      <point x="241" y="-172"/>
      <point x="270" y="-168"/>
      <point x="278" y="-168" type="curve" smooth="yes" name="n20"/>
      <point x="348" y="-168"/>
      <point x="436" y="-82"/>
      <point x="436" y="13" type="curve" smooth="yes" name="n23"/>
      <point x="436" y="75"/>
      <point x="381" y="133"/>
      <point x="324" y="144" type="curve" name="n26"/>
      <point x="296" y="106" type="line"/>
      <point x="228" y="164" type="line"/>
      <point x="485" y="390" type="line"/>
      <point x="458" y="389"/>
      <point x="421" y="393"/>
      <point x="400" y="393" type="curve" smooth="yes" name="n32"/>
      <point x="348" y="393"/>
      <point x="317" y="416" name="hr01"/>
      <point x="289" y="416" type="curve" smooth="yes" name="n35"/>
      <point x="276" y="416"/>
      <point x="246" y="411"/>
      <point x="234" y="398" type="curve"/>
      <point x="176" y="102" type="line" smooth="yes"/>
      <point x="172" y="79"/>
      <point x="177" y="53"/>
      <point x="202" y="53" type="curve" smooth="yes" name="n42"/>
      <point x="218" y="53"/>
      <point x="257" y="62"/>
      <point x="304" y="83" type="curve"/>
      <point x="304" y="29" type="line"/>
      <point x="256" y="4"/>
      <point x="196" y="-12"/>
      <point x="144" y="-12" type="curve" smooth="yes" name="n49"/>
      <point x="78" y="-12"/>
      <point x="39" y="18"/>
      <point x="39" y="64" type="curve" smooth="yes"/>
      <point x="39" y="75"/>
      <point x="40" y="87"/>
      <point x="43" y="100" type="curve"/>
      <point x="152" y="661" type="line"/>
      <point x="64" y="669" type="line"/>
      <point x="64" y="705" type="line"/>
      <point x="233" y="737" type="line" name="n59"/>
      <point x="299" y="737" type="line"/>
      <point x="251" y="487" type="line"/>
      <point x="272" y="495"/>
      <point x="295" y="500"/>
      <point x="318" y="500" type="curve" smooth="yes" name="n64"/>
      <point x="394" y="500"/>
      <point x="464" y="449"/>
      <point x="512" y="449" type="curve" smooth="yes"/>
      <point x="516" y="449"/>
      <point x="532" y="453"/>
      <point x="535" y="454" type="curve"/>
      <point x="580" y="516" type="line"/>
    </contour>
  </outline>
</glyph>
<glyph name="uni0271" format="2">
  <advance width="824"/>
  <unicode hex="0271"/>
  <outline>
    <contour>
      <point x="775" y="396" type="curve" smooth="yes"/>
      <point x="775" y="387"/>
      <point x="774" y="379"/>
      <point x="772" y="369" type="curve" smooth="yes"/>
      <point x="711" y="81" type="line" smooth="yes"/>
      <point x="684" y="-49"/>
      <point x="622" y="-232" name="n06"/>
      <point x="429" y="-232" type="curve" smooth="yes"/>
      <point x="384" y="-232"/>
      <point x="344" y="-214"/>
      <point x="344" y="-171" type="curve" smooth="yes"/>
      <point x="344" y="-135"/>
      <point x="378" y="-118"/>
      <point x="424" y="-102" type="curve"/>
      <point x="502" y="-159" type="line"/>
      <point x="530" y="-130"/>
      <point x="548" y="-71"/>
      <point x="562" y="-6" type="curve"/>
      <point x="630" y="328" type="line" smooth="yes"/>
      <point x="643" y="390"/>
      <point x="637" y="422"/>
      <point x="611" y="422" type="curve" smooth="yes" name="n21"/>
      <point x="552" y="422"/>
      <point x="508" y="363"/>
      <point x="494" y="341" type="curve"/>
      <point x="422" y="0" type="line" name="n25"/>
      <point x="290" y="0" type="line"/>
      <point x="359" y="329" type="line" smooth="yes"/>
      <point x="367" y="368"/>
      <point x="378" y="422"/>
      <point x="335" y="422" type="curve" smooth="yes"/>
      <point x="293" y="422"/>
      <point x="248" y="370"/>
      <point x="222" y="339" type="curve"/>
      <point x="151" y="0" type="line"/>
      <point x="18" y="0" type="line"/>
      <point x="106" y="425" type="line"/>
      <point x="22" y="433" type="line"/>
      <point x="22" y="467" type="line"/>
      <point x="187" y="500" type="line"/>
      <point x="256" y="500" type="line"/>
      <point x="244" y="443" type="line"/>
      <point x="292" y="476"/>
      <point x="345" y="500"/>
      <point x="391" y="500" type="curve" smooth="yes"/>
      <point x="446" y="500"/>
      <point x="478" y="466"/>
      <point x="493" y="432" type="curve"/>
      <point x="545" y="471"/>
      <point x="613" y="500"/>
      <point x="665" y="500" type="curve" smooth="yes" name="n50"/>
      <point x="728" y="500"/>
      <point x="775" y="460"/>
    </contour>
  </outline>
</glyph>
<glyph name="uni0276" format="2">
  <advance width="834"/>
  <unicode hex="0276"/>
  <outline>
    <contour>
      <point x="839" y="488" type="line" name="n00"/>
      <point x="810" y="360" type="line" name="n01"/>
      <point x="742" y="360" type="line"/>
      <point x="742" y="411" type="line" smooth="yes"/>
      <point x="742" y="418"/>
      <point x="737" y="429" name="hr01"/>
      <point x="722" y="429" type="curve" smooth="yes"/>
      <point x="594" y="429" type="line" name="n07"/>
      <point x="560" y="279" type="line"/>
      <point x="643" y="279" type="line" smooth="yes" name="n09"/>
      <point x="655" y="279"/>
      <point x="663" y="282"/>
      <point x="667" y="293" type="curve"/>
      <point x="681" y="338" type="line"/>
      <point x="746" y="338" type="line"/>
      <point x="706" y="160" type="line"/>
      <point x="641" y="160" type="line" name="n16"/>
      <point x="649" y="205" type="line" smooth="yes"/>
      <point x="651" y="216"/>
      <point x="647" y="223" name="hr02"/>
      <point x="632" y="223" type="curve" smooth="yes" name="n20"/>
      <point x="548" y="223" type="line"/>
      <point x="511" y="54" type="line"/>
      <point x="673" y="54" type="line" smooth="yes" name="n23"/>
      <point x="684" y="54"/>
      <point x="693" y="58"/>
      <point x="697" y="70" type="curve"/>
      <point x="721" y="134" type="line" name="hr03"/>
      <point x="789" y="134" type="line" name="n28"/>
      <point x="759" y="0" type="line" name="n29"/>
      <point x="399" y="0" type="line"/>
      <point x="405" y="24" type="line"/>
      <point x="337" y="-7"/>
      <point x="312" y="-12" name="hr04"/>
      <point x="262" y="-12" type="curve" smooth="yes" name="n34"/>
      <point x="116" y="-12"/>
      <point x="31" y="69"/>
      <point x="31" y="191" type="curve" smooth="yes" name="n37"/>
      <point x="31" y="340"/>
      <point x="135" y="500"/>
      <point x="340" y="500" type="curve" smooth="yes" name="n40"/>
      <point x="406" y="500"/>
      <point x="449" y="482"/>
      <point x="485" y="456" type="curve"/>
      <point x="492" y="488" type="line" name="n44"/>
    </contour>
    <contour>
      <point x="428" y="301" type="curve" smooth="yes"/>
      <point x="428" y="409"/>
      <point x="366" y="446" name="hr06"/>
      <point x="333" y="446" type="curve" smooth="yes" name="n48"/>
      <point x="248" y="446"/>
      <point x="168" y="323"/>
      <point x="168" y="186" type="curve" smooth="yes" name="n51"/>
      <point x="168" y="88"/>
      <point x="223" y="43"/>
      <point x="265" y="43" type="curve" smooth="yes" name="n54"/>
      <point x="348" y="43"/>
      <point x="428" y="175"/>
    </contour>
  </outline>
</glyph>
<glyph name="uni0277" format="2">
  <advance width="707"/>
  <unicode hex="0277"/>
  <outline>
    <contour>
      <point x="672" y="265" type="curve" smooth="yes" name="n00"/>
      <point x="672" y="161"/>
      <point x="606" y="-12"/>
      <point x="449" y="-12" type="curve" smooth="yes" name="n03"/>
      <point x="381" y="-12"/>
      <point x="335" y="12"/>
      <point x="316" y="52" type="curve" name="n06"/>
      <point x="282" y="13"/>
      <point x="229" y="-12"/>
      <point x="159" y="-12" type="curve" smooth="yes"/>
      <point x="69" y="-12"/>
      <point x="21" y="66"/>
      <point x="21" y="143" type="curve" smooth="yes" name="n12"/>
      <point x="21" y="336"/>
      <point x="184" y="500"/>
      <point x="406" y="500" type="curve" smooth="yes" name="n15"/>
      <point x="575" y="500"/>
      <point x="672" y="408"/>
    </contour>
    <contour>
      <point x="532" y="261" type="curve" smooth="yes" name="n18"/>
      <point x="532" y="361"/>
      <point x="479" y="445"/>
      <point x="396" y="445" type="curve" smooth="yes" name="n21"/>
      <point x="273" y="445"/>
      <point x="156" y="279"/>
      <point x="156" y="141" type="curve" smooth="yes" name="n24"/>
      <point x="156" y="94"/>
      <point x="173" y="56"/>
      <point x="204" y="56" type="curve" smooth="yes"/>
      <point x="269" y="56"/>
      <point x="307" y="137"/>
      <point x="307" y="190" type="curve" smooth="yes" name="n30"/>
      <point x="307" y="211"/>
      <point x="300" y="241"/>
      <point x="300" y="262" type="curve" smooth="yes" name="n33"/>
      <point x="300" y="303"/>
      <point x="333" y="359"/>
      <point x="383" y="359" type="curve" smooth="yes"/>
      <point x="414" y="359"/>
      <point x="430" y="323"/>
      <point x="430" y="296" type="curve" smooth="yes" name="n39"/>
      <point x="430" y="234"/>
      <point x="368" y="200"/>
      <point x="368" y="125" type="curve" smooth="yes" name="n42"/>
      <point x="368" y="83"/>
      <point x="390" y="56"/>
      <point x="435" y="56" type="curve" smooth="yes" name="n45"/>
      <point x="515" y="56"/>
      <point x="532" y="201"/>
    </contour>
  </outline>
</glyph>
<glyph name="uni0278" format="2">
  <advance width="642"/>
  <unicode hex="0278"/>
  <outline>
    <contour>
      <point x="610" y="293" type="curve" smooth="yes" name="n00"/>
      <point x="610" y="150"/>
      <point x="521" y="15"/>
      <point x="333" y="-8" type="curve"/>
      <point x="305" y="-146" type="line" smooth="yes"/>
      <point x="301" y="-166"/>
      <point x="315" y="-166"/>
      <point x="331" y="-167" type="curve"/>
      <point x="376" y="-171" type="line"/>
      <point x="376" y="-219" type="line" name="n09"/>
      <point x="95" y="-219" type="line"/>
      <point x="95" y="-171" type="line"/>
      <point x="139" y="-167" type="line"/>
      <point x="157" y="-166"/>
      <point x="168" y="-166"/>
      <point x="172" y="-146" type="curve" smooth="yes"/>
      <point x="202" y="-2" type="line"/>
      <point x="102" y="23"/>
      <point x="32" y="100"/>
      <point x="32" y="190" type="curve" smooth="yes" name="n19"/>
      <point x="32" y="334"/>
      <point x="117" y="473"/>
      <point x="306" y="496" type="curve"/>
      <point x="327" y="597" type="line" smooth="yes"/>
      <point x="331" y="616"/>
      <point x="316" y="618"/>
      <point x="301" y="619" type="curve"/>
      <point x="301" y="619"/>
      <point x="276" y="621"/>
      <point x="256" y="623" type="curve"/>
      <point x="256" y="671" type="line" name="n30"/>
      <point x="537" y="671" type="line"/>
      <point x="537" y="623" type="line"/>
      <point x="517" y="621"/>
      <point x="492" y="619"/>
      <point x="492" y="619" type="curve"/>
      <point x="475" y="618"/>
      <point x="464" y="617"/>
      <point x="459" y="597" type="curve"/>
      <point x="437" y="490" type="line"/>
      <point x="531" y="466"/>
      <point x="610" y="397"/>
    </contour>
    <contour>
      <point x="471" y="297" type="curve" smooth="yes" name="n42"/>
      <point x="471" y="352"/>
      <point x="449" y="392"/>
      <point x="422" y="417" type="curve"/>
      <point x="347" y="58" type="line"/>
      <point x="420" y="96"/>
      <point x="471" y="199"/>
    </contour>
    <contour>
      <point x="292" y="432" type="line"/>
      <point x="222" y="397"/>
      <point x="170" y="301"/>
      <point x="170" y="195" type="curve" smooth="yes" name="n52"/>
      <point x="170" y="138"/>
      <point x="190" y="98"/>
      <point x="217" y="73" type="curve"/>
    </contour>
  </outline>
</glyph>
<glyph name="uni027E" format="2">
  <advance width="371"/>
  <unicode hex="027E"/>
  <outline>
    <contour>
      <point x="412" y="431" type="curve" smooth="yes"/>
      <point x="412" y="383"/>
      <point x="365" y="369"/>
      <point x="334" y="366" type="curve"/>
      <point x="272" y="426" type="line"/>
      <point x="233" y="426"/>
      <point x="218" y="375"/>
      <point x="203" y="302" type="curve" smooth="yes"/>
      <point x="142" y="0" type="line" name="n08"/>
      <point x="8" y="0" type="line"/>
      <point x="70" y="305" type="line" smooth="yes"/>
      <point x="92" y="414"/>
      <point x="166" y="500" name="n12"/>
      <point x="322" y="500" type="curve" smooth="yes"/>
      <point x="391" y="500"/>
      <point x="412" y="460"/>
    </contour>
  </outline>
</glyph>
<glyph name="uni027F" format="2">
  <advance width="386"/>
  <unicode hex="027F"/>
  <outline>
    <contour>
      <point x="80" y="-218" type="line" name="n00"/>
      <point x="184" y="296" type="line" smooth="yes"/>
      <point x="190" y="326"/>
      <point x="196" y="356"/>
      <point x="196" y="386" type="curve" smooth="yes" name="n04"/>
      <point x="196" y="399"/>
      <point x="189" y="424"/>
      <point x="164" y="424" type="curve"/>
      <point x="89" y="354" type="line"/>
      <point x="44" y="370"/>
      <point x="33" y="396" name="hr01"/>
      <point x="33" y="418" type="curve" smooth="yes" name="n11"/>
      <point x="33" y="468"/>
      <point x="88" y="500" name="n13"/>
      <point x="152" y="500" type="curve" smooth="yes"/>
      <point x="284" y="500"/>
      <point x="314" y="415"/>
      <point x="314" y="324" type="curve" smooth="yes" name="n17"/>
      <point x="314" y="290"/>
      <point x="309" y="255"/>
      <point x="302" y="221" type="curve" smooth="yes"/>
      <point x="213" y="-218" type="line"/>
    </contour>
  </outline>
</glyph>
<glyph name="uni0285" format="2">
  <advance width="334"/>
  <unicode hex="0285"/>
  <outline>
    <contour>
      <point x="352" y="-148" type="curve" smooth="yes" name="n00"/>
      <point x="352" y="-198"/>
      <point x="297" y="-229" name="n02"/>
      <point x="233" y="-229" type="curve" smooth="yes"/>
      <point x="101" y="-229"/>
      <point x="71" y="-145"/>
      <point x="71" y="-54" type="curve" smooth="yes" name="n06"/>
      <point x="71" y="-20"/>
      <point x="76" y="15"/>
      <point x="83" y="49" type="curve" smooth="yes"/>
      <point x="133" y="296" type="line" smooth="yes"/>
      <point x="139" y="326"/>
      <point x="145" y="356" name="hr01"/>
      <point x="145" y="386" type="curve" smooth="yes" name="n13"/>
      <point x="145" y="399"/>
      <point x="138" y="424"/>
      <point x="113" y="424" type="curve"/>
      <point x="38" y="354" type="line"/>
      <point x="-7" y="370"/>
      <point x="-18" y="396" name="hr02"/>
      <point x="-18" y="418" type="curve" smooth="yes" name="n20"/>
      <point x="-18" y="468"/>
      <point x="37" y="500" name="n22"/>
      <point x="101" y="500" type="curve" smooth="yes"/>
      <point x="233" y="500"/>
      <point x="263" y="415"/>
      <point x="263" y="324" type="curve" smooth="yes" name="n26"/>
      <point x="263" y="290"/>
      <point x="258" y="255"/>
      <point x="251" y="221" type="curve" smooth="yes"/>
      <point x="201" y="-26" type="line" smooth="yes"/>
      <point x="195" y="-56"/>
      <point x="189" y="-85" name="hr03"/>
      <point x="189" y="-116" type="curve" smooth="yes" name="n33"/>
      <point x="189" y="-129"/>
      <point x="196" y="-154"/>
      <point x="221" y="-154" type="curve"/>
      <point x="296" y="-84" type="line"/>
      <point x="341" y="-100"/>
      <point x="352" y="-126" name="hr04"/>
    </contour>
  </outline>
</glyph>
<glyph name="uni0286" format="2">
  <advance width="314"/>
  <unicode hex="0286"/>
  <outline>
    <contour>
      <point x="449" y="677" type="curve" smooth="yes"/>
      <point x="449" y="650"/>
      <point x="435" y="613"/>
      <point x="383" y="596" type="curve"/>
      <point x="319" y="665" type="line"/>
      <point x="261" y="665"/>
      <point x="253" y="573"/>
      <point x="251" y="539" type="curve" smooth="yes"/>
      <point x="216" y="31" type="line" smooth="yes"/>
      <point x="213" y="-8"/>
      <point x="212" y="-65"/>
      <point x="192" y="-113" type="curve"/>
      <point x="217" y="-150"/>
      <point x="226" y="-166"/>
      <point x="243" y="-208" type="curve"/>
      <point x="172" y="-234" type="line"/>
      <point x="162" y="-210"/>
      <point x="152" y="-190"/>
      <point x="142" y="-174" type="curve"/>
      <point x="105" y="-211"/>
      <point x="53" y="-229"/>
      <point x="-17" y="-229" type="curve" smooth="yes" name="n21"/>
      <point x="-67" y="-229"/>
      <point x="-123" y="-196"/>
      <point x="-123" y="-144" type="curve" smooth="yes" name="n24"/>
      <point x="-123" y="-73"/>
      <point x="-57" y="-8"/>
      <point x="21" y="-8" type="curve" smooth="yes" name="n27"/>
      <point x="38" y="-8"/>
      <point x="62" y="-5"/>
      <point x="78" y="-18" type="curve"/>
      <point x="117" y="529" type="line" smooth="yes"/>
      <point x="125" y="641"/>
      <point x="203" y="737" name="n33"/>
      <point x="369" y="737" type="curve" smooth="yes"/>
      <point x="416" y="737"/>
      <point x="449" y="713"/>
    </contour>
    <contour>
      <point x="69" y="-85" type="curve"/>
      <point x="52" y="-71"/>
      <point x="41" y="-65"/>
      <point x="27" y="-65" type="curve" smooth="yes" name="n40"/>
      <point x="-8" y="-65"/>
      <point x="-30" y="-102"/>
      <point x="-30" y="-138" type="curve" smooth="yes" name="n43"/>
      <point x="-30" y="-159"/>
      <point x="-17" y="-172"/>
      <point x="5" y="-172" type="curve" smooth="yes" name="n46"/>
      <point x="48" y="-172"/>
      <point x="68" y="-129"/>
    </contour>
  </outline>
</glyph>
